<?xml version="1.0" encoding="utf-8"?><svg id="BG_Anim" image-rendering="optimizeQuality" baseProfile="basic" version="1.1" x="0px" y="0px" width="32" height="32" xmlns="http://www.w3.org/2000/svg" xmlns:xlink="http://www.w3.org/1999/xlink"><defs><linearGradient id="Gradient_1" gradientUnits="userSpaceOnUse" x1=".012" y1="10.8" x2="13.987" y2="10.8" spreadMethod="pad"><stop offset="0%" stop-color="#B22A37"/><stop offset="33.333%" stop-color="#C2303F"/><stop offset="66.666%" stop-color="#3A85B0"/><stop offset="100%" stop-color="#3E82AC"/></linearGradient><linearGradient id="Gradient_2" gradientUnits="userSpaceOnUse" x1="-.037" y1="10.75" x2="13.937" y2="10.75" spreadMethod="pad"><stop offset="0%" stop-color="#B22A37"/><stop offset="33.333%" stop-color="#C2303F"/><stop offset="66.666%" stop-color="#3A85B0"/><stop offset="100%" stop-color="#3E82AC"/></linearGradient></defs><g id="Scene-1" overflow="visible"><g id="Symbol-5" transform="translate(1 5.15)"><animateTransform attributeName="transform" additive="replace" type="translate" repeatCount="indefinite" dur="1.333s" keyTimes="0;.02499;.025;.04999;.05;.07499;.075;.12499;.125;.17499;.175;.19999;.2;.22499;.225;.49999;.5;.52499;.525;.54999;.55;.59999;.6;.67499;.675;.69999;.7;.72499;.725;1" values="7.95,16;7.95,16;8.022,16;8.022,16;7.966,16;7.966,16;8,16;8,16;7.9,16;7.9,16;7.945,16;7.945,16;7.894,16;7.894,16;7.95,16;7.95,16;7.98,16;7.98,16;7.96,16;7.96,16;7.9,16;7.9,16;8,16;8,16;7.96,16;7.96,16;7.98,16;7.98,16;7.95,16;7.95,16" calcMode="discrete"/><animateTransform attributeName="transform" additive="sum" type="skewY" repeatCount="indefinite" dur="1.333s" keyTimes="0;.12499;.125;.59999;.6;1" values="0;0;180;180;0;0" calcMode="discrete"/><animateTransform attributeName="transform" additive="sum" type="scale" repeatCount="indefinite" dur="1.333s" keyTimes="0;.02499;.025;.04999;.05;.07499;.075;.09999;.1;.14999;.15;.17499;.175;.19999;.2;.22499;.225;.49999;.5;.52499;.525;.54999;.55;.57499;.575;.59999;.6;.62499;.625;.64999;.65;.67499;.675;.69999;.7;.72499;.725;1" values="1,1;1,1;.778,1;.778,1;.556,1;.556,1;.333,1;.333,1;.111,1;.111,1;.333,1;.333,1;.556,1;.556,1;.778,1;.778,1;1,1;1,1;.8,1;.8,1;.6,1;.6,1;.4,1;.4,1;.2,1;.2,1;.01,1;.01,1;.2,1;.2,1;.4,1;.4,1;.6,1;.6,1;.8,1;.8,1;1,1;1,1" calcMode="discrete"/><animateTransform attributeName="transform" additive="sum" type="scale" repeatCount="indefinite" dur="1.333s" keyTimes="0;.12499;.125;.59999;.6;1" values="1,1;1,1;-1,1;-1,1;1,1;1,1" calcMode="discrete"/><animateTransform attributeName="transform" additive="sum" type="translate" repeatCount="indefinite" dur="1.333s" keyTimes="0;.02499;.025;.04999;.05;.09999;.1;.12499;.125;.14999;.15;.17499;.175;.19999;.2;.49999;.5;.54999;.55;.59999;.6;.62499;.625;.67499;.675;.72499;.725;1" values="-6.95,-10.85;-6.95,-10.85;-7.1,-10.85;-7.1,-10.85;-7.05,-10.85;-7.05,-10.85;-7.2,-10.85;-7.2,-10.85;-6.75,-10.85;-6.75,-10.85;-6.9,-10.85;-6.9,-10.85;-6.85,-10.85;-6.85,-10.85;-6.95,-10.85;-6.95,-10.85;-6.9,-10.85;-6.9,-10.85;-7,-10.85;-7,-10.85;-10.05,-10.85;-10.05,-10.85;-7.25,-10.85;-7.25,-10.85;-7.1,-10.85;-7.1,-10.85;-6.95,-10.85;-6.95,-10.85" calcMode="discrete"/><animate attributeName="opacity" repeatCount="indefinite" dur="1.333s" keyTimes="0;.02499;.025;.04999;.05;.07499;.075;.09999;.1;.12499;.125;.14999;.15;.17499;.175;.19999;.2;.22499;.225;.24999;.25;.27499;.275;.29999;.3;.32499;.325;.34999;.35;.37499;.375;.39999;.4;.42499;.425;.44999;.45;.47499;.475;.49999;.5;.52499;.525;.54999;.55;.57499;.575;.59999;.6;.62499;.625;.64999;.65;.67499;.675;.69999;.7;.72499;.725;1" values="1;1;.94;.94;.88;.88;.83;.83;.77;.77;.72;.72;.66;.66;.61;.61;.55;.55;.5;.5;.52;.52;.55;.55;.57;.57;.6;.6;.62;.62;.65;.65;.67;.67;.7;.7;.72;.72;.75;.75;.77;.77;.8;.8;.82;.82;.85;.85;.87;.87;.9;.9;.92;.92;.95;.95;.97;.97;1;1" calcMode="discrete"/><path fill="url(#Gradient_1)" stroke="none" d="M13.4 12Q12.8 10.7 11.6 9.85 10.45 9 7.85 8.25 5.35 7.55 4.65 7 4 6.4 4 5.55 4 4.65 4.75 4.1 5.5 3.5 6.9 3.5 8.3 3.5 9.05 4.15 9.8 4.85 10.05 6.55L13.5 6.35Q13.4 3.3 11.7 1.65 10 0 7 0 5 0 3.6 .7 2.2 1.4 1.45 2.75 .65 4.15 .65 5.85 .65 7.3 1.25 8.6 1.9 9.9 2.9 10.65 3.95 11.45 6.15 12.15 8.6 12.9 9.25 13.2 9.9 13.55 10.25 14.05 10.55 14.55 10.55 15.25 10.55 16.45 9.65 17.3 8.75 18.1 7.15 18.1 4 18.1 3.4 14.1L.05 14.5Q.75 21.7 7.05 21.7 10.65 21.7 12.35 19.85 14 17.95 14 15.25 14 13.35 13.4 12Z"/></g><g id="Symbol-4" transform="translate(17 5.15)"><animateTransform attributeName="transform" additive="replace" type="translate" repeatCount="indefinite" dur="1.333s" keyTimes="0;.24999;.25;.32499;.325;.37499;.375;.39999;.4;.42499;.425;.44999;.45;.47499;.475;.74999;.75;.77499;.775;.79999;.8;.82499;.825;.84999;.85;.89999;.9;.97499;.975;1" values="24,16;24,16;24.07,16;24.07,16;24.05,16;24.05,16;23.95,16;23.95,16;23.97,16;23.97,16;23.95,16;23.95,16;23.99,16;23.99,16;24,16;24,16;23.99,16;23.99,16;23.95,16;23.95,16;23.97,16;23.97,16;23.95,16;23.95,16;24.05,16;24.05,16;24.07,16;24.07,16;24,16;24,16" calcMode="discrete"/><animateTransform attributeName="transform" additive="sum" type="skewY" repeatCount="indefinite" dur="1.333s" keyTimes="0;.37499;.375;.84999;.85;1" values="0;0;180;180;0;0" calcMode="discrete"/><animateTransform attributeName="transform" additive="sum" type="scale" repeatCount="indefinite" dur="1.333s" keyTimes="0;.24999;.25;.27499;.275;.29999;.3;.32499;.325;.34999;.35;.37499;.375;.39999;.4;.42499;.425;.44999;.45;.47499;.475;.74999;.75;.77499;.775;.79999;.8;.82499;.825;.84999;.85;.87499;.875;.89999;.9;.92499;.925;.94999;.95;.97499;.975;1" values="1,1;1,1;.8,1;.8,1;.6,1;.6,1;.4,1;.4,1;.2,1;.2,1;.01,1;.01,1;.2,1;.2,1;.4,1;.4,1;.6,1;.6,1;.8,1;.8,1;1,1;1,1;.8,1;.8,1;.6,1;.6,1;.4,1;.4,1;.2,1;.2,1;.01,1;.01,1;.2,1;.2,1;.4,1;.4,1;.6,1;.6,1;.8,1;.8,1;1,1;1,1" calcMode="discrete"/><animateTransform attributeName="transform" additive="sum" type="scale" repeatCount="indefinite" dur="1.333s" keyTimes="0;.37499;.375;.84999;.85;1" values="1,1;1,1;-1,1;-1,1;1,1;1,1" calcMode="discrete"/><animateTransform attributeName="transform" additive="sum" type="translate" repeatCount="indefinite" dur="1.333s" keyTimes="0;.24999;.25;.27499;.275;.29999;.3;.32499;.325;.34999;.35;.37499;.375;.39999;.4;.42499;.425;.44999;.45;.47499;.475;.74999;.75;.77499;.775;.79999;.8;.82499;.825;.84999;.85;.87499;.875;.89999;.9;.92499;.925;.94999;.95;.97499;.975;1" values="-7,-10.85;-7,-10.85;-7.15,-10.85;-7.15,-10.85;-7.2,-10.85;-7.2,-10.85;-7.3,-10.85;-7.3,-10.85;-7.25,-10.85;-7.25,-10.85;-10,-10.85;-10,-10.85;-7,-10.85;-7,-10.85;-6.95,-10.85;-6.95,-10.85;-7,-10.85;-7,-10.85;-6.95,-10.85;-6.95,-10.85;-7,-10.85;-7,-10.85;-6.95,-10.85;-6.95,-10.85;-7,-10.85;-7,-10.85;-6.95,-10.85;-6.95,-10.85;-7,-10.85;-7,-10.85;-10,-10.85;-10,-10.85;-7.25,-10.85;-7.25,-10.85;-7.3,-10.85;-7.3,-10.85;-7.2,-10.85;-7.2,-10.85;-7.15,-10.85;-7.15,-10.85;-7,-10.85;-7,-10.85" calcMode="discrete"/><animate attributeName="opacity" repeatCount="indefinite" dur="1.333s" keyTimes="0;.02499;.025;.04999;.05;.07499;.075;.09999;.1;.12499;.125;.14999;.15;.17499;.175;.19999;.2;.22499;.225;.24999;.25;.27499;.275;.29999;.3;.32499;.325;.34999;.35;.37499;.375;.39999;.4;.42499;.425;.44999;.45;.47499;.475;.49999;.5;.52499;.525;.54999;.55;.57499;.575;.59999;.6;.62499;.625;.64999;.65;.67499;.675;.69999;.7;.72499;.725;.74999;.75;.77499;.775;.79999;.8;.82499;.825;.84999;.85;.87499;.875;.89999;.9;.92499;.925;.94999;.95;.97499;.975;1" values="1;1;.97;.97;.94;.94;.92;.92;.89;.89;.86;.86;.84;.84;.81;.81;.78;.78;.76;.76;.73;.73;.71;.71;.68;.68;.65;.65;.63;.63;.6;.6;.57;.57;.55;.55;.52;.52;.5;.5;.52;.52;.55;.55;.57;.57;.6;.6;.62;.62;.65;.65;.67;.67;.7;.7;.72;.72;.75;.75;.77;.77;.8;.8;.82;.82;.85;.85;.87;.87;.9;.9;.92;.92;.95;.95;.97;.97;1;1" calcMode="discrete"/><path fill="url(#Gradient_2)" stroke="none" d="M13.35 11.95Q12.75 10.65 11.6 9.8 10.4 8.95 7.8 8.2 5.35 7.5 4.65 6.95 3.95 6.35 3.95 5.5 3.95 4.6 4.7 4.05 5.45 3.45 6.85 3.45 8.25 3.45 9.05 4.1 9.8 4.8 10 6.5L13.5 6.3Q13.4 3.25 11.7 1.6 10 -.05 6.95 -.05 4.95 -.05 3.55 .65 2.2 1.35 1.4 2.7 .65 4.1 .65 5.8 .65 7.3 1.25 8.55 1.85 9.85 2.9 10.6 3.9 11.4 6.15 12.1 8.6 12.85 9.25 13.15 9.9 13.5 10.2 14 10.5 14.5 10.5 15.2 10.5 16.4 9.6 17.25 8.7 18.05 7.15 18.05 3.95 18.05 3.4 14.05L0 14.45Q.7 21.65 7.05 21.65 10.6 21.65 12.3 19.8 14 17.9 14 15.2 14 13.3 13.35 11.95Z"/></g></g></svg>