<?xml version="1.0" encoding="utf-8"?>
<!-- Generator: Adobe Illustrator 24.2.1, SVG Export Plug-In . SVG Version: 6.00 Build 0)  -->
<svg version="1.1" id="Layer_1" xmlns="http://www.w3.org/2000/svg" xmlns:xlink="http://www.w3.org/1999/xlink" x="0px" y="0px"
	 viewBox="0 0 512 512" style="enable-background:new 0 0 512 512;" xml:space="preserve">
<style type="text/css">
	.st0{fill:url(#SVGID_1_);}
	.st1{fill:url(#SVGID_2_);}
</style>
<g>
	<linearGradient id="SVGID_1_" gradientUnits="userSpaceOnUse" x1="90" y1="256" x2="244.68" y2="256">
		<stop  offset="0" style="stop-color:#B22A37"/>
		<stop  offset="0.3333" style="stop-color:#C2303F"/>
		<stop  offset="0.6667" style="stop-color:#3A85B0"/>
		<stop  offset="1" style="stop-color:#3E82AC"/>
	</linearGradient>
	<path class="st0" d="M90,296.37l37.52-4.43c4.22,29.66,18.05,44.49,41.48,44.49c11.61,0,20.74-3.03,27.39-9.1
		c6.65-6.06,9.97-13.58,9.97-22.55c0-5.27-1.16-9.76-3.48-13.45c-2.32-3.69-5.86-6.72-10.61-9.09c-4.75-2.37-16.25-6.35-34.51-11.94
		c-16.36-4.95-28.34-10.33-35.94-16.13c-7.6-5.8-13.64-13.42-18.13-22.86c-4.49-9.44-6.73-19.59-6.73-30.45
		c0-12.66,2.88-24.04,8.63-34.17c5.75-10.12,13.69-17.77,23.83-22.93s22.64-7.75,37.52-7.75c22.38,0,39.84,6.07,52.4,18.21
		c12.56,12.14,19.21,29.5,19.95,52.09l-38.47,2.06c-1.69-12.45-5.33-21.16-10.92-26.12c-5.59-4.96-13.56-7.44-23.91-7.44
		s-18.31,2.15-23.91,6.47c-5.59,4.31-8.39,9.68-8.39,16.1c0,6.32,2.54,11.63,7.62,15.94c5.08,4.31,16.75,9.06,35,14.23
		c19.31,5.6,33.27,11.48,41.86,17.66c8.6,6.17,15.16,14.14,19.7,23.9c4.53,9.76,6.8,21.61,6.8,35.53c0,20.16-6.2,37.1-18.6,50.81
		c-12.4,13.72-31.8,20.58-58.18,20.58C121.24,376.01,95.28,349.46,90,296.37z"/>
	<linearGradient id="SVGID_2_" gradientUnits="userSpaceOnUse" x1="267.32" y1="256" x2="422" y2="256">
		<stop  offset="0" style="stop-color:#B22A37"/>
		<stop  offset="0.3333" style="stop-color:#C2303F"/>
		<stop  offset="0.6667" style="stop-color:#3A85B0"/>
		<stop  offset="1" style="stop-color:#3E82AC"/>
	</linearGradient>
	<path class="st1" d="M267.32,296.37l37.52-4.43c4.22,29.66,18.05,44.49,41.48,44.49c11.61,0,20.74-3.03,27.39-9.1
		c6.65-6.06,9.97-13.58,9.97-22.55c0-5.27-1.16-9.76-3.48-13.45c-2.32-3.69-5.86-6.72-10.61-9.09s-16.25-6.35-34.51-11.94
		c-16.36-4.95-28.34-10.33-35.94-16.13c-7.6-5.8-13.64-13.42-18.13-22.86c-4.49-9.44-6.73-19.59-6.73-30.45
		c0-12.66,2.88-24.04,8.63-34.17c5.75-10.12,13.69-17.77,23.83-22.93s22.64-7.75,37.52-7.75c22.38,0,39.84,6.07,52.4,18.21
		c12.56,12.14,19.21,29.5,19.95,52.09l-38.47,2.06c-1.69-12.45-5.33-21.16-10.92-26.12c-5.59-4.96-13.56-7.44-23.91-7.44
		c-10.34,0-18.31,2.15-23.91,6.47c-5.59,4.31-8.39,9.68-8.39,16.1c0,6.32,2.54,11.63,7.62,15.94c5.08,4.31,16.75,9.06,35,14.23
		c19.31,5.6,33.27,11.48,41.86,17.66c8.6,6.17,15.16,14.14,19.7,23.9c4.53,9.76,6.8,21.61,6.8,35.53c0,20.16-6.2,37.1-18.6,50.81
		c-12.4,13.72-31.8,20.58-58.18,20.58C298.56,376.01,272.6,349.46,267.32,296.37z"/>
</g>
</svg>
