<svg id="Layer_1" data-name="Layer 1" xmlns="http://www.w3.org/2000/svg" viewBox="0 0 512 512"><defs><style>.cls-1{fill:#040404;}.cls-2{fill:#d7d7d7;}.cls-3{fill:#b9b9b9;}.cls-4{fill:#ee5831;}.cls-5{fill:#d6d6d6;}.cls-6{fill:#060a0a;}.cls-7{fill:#0d0705;}.cls-8{fill:#100705;}.cls-9{fill:#44b7c3;}.cls-10{fill:#050a0b;}.cls-11{fill:#ec5831;}.cls-12{fill:#999;}.cls-13{fill:#43b4bf;}</style></defs><path class="cls-1" d="M6,107a49.39,49.39,0,0,1,4.87-21.65,28.32,28.32,0,0,1,3.74-6A39.65,39.65,0,0,1,43.2,64.71c1.45-.12,2.92-.09,4.39-.09q208.43,0,416.86,0c17,0,29.71,7,37.58,22.2a36.35,36.35,0,0,1,4,16.9q0,152.3-.05,304.58c0,21.61-17,38.49-38.56,39.1-1,0-280.84,0-419.79,0-17.16,0-29.89-7.18-37.9-22.56l0-.08A36.29,36.29,0,0,1,6,408.31ZM113.58,432.24c9.91.1,19.81.29,29.72.28,18.53,0,37.06-.18,55.59-.27,22.69.49,45.39.45,68.09,0a8.72,8.72,0,0,0,1.43.24c65.75,0,131.51.11,197.26,0,15.74,0,25.78-10.42,25.79-26.22q.12-120.58.12-241.18c0-3.43-1.19-4-4.19-3.91-8.13.17-16.27.06-24.41.06H104.6c-7.79,0-9.43-1.12-11.49-7.73,2.31-6.48,3.57-7.27,11.82-7.27H483.8a36.23,36.23,0,0,1,3.9,0c3,.34,3.89-.86,3.86-3.85-.16-12.37,0-24.74-.11-37.11a26.27,26.27,0,0,0-2.92-12.67c-5.4-9.79-14.15-13.16-24.82-13.15q-207.49,0-415,0c-.49,0-1,0-1.47,0-16.07.38-26,10.35-26.14,26.45-.1,11.55.16,23.11-.12,34.66-.1,4.3.83,5.85,5.52,5.75,15.12-.32,30.26-.17,45.4-.09,6.31,0,8.12,1.49,9.74,7.25-1.42,5.95-3.56,7.68-9.89,7.7-14.8.05-29.6.21-44.39-.1-4.85-.1-6.44.87-6.42,6.18.21,62.92.13,125.85.13,188.77,0,16.75-.09,33.5,0,50.24.12,15.34,9.18,24.87,24.33,25.92C68.16,432.77,90.87,432.71,113.58,432.24Z"/><path class="cls-2" d="M93.11,153.49c2.06,6.61,3.7,7.73,11.49,7.73H463c8.14,0,16.28.11,24.41-.06,3-.07,4.19.48,4.19,3.91q-.16,120.59-.12,241.18c0,15.8-10,26.18-25.79,26.22-65.75.15-131.51,0-197.26,0a8.72,8.72,0,0,1-1.43-.24c0-1.44,0-2.88,0-4.33,4.73-1,7.39-3.79,7.39-8.8,0-8.29,0-16.59,0-24.88,0-4.8-2.68-7.47-7.26-8.31-5.74-1.05-11.45-2.35-17.24-2.93-5.32-.54-9-2.41-10.77-7.79-1.25-3.87-3.67-7.25-6.19-10.41-2.19-2.76-2.24-5.3-1-8.47,2.5-6.31,4.55-12.8,7-19.14,1.85-4.8.35-8.28-3.84-10.71q-19.51-11.38-39.15-22.59c-4.92-2.8-7.75-2.29-11.55,2q-7.08,8.06-13.82,16.4c-1.59,2-3.09,2.82-5.75,2.45a61,61,0,0,0-17,0c-2.69.38-4.14-.53-5.73-2.48-4.6-5.68-9.42-11.18-14.16-16.76-2.75-3.24-6.18-4.43-10-2.3Q97.17,315,76.65,327.1c-3.42,2-4.72,5.21-3.27,9.22,1.81,5,3.06,10.3,5.43,15,3.36,6.7,3,12.28-2.12,17.94-2.2,2.45-3.46,5.84-4.8,9-1.09,2.52-2.59,3.56-5.39,3.95-6.74.93-13.39,2.43-20.08,3.64-6.19,1.13-8.12,3.18-8.21,9.38-.1,7.64.12,15.28-.07,22.92-.13,5.37,2.07,8.65,7.35,9.8l-.05,4.27c-15.15-1-24.21-10.58-24.33-25.92-.12-16.74,0-33.49,0-50.24,0-62.92.08-125.85-.13-188.77,0-5.31,1.57-6.28,6.42-6.18,14.79.31,29.59.15,44.39.1,6.33,0,8.47-1.75,9.89-7.7ZM267.84,217c-5.57-.42-7.93,2.26-9.39,6-5.41,13.87-10.81,27.74-16.1,41.65-2,5.4-.94,8.31,4.09,11.43,5.65,3.5,11.29,7,17.08,10.3,2.84,1.6,4.38,3.64,4.3,6.89-.15,5.58,1.13,11,2.52,16.3a5,5,0,0,1-1.36,5.19q-7.1,8-14.1,16.18c-3.95,4.58-4,7.76-.23,12.54q13.66,17.14,27.47,34.22c3.88,4.81,6.6,5.35,12.25,2.37,6.16-3.26,12.3-6.55,18.35-10,2.16-1.23,3.91-1.5,6.23-.26A67,67,0,0,0,334.76,376a5.74,5.74,0,0,1,4.53,4.34c2.22,6.93,4.59,13.82,7,20.69,1.36,3.92,4.11,6.61,8.37,6,15.26-2.16,30.49-4.55,45.69-7.06,6.27-1,8.05-3.46,8.2-10,.14-6,.46-12.05.14-18.05-.23-4.31,1.32-7,5-9A45.23,45.23,0,0,0,424.56,354a6.67,6.67,0,0,1,7-2.08c6.66,1.42,13.36,2.64,20,3.95,6.22,1.23,8.62.05,10.93-5.79q8.13-20.52,16.11-41.12c2.2-5.69,1.18-8.5-4.12-11.83-5.08-3.19-10.1-6.54-15.4-9.31-4-2.09-5.89-4.71-6-9.36a48.93,48.93,0,0,0-2.33-13.87c-.8-2.52-.2-4.58,1.66-6.62,4.82-5.29,9.38-10.81,14.12-16.17,3.33-3.76,3.4-7.44.24-11.35-9.49-11.77-18.89-23.61-28.41-35.34-3.35-4.12-6.53-4.72-11.18-2.3-4.46,2.32-9.1,4.43-13.16,7.34-6.1,4.36-11.72,4.79-18.11.57-2.74-1.8-6.33-2.41-9.6-3.31a6.39,6.39,0,0,1-4.81-4.74c-2.2-6.94-4.65-13.8-7-20.68-1.39-4-4.26-6.29-8.51-5.68q-23.12,3.36-46.18,7.09c-4.58.73-7.07,3.49-7.16,8.35-.12,7.32-.58,14.63-.61,21.95a5.73,5.73,0,0,1-3,5.52,65.92,65.92,0,0,0-13.27,10.66c-1.83,1.93-3.63,2.05-6.11,1.5C282.09,219.67,274.43,218.31,267.84,217Z"/><path class="cls-3" d="M93.11,153.49H81.65c-1.62-5.76-3.43-7.22-9.74-7.25-15.14-.08-30.28-.23-45.4.09-4.69.1-5.62-1.45-5.52-5.75.28-11.55,0-23.11.12-34.66.14-16.1,10.07-26.07,26.14-26.45.49,0,1,0,1.47,0q207.5,0,415,0c10.67,0,19.42,3.36,24.82,13.15a26.27,26.27,0,0,1,2.92,12.67c.11,12.37-.05,24.74.11,37.11,0,3-.88,4.19-3.86,3.85a36.23,36.23,0,0,0-3.9,0H104.93C96.68,146.22,95.42,147,93.11,153.49Z"/><path class="cls-4" d="M266.94,427.94c0,1.45,0,2.89,0,4.33-22.7.43-45.4.47-68.09,0,.49-1.46,1-2.92,1.46-4.37,6.66-1.14,8.88-3.85,8.78-10.49-.51-32.92-29.81-56-59-52.34-26.29,3.32-47.29,26.42-46.7,52.95.14,6.51,2.3,8.9,8.87,9.84.44,1.47.88,2.93,1.31,4.4-22.71.47-45.42.53-68.14,0,0-1.42,0-2.85.05-4.27,6.39-2.09,7.62-3.78,7.65-10.59,0-4.87.09-9.75,0-14.63-.06-2.16.53-3.05,2.85-3.41,6.56-1,13-2.55,19.6-3.55a8.86,8.86,0,0,0,7.54-6,76.25,76.25,0,0,1,12.34-21.42,9.52,9.52,0,0,0,1.65-10.4c-2.35-5.86-4.33-11.86-6.59-17.76-.88-2.3-.64-3.69,1.75-5q12.57-6.94,24.86-14.37c2.4-1.44,3.59-.81,5.14,1.14,3.83,4.83,8,9.43,11.82,14.26,2.45,3.06,5.3,4.59,9.29,4a83.77,83.77,0,0,1,25.73,0c4,.62,6.84-.9,9.29-4,4-4.94,8.18-9.69,12.16-14.62,1.3-1.6,2.28-2.3,4.36-1.06q12.76,7.59,25.71,14.86c2,1.1,2.32,2.18,1.53,4.24-2.33,6-4.32,12.22-6.73,18.22a9.43,9.43,0,0,0,1.56,10.4,76.84,76.84,0,0,1,12.38,21.39,8.91,8.91,0,0,0,7.48,6.1c6.4,1,12.72,2.49,19.12,3.46,2.62.4,3.51,1.31,3.4,4-.21,4.87-.1,9.76-.05,14.63C259.36,424,260.86,425.93,266.94,427.94Z"/><path class="cls-5" d="M200.35,427.88c-.49,1.45-1,2.91-1.46,4.37-18.53.09-37.06.24-55.59.27-9.91,0-19.81-.18-29.72-.28-.43-1.47-.87-2.93-1.31-4.4,4.67-1.86,6.67-5.29,6.29-10.29a30.11,30.11,0,0,1,1.51-11c5.44-18.13,22.8-29,42.27-26.43,17,2.22,31,18.08,31.45,36.14C193.92,421.53,194.75,425.92,200.35,427.88Z"/><path class="cls-6" d="M267.84,217c6.59,1.27,14.25,2.63,21.84,4.31,2.48.55,4.28.43,6.11-1.5a65.92,65.92,0,0,1,13.27-10.66,5.73,5.73,0,0,0,3-5.52c0-7.32.49-14.63.61-21.95.09-4.86,2.58-7.62,7.16-8.35q23.07-3.69,46.18-7.09c4.25-.61,7.12,1.66,8.51,5.68,2.38,6.88,4.83,13.74,7,20.68a6.39,6.39,0,0,0,4.81,4.74c3.27.9,6.86,1.51,9.6,3.31,6.39,4.22,12,3.79,18.11-.57,4.06-2.91,8.7-5,13.16-7.34,4.65-2.42,7.83-1.82,11.18,2.3,9.52,11.73,18.92,23.57,28.41,35.34,3.16,3.91,3.09,7.59-.24,11.35-4.74,5.36-9.3,10.88-14.12,16.17-1.86,2-2.46,4.1-1.66,6.62a48.93,48.93,0,0,1,2.33,13.87c.07,4.65,1.95,7.27,6,9.36,5.3,2.77,10.32,6.12,15.4,9.31,5.3,3.33,6.32,6.14,4.12,11.83q-8,20.6-16.11,41.12c-2.31,5.84-4.71,7-10.93,5.79-6.67-1.31-13.37-2.53-20-3.95a6.67,6.67,0,0,0-7,2.08,45.23,45.23,0,0,1-10.91,8.92c-3.65,2-5.2,4.7-5,9,.32,6,0,12-.14,18.05-.15,6.57-1.93,9-8.2,10-15.2,2.51-30.43,4.9-45.69,7.06-4.26.6-7-2.09-8.37-6-2.4-6.87-4.77-13.76-7-20.69a5.74,5.74,0,0,0-4.53-4.34A67,67,0,0,1,319,369.87c-2.32-1.24-4.07-1-6.23.26-6.05,3.44-12.19,6.73-18.35,10-5.65,3-8.37,2.44-12.25-2.37q-13.78-17.08-27.47-34.22c-3.81-4.78-3.72-8,.23-12.54q7-8.13,14.1-16.18a5,5,0,0,0,1.36-5.19c-1.39-5.32-2.67-10.72-2.52-16.3.08-3.25-1.46-5.29-4.3-6.89-5.79-3.26-11.43-6.8-17.08-10.3-5-3.12-6.14-6-4.09-11.43,5.29-13.91,10.69-27.78,16.1-41.65C259.91,219.3,262.27,216.62,267.84,217Zm4.86,16.22c-1.93-.81-2.45.87-3.15,2.68-3.4,8.92-6.75,17.88-10.46,26.67-1.17,2.76-.13,3.73,1.91,4.93,5.17,3,10.17,6.4,15.43,9.28,4.4,2.4,6.22,5.88,6.05,10.73a66,66,0,0,0,3.45,22.52c1.33,4.16.67,7.52-2.28,10.74-4.28,4.67-8.3,9.59-12.57,14.27-1.53,1.68-1.87,2.78-.23,4.74,6.13,7.37,12.1,14.88,18,22.44,1.58,2,2.89,2.43,5.22,1.08,5.45-3.19,11.11-6,16.63-9.12,3.38-1.88,6.69-2.27,10.14-.22a78.69,78.69,0,0,0,23.44,9.16,9,9,0,0,1,7.08,6.54c2,6,4.35,11.86,6.14,17.91.83,2.82,2.12,3.59,4.85,3.16,9.29-1.5,18.59-2.94,27.9-4.26,2.85-.4,3.66-1.76,3.61-4.53-.12-6,.2-12,.14-18.05,0-4.33,1.57-7.39,5.42-9.55a63.58,63.58,0,0,0,17.89-14.15c3.56-4.23,7.61-5,12.61-3.87,5.53,1.26,11.12,2.26,16.66,3.48,2.6.58,4.06,0,5.07-2.77,3.19-8.83,6.63-17.58,10.19-26.27,1-2.53.44-3.75-1.79-5-5.63-3.24-11.11-6.73-16.66-10.09a8.6,8.6,0,0,1-4.62-8,75.93,75.93,0,0,0-3.87-24.89A9.13,9.13,0,0,1,437,253c4.32-4.87,8.53-9.83,12.85-14.69,1.44-1.62,2.1-2.77.34-4.87-6.26-7.48-12.33-15.12-18.3-22.83-1.59-2-2.83-1.81-4.8-.68-5.64,3.21-11.45,6.11-17.08,9.33a9.07,9.07,0,0,1-10.05-.08,75,75,0,0,0-23-9,9.19,9.19,0,0,1-7.42-6.79c-2-6.16-4.28-12.23-6.24-18.4-.73-2.29-1.61-2.93-4.15-2.49-9.43,1.61-18.92,2.91-28.4,4.23-2.32.33-3.29,1.25-3.31,3.75-.05,6.18-.69,12.36-.58,18.53.08,4.79-1.65,7.93-5.85,10.25a65.86,65.86,0,0,0-17.81,14.25c-3.33,3.79-7,4.56-11.79,3.41C285.41,235.48,279.3,234.54,272.7,233.26Z"/><path class="cls-7" d="M266.94,427.94c-6.08-2-7.58-4-7.64-10.14-.05-4.87-.16-9.76.05-14.63.11-2.66-.78-3.57-3.4-4-6.4-1-12.72-2.47-19.12-3.46a8.91,8.91,0,0,1-7.48-6.1A76.84,76.84,0,0,0,217,368.25a9.43,9.43,0,0,1-1.56-10.4c2.41-6,4.4-12.18,6.73-18.22.79-2.06.43-3.14-1.53-4.24q-12.95-7.27-25.71-14.86c-2.08-1.24-3.06-.54-4.36,1.06-4,4.93-8.19,9.68-12.16,14.62-2.45,3.05-5.29,4.57-9.29,4a83.77,83.77,0,0,0-25.73,0c-4,.61-6.84-.92-9.29-4-3.85-4.83-8-9.43-11.82-14.26-1.55-1.95-2.74-2.58-5.14-1.14q-12.28,7.43-24.86,14.37c-2.39,1.33-2.63,2.72-1.75,5,2.26,5.9,4.24,11.9,6.59,17.76a9.52,9.52,0,0,1-1.65,10.4A76.25,76.25,0,0,0,83.1,389.75a8.86,8.86,0,0,1-7.54,6c-6.56,1-13,2.53-19.6,3.55-2.32.36-2.91,1.25-2.85,3.41.12,4.88,0,9.76,0,14.63,0,6.81-1.26,8.5-7.65,10.59-5.28-1.15-7.48-4.43-7.35-9.8.19-7.64,0-15.28.07-22.92.09-6.2,2-8.25,8.21-9.38,6.69-1.21,13.34-2.71,20.08-3.64,2.8-.39,4.3-1.43,5.39-3.95,1.34-3.12,2.6-6.51,4.8-9,5.1-5.66,5.48-11.24,2.12-17.94-2.37-4.73-3.62-10-5.43-15-1.45-4-.15-7.2,3.27-9.22Q97.17,315,117.88,303.26c3.77-2.13,7.2-.94,10,2.3,4.74,5.58,9.56,11.08,14.16,16.76,1.59,1.95,3,2.86,5.73,2.48a61,61,0,0,1,17,0c2.66.37,4.16-.48,5.75-2.45q6.73-8.34,13.82-16.4c3.8-4.33,6.63-4.84,11.55-2Q215.49,315.1,235,326.5c4.19,2.43,5.69,5.91,3.84,10.71-2.44,6.34-4.49,12.83-7,19.14-1.26,3.17-1.21,5.71,1,8.47,2.52,3.16,4.94,6.54,6.19,10.41,1.74,5.38,5.45,7.25,10.77,7.79,5.79.58,11.5,1.88,17.24,2.93,4.58.84,7.23,3.51,7.26,8.31.05,8.29,0,16.59,0,24.88C274.33,424.15,271.67,426.9,266.94,427.94Z"/><path class="cls-8" d="M200.35,427.88c-5.6-2-6.43-6.35-6.56-11.63-.46-18.06-14.42-33.92-31.45-36.14-19.47-2.55-36.83,8.3-42.27,26.43a30.11,30.11,0,0,0-1.51,11c.38,5-1.62,8.43-6.29,10.29-6.57-.94-8.73-3.33-8.87-9.84-.59-26.53,20.41-49.63,46.7-52.95,29.22-3.7,58.52,19.42,59,52.34C209.23,424,207,426.74,200.35,427.88Z"/><path class="cls-9" d="M272.7,233.26c6.6,1.28,12.71,2.22,18.68,3.68,4.75,1.15,8.46.38,11.79-3.41A65.86,65.86,0,0,1,321,219.28c4.2-2.32,5.93-5.46,5.85-10.25-.11-6.17.53-12.35.58-18.53,0-2.5,1-3.42,3.31-3.75,9.48-1.32,19-2.62,28.4-4.23,2.54-.44,3.42.2,4.15,2.49,2,6.17,4.25,12.24,6.24,18.4a9.19,9.19,0,0,0,7.42,6.79,75,75,0,0,1,23,9,9.07,9.07,0,0,0,10.05.08c5.63-3.22,11.44-6.12,17.08-9.33,2-1.13,3.21-1.37,4.8.68,6,7.71,12,15.35,18.3,22.83,1.76,2.1,1.1,3.25-.34,4.87-4.32,4.86-8.53,9.82-12.85,14.69a9.13,9.13,0,0,0-2.07,9.83,75.93,75.93,0,0,1,3.87,24.89,8.6,8.6,0,0,0,4.62,8c5.55,3.36,11,6.85,16.66,10.09,2.23,1.29,2.83,2.51,1.79,5-3.56,8.69-7,17.44-10.19,26.27-1,2.79-2.47,3.35-5.07,2.77-5.54-1.22-11.13-2.22-16.66-3.48-5-1.13-9.05-.36-12.61,3.87a63.58,63.58,0,0,1-17.89,14.15c-3.85,2.16-5.46,5.22-5.42,9.55.06,6-.26,12-.14,18.05.05,2.77-.76,4.13-3.61,4.53-9.31,1.32-18.61,2.76-27.9,4.26-2.73.43-4-.34-4.85-3.16-1.79-6.05-4.17-11.92-6.14-17.91a9,9,0,0,0-7.08-6.54A78.69,78.69,0,0,1,320.84,354c-3.45-2.05-6.76-1.66-10.14.22-5.52,3.08-11.18,5.93-16.63,9.12-2.33,1.35-3.64,1-5.22-1.08-5.9-7.56-11.87-15.07-18-22.44-1.64-2-1.3-3.06.23-4.74,4.27-4.68,8.29-9.6,12.57-14.27,3-3.22,3.61-6.58,2.28-10.74a66,66,0,0,1-3.45-22.52c.17-4.85-1.65-8.33-6.05-10.73-5.26-2.88-10.26-6.23-15.43-9.28-2-1.2-3.08-2.17-1.91-4.93,3.71-8.79,7.06-17.75,10.46-26.67C270.25,234.13,270.77,232.45,272.7,233.26Zm133,51.06c6.2-3,7.42-5.59,5.66-11.95-10.49-38-58.94-51.45-87.08-23.94-16.13,15.76-20.81,35.1-13.09,56.21s23.62,32.73,46.25,34.41a51.75,51.75,0,0,0,51.39-31.26c2.51-6,1.57-8.75-4.08-11.94A41,41,0,0,0,405.65,284.32Z"/><path class="cls-2" d="M405.65,284.32a41,41,0,0,1-.95,11.53c-4.72-.68-7.72,1.54-9.6,5.69-.6,1.32-1.28,2.61-2,3.88-8.55,15.71-28.12,22.84-45.79,16.69-16.11-5.61-27.25-24.12-24.41-40.55,3.05-17.7,17-31.29,33.34-32.41,19.79-1.35,34.8,8.75,40.6,27.55C398.27,281.24,400.77,284,405.65,284.32Z"/><path class="cls-10" d="M405.65,284.32c-4.88-.3-7.38-3.08-8.78-7.62-5.8-18.8-20.81-28.9-40.6-27.55-16.3,1.12-30.29,14.71-33.34,32.41-2.84,16.43,8.3,34.94,24.41,40.55,17.67,6.15,37.24-1,45.79-16.69.69-1.27,1.37-2.56,2-3.88,1.88-4.15,4.88-6.37,9.6-5.69,5.65,3.19,6.59,5.94,4.08,11.94a51.75,51.75,0,0,1-51.39,31.26c-22.63-1.68-38.53-13.32-46.25-34.41s-3-40.45,13.09-56.21c28.14-27.51,76.59-14,87.08,23.94C413.07,278.73,411.85,281.3,405.65,284.32Z"/><path class="cls-11" d="M40.19,111.84a23.92,23.92,0,0,1,23.71-24c13,0,24,10.9,24,23.84,0,12.65-10.83,23.56-23.59,23.85S40.28,124.84,40.19,111.84Z"/><path class="cls-12" d="M142.73,111.58a24,24,0,0,1-23.78,24c-12.81,0-24-11.38-23.84-24.08a24.15,24.15,0,0,1,23.7-23.62A23.82,23.82,0,0,1,142.73,111.58Z"/><path class="cls-13" d="M150.36,111.72a23.68,23.68,0,1,1,47.36.1,24,24,0,0,1-23.5,23.72C161.33,135.75,150.38,124.83,150.36,111.72Z"/></svg>