<svg id="Layer_1" data-name="Layer 1" xmlns="http://www.w3.org/2000/svg" viewBox="0 0 512 512"><defs><style>.cls-1{fill:#fbc63d;}.cls-2{fill:#ec5831;}.cls-3{fill:#040404;}.cls-4{fill:#999;}.cls-5{fill:#43b4bf;}</style></defs><path class="cls-1" d="M491.27,79.46c-4.37,0-172.91-8-177.27-8-1.4,6.24-3.23,7.62-10.31,7.62H49.89c-1.62,0-3.25,0-4.88,0-12.77.63-22.19,8.83-23.65,21.55-1.5,13.1-.09,26.33-.67,39.48a6.75,6.75,0,0,0,.7,4.05c.81,1.17,2.36,1.51,4.91,1.51q137.15-.19,274.29-.1c1.47,0,2.93-.06,4.4,0a14.19,14.19,0,0,1,3.81.61c2.81.93,4.19,3,5.15,7.06H499.27C499.27,126,491.27,106.71,491.27,79.46Z"/><path class="cls-2" d="M63.9,87.85a23.92,23.92,0,0,0-23.71,24c.09,13,11.28,24,24.11,23.7s23.55-11.2,23.59-23.85C87.93,98.75,76.93,87.82,63.9,87.85Z"/><path class="cls-3" d="M506,103.71q0,152.3,0,304.58c0,21.61-17,38.46-38.6,39.07l-173.82,0h-246c-17.16,0-29.89-7.18-37.89-22.56a28.11,28.11,0,0,1-2.41-6.44A56.22,56.22,0,0,1,6,409.07V106.94a49.27,49.27,0,0,1,4.89-21.65,28.44,28.44,0,0,1,3.72-5.93A39.67,39.67,0,0,1,43.18,64.71c1.46-.12,2.93-.09,4.39-.09q208.44,0,416.87,0c16.95,0,29.7,7,37.58,22.2A36.34,36.34,0,0,1,506,103.71Zm-14.41,61.36c0-3.43-1.19-4-4.19-3.91-8.13.17-16.27.06-24.41.06H104.58l-32.84,0h-.59l250.28,58.86,18.94-49.42,49.77,160.13L305.85,432.52q79.9,0,159.8,0c15.74,0,25.78-10.42,25.8-26.22Q491.55,285.67,491.56,165.07Zm-7.7-18.85a7.77,7.77,0,0,0,7.64-7.83c-.08-11,0-22.07-.06-33.11a26.28,26.28,0,0,0-2.93-12.67c-5.4-9.79-14.14-13.16-24.82-13.15q-207.49,0-415,0c-.49,0-1,0-1.47,0-16.07.38-26,10.35-26.14,26.45-.1,11.55.17,23.11-.11,34.66a9.24,9.24,0,0,0,.41,3.6c.62,1.6,2.08,2.21,5.1,2.15,15.13-.32,30.27-.17,45.4-.09l33,0ZM374.52,327.68,339,213.36l-8.86,23.12L20.93,163.86a14.27,14.27,0,0,0,0,3.42c.21,62.92.14,125.85.14,188.77q0,9.84,0,19.69l287,17.14L305.19,413ZM289.7,432.52,292,406.16,21,389.75q0,8.28.06,16.54c.11,15.34,9.18,24.87,24.33,25.92,22.71.56,45.42.5,68.13,0,9.91.1,19.82.29,29.72.28,18.53,0,37.06-.18,55.59-.27,22.55.48,45.1.45,67.65,0a3.55,3.55,0,0,1,.92.09,4.55,4.55,0,0,0,.95.14Z"/><path class="cls-4" d="M118.81,87.85a24.15,24.15,0,0,0-23.7,23.62c-.2,12.7,11,24.05,23.84,24.08a23.85,23.85,0,1,0-.14-47.7Z"/><path class="cls-5" d="M174.08,87.86a23.73,23.73,0,0,0-23.72,23.86c0,13.11,11,24,23.86,23.82a24,24,0,0,0,23.5-23.72A23.76,23.76,0,0,0,174.08,87.86Z"/><path class="cls-5" d="M339,213.36l35.53,114.32L305.19,413,308,392.88,0,374.74q0-9.86,0-19.69C0,292.13.21,225.2,0,162.28a14.27,14.27,0,0,1,0-3.42l330.13,77.62Z"/><path id="Icon_open-document" data-name="Icon open-document" class="cls-2" d="M34.56,193.85v92.69h81.1V240.19H69.31V193.85Zm46.34,0v34.76h34.76ZM46.14,217H57.73v11.59H46.14Zm0,23.17H57.73v11.59H46.14Zm0,23.18H92.49V275H46.14Z"/><path id="Icon_awesome-tablet-alt" data-name="Icon awesome-tablet-alt" class="cls-2" d="M470.16,312.24H408.41c-4.65,0-8.42,4.54-8.42,10.15v88c0,5.6,3.77,10.15,8.42,10.15h61.75c4.65,0,8.42-4.54,8.42-10.15v-88C478.58,316.78,474.81,312.24,470.16,312.24ZM439.29,413.78c-3.11,0-5.62-3-5.62-6.77s2.51-6.77,5.62-6.77,5.61,3,5.61,6.77S442.39,413.78,439.29,413.78Zm30.87-22.85a2.35,2.35,0,0,1-2.1,2.54H410.51a2.35,2.35,0,0,1-2.1-2.54v-66a2.36,2.36,0,0,1,2.1-2.54h57.55a2.36,2.36,0,0,1,2.1,2.54Z"/><g id="Icon_ionic-ios-document" data-name="Icon ionic-ios-document"><path id="Path_6" data-name="Path 6" class="cls-1" d="M241.13,286.24h11.34a.61.61,0,0,0,.62-.61h0a3.65,3.65,0,0,0-1.33-2.85l-9.51-7.93a4,4,0,0,0-2.56-.92h0a.92.92,0,0,0-.93.91h0v9a2.37,2.37,0,0,0,2.37,2.36Z"/><path id="Path_7" data-name="Path 7" class="cls-1" d="M235.53,283.88v-10H219.21a4,4,0,0,0-4,4v41.85a4,4,0,0,0,4,4h29.9a4,4,0,0,0,4-4V289.48h-12A5.61,5.61,0,0,1,235.53,283.88Z"/></g><path id="Icon_material-computer" data-name="Icon material-computer" class="cls-4" d="M299.23,355.18a16.25,16.25,0,0,0,16.19-16.27l.08-81.35a16.3,16.3,0,0,0-16.27-16.27H169.08a16.3,16.3,0,0,0-16.27,16.27v81.35a16.32,16.32,0,0,0,16.27,16.27H136.54v16.26H331.78V355.18ZM169.08,257.56H299.23v81.35H169.08Z"/></svg>