<svg id="Layer_1" data-name="Layer 1" xmlns="http://www.w3.org/2000/svg" viewBox="0 0 512 512"><defs><style>.cls-1{fill:#fbc63d;}.cls-2{fill:#e3e4e5;}.cls-3{fill:#bebfc1;}.cls-4{fill:#ab885e;}.cls-5{fill:#f9f8f7;}.cls-6{fill:#d1d2d4;}.cls-7{fill:#434546;}.cls-8{fill:#4eb2b9;}.cls-9{fill:#eab38c;}.cls-10{fill:#828387;}.cls-11{fill:#a8a8aa;}.cls-12{fill:#e06e39;}.cls-13{fill:#5b5c5d;}.cls-14{fill:#64c9d3;}.cls-15{fill:#ece231;}.cls-16{fill:#97b6c3;}.cls-17{fill:#040404;}.cls-18{fill:#ec5831;}.cls-19{fill:#999;}.cls-20{fill:#43b4bf;}</style></defs><path class="cls-1" d="M51,226.64c1-2.49,2.83-3.4,5.43-3.39,5.44,0,10.88-.08,16.32-.13a7.27,7.27,0,0,1,2.81,4.67c-.32,1.53.75,1.46,1.7,1.45,2.3,0,4.6-.07,6.9-.11l5.49,0,12.08,0,5.16,0,11.29.06,5,.09,2.31,1.09.82.67,0,0a10.58,10.58,0,0,1,1.55,4.27c0,1.9,0,3.8.08,5.7l0,3.28,0,7a.28.28,0,0,0,0,.38c0,.51,0,1,0,1.53a.23.23,0,0,0,0,.35c0,.49,0,1,0,1.47s.11.83.16,1.24q-.1,10.72-.22,21.45c-1.27,3.45-3.81,4.54-7.37,4.53-20.64-.07-41.28,0-61.91,0-1.36,0-2.71-.18-4.07-.27l-1.14-.71-1.5-1.77-.42-.64h0c-.1-1.87-.28-3.74-.3-5.61-.09-8.74-.13-17.47-.2-26.21Zm11.66.73v0c-1.25,0-2.51,0-3.77,0-5.91.05-5.88.05-5.43,5.86.09,1.12.25,1.71,1.58,1.69,4.93-.05,9.86,0,14.8,0,.7,0,1.69.12,1.73-.88.08-2,.42-4.13-.19-5.92-.55-1.59-2.61-.59-4-.71C65.79,227.26,64.21,227.37,62.63,227.37Z"/><path class="cls-2" d="M84.13,229.13c-2.3,0-4.6.09-6.9.11-1,0-2,.08-1.7-1.45l.3,0A14.57,14.57,0,0,0,77.2,226c6.09-10.49,12.19-21,18.2-31.51,1.64-2.88,4-5.41,4.39-8.93,1.54-.38,1.72-1.71,2.06-2.93,1.34-.17,2.32.83,3.54,1a254.06,254.06,0,0,0,24,13.77A121.46,121.46,0,0,0,145.79,207a52.6,52.6,0,0,0,5,3.16c1.92.94,1.9,1.88.91,3.61-4,6.9-7.73,13.88-11.58,20.83L128.63,255l-.88,0c0-.49,0-1,0-1.47l.11-.18-.12-.17c0-.51,0-1,0-1.53l.12-.19-.12-.19c0-2.35,0-4.7,0-7,1-.07,2.39.21,2.46-1.22s-1.52-1.47-2.43-2.06c0-1.9-.05-3.8-.08-5.7,1.86-.5,3,1.05,4.55,1.57.79.27,1.42.32,1.84-.51a1.12,1.12,0,0,0-.52-1.59c-2.38-1.44-4.56-3.27-7.42-3.74l0,0-.82-.67-2.32-1.09c-2-2.57-5.14-3.52-7.81-5.09-7-4.1-14-8-21-12-.89-.5-2-1.26-2.77,0-.83,1.44.72,1.71,1.52,2.18,4.73,2.73,9.54,5.3,14.2,8.13,3.66,2.22,7.73,3.77,10.93,6.71l-11.3-.06c-5.33-3.71-11.2-6.51-16.75-9.85-.83-.51-1.93-1.37-2.64.11-.6,1.24.61,1.56,1.36,2.05,4.21,2.71,8.87,4.69,12.88,7.74l-12.08,0c-1.76-1.08-3.52-2.19-5.29-3.25a1.2,1.2,0,0,0-1.69.13,1.27,1.27,0,0,0,.08,1.93C83.17,228.34,83.66,228.72,84.13,229.13Zm18-32.1c-.8,0-1.3.33-1.4.87-.25,1.38.93,1.74,1.8,2.24q19,10.91,37.95,21.77c.94.53,2.16,1.54,3,0,.68-1.31-.7-1.79-1.55-2.28q-19.26-11-38.55-22C102.93,197.39,102.45,197.18,102.16,197Zm-5.26,7.23c-1.14-.27-1.55.21-1.75.83-.44,1.37.81,1.53,1.55,1.95q19.06,11,38.19,21.88c.82.47,2,1.92,2.91.27s-.75-1.9-1.66-2.42q-16.32-9.44-32.68-18.83C101.19,206.63,98.89,205.38,96.9,204.26Zm8.72-14.13c-1-.14-1.6.14-1.74.82-.25,1.26.93,1.48,1.7,1.92q18.92,10.89,37.88,21.73c.87.49,2,1.84,3,.37,1.21-1.85-.85-2-1.74-2.55Q126.06,201.64,107.37,191C106.74,190.61,106.05,190.34,105.62,190.13Z"/><path class="cls-3" d="M101.85,182.67c-.34,1.22-.52,2.55-2.06,2.93-.82-.43-1.64-.89-2.48-1.29-4-1.89-4.65-1.63-6.23,2.42-3.72,9.53-7.6,19-11.11,28.62-1.49,4.08-3.86,7.9-4.14,12.39l-.3,0a7.27,7.27,0,0,0-2.81-4.67c2.57-2.81,2.6-6.57,3.54-9.93q4.38-15.7,8.22-31.56c.68-2.81,1.81-3.23,4.35-2.46C93.13,180.49,97.51,181.52,101.85,182.67Z"/><path class="cls-3" d="M141.55,193.73q-.83,3.5-1.64,7c-1.08-.38-2.14-.81-3.24-1.13-2.41-.71-4.54-2.42-7.25-2.11a254.06,254.06,0,0,1-24-13.77q17.42,4.42,34.84,8.82A1.77,1.77,0,0,1,141.55,193.73Z"/><path class="cls-4" d="M140.13,234.61c-.63,4.91-2.43,9.52-3.83,14.22-2.85,9.62-5.2,19.4-8.61,28.86q.12-10.72.22-21.45l.72-1.2Z"/><path class="cls-5" d="M62.63,227.37c1.58,0,3.16-.11,4.73,0,1.38.12,3.44-.88,4,.71.61,1.79.27,3.94.19,5.92,0,1-1,.88-1.73.88-4.94,0-9.87-.06-14.8,0-1.33,0-1.49-.57-1.58-1.69-.45-5.81-.48-5.81,5.43-5.86,1.26,0,2.52,0,3.77,0Z"/><path class="cls-3" d="M118.15,229.15c-3.2-2.94-7.27-4.49-10.93-6.71-4.66-2.83-9.47-5.4-14.2-8.13-.8-.47-2.35-.74-1.52-2.18.73-1.25,1.88-.49,2.77,0,7,4,14.09,7.91,21,12,2.67,1.57,5.79,2.52,7.81,5.09Z"/><path class="cls-3" d="M101.7,229.14c-4-3-8.67-5-12.88-7.74-.75-.49-2-.81-1.36-2.05.71-1.48,1.81-.62,2.64-.11,5.55,3.34,11.42,6.14,16.75,9.85Z"/><path class="cls-3" d="M126.24,231c2.86.47,5,2.3,7.42,3.74a1.12,1.12,0,0,1,.52,1.59c-.42.83-1.05.78-1.84.51-1.52-.52-2.69-2.07-4.55-1.57A10.58,10.58,0,0,0,126.24,231Z"/><path class="cls-3" d="M84.13,229.13c-.47-.41-1-.79-1.41-1.22a1.27,1.27,0,0,1-.08-1.93,1.2,1.2,0,0,1,1.69-.13c1.77,1.06,3.53,2.17,5.29,3.25Z"/><path class="cls-3" d="M127.87,241c.91.59,2.5.63,2.43,2.06s-1.46,1.15-2.46,1.22Z"/><path class="cls-3" d="M128.63,255l-.72,1.2c0-.41-.1-.83-.16-1.24Z"/><path class="cls-3" d="M125.45,230.33l.82.67Z"/><path class="cls-3" d="M127.79,251.27l.12.19-.12.19A.28.28,0,0,1,127.79,251.27Z"/><path class="cls-3" d="M127.78,253.18l.12.17-.11.18A.23.23,0,0,1,127.78,253.18Z"/><path class="cls-6" d="M75.83,227.74c.28-4.49,2.65-8.31,4.14-12.39,3.51-9.61,7.39-19.09,11.11-28.62,1.58-4,2.21-4.31,6.23-2.42.84.4,1.66.86,2.48,1.29-.35,3.52-2.75,6.05-4.39,8.93-6,10.53-12.11,21-18.2,31.51A14.57,14.57,0,0,1,75.83,227.74Z"/><path class="cls-3" d="M102.16,197c.29.15.77.36,1.21.61q19.27,11,38.55,22c.85.49,2.23,1,1.55,2.28-.8,1.54-2,.53-3,0q-19-10.86-37.95-21.77c-.87-.5-2-.86-1.8-2.24C100.86,197.36,101.36,197.07,102.16,197Z"/><path class="cls-3" d="M96.9,204.26c2,1.12,4.29,2.37,6.56,3.68q16.35,9.39,32.68,18.83c.91.52,2.56.84,1.66,2.42s-2.09.2-2.91-.27Q115.75,218,96.7,207c-.74-.42-2-.58-1.55-1.95C95.35,204.47,95.76,204,96.9,204.26Z"/><path class="cls-3" d="M105.62,190.13c.43.21,1.12.48,1.75.84q18.67,10.69,37.32,21.45c.89.51,2.95.7,1.74,2.55-1,1.47-2.1.12-3-.37q-19-10.82-37.88-21.73c-.77-.44-2-.66-1.7-1.92C104,190.27,104.64,190,105.62,190.13Z"/><path class="cls-6" d="M129.42,197.48c2.71-.31,4.84,1.4,7.25,2.11,1.1.32,2.16.75,3.24,1.13a25.46,25.46,0,0,0,4,1.73c2.85.7,3.56,2.09,1.89,4.56A121.46,121.46,0,0,1,129.42,197.48Z"/><path class="cls-7" d="M310.17,233.56c-1.49-6.48.27-10.41,6.23-13.43q38-19.27,76.1-38.51c4.36-2.21,8.41-2.09,12.44.59l1.14.93v.07c.49.81,1,1.59,1.45,2.43q13.59,26.87,27.14,53.75a8.73,8.73,0,0,1,.16,8.19c-2.45-4.15-5.07-8.21-7.3-12.47-1.83-3.51-6.18-3.79-7.49.3q-11.32-22.32-22.64-44.63c-.77-1.53-1.26-2.63-3.43-1.52q-37.59,19.14-75.28,38.06c-1.8.91-1.87,1.73-1,3.38,4.38,8.48,8.65,17,13,25.54-.6.42-1.19.07-1.79,0a3,3,0,0,0-3.54,2.32,2.76,2.76,0,0,0,1.74,3.56c1.68.74,3,.08,4-1.36.35-.49.42-1.19,1.12-1.41q2.21,4.38,4.42,8.77v.79c-1.49.75-3,1.4-4.45,2.27-1.68,1-2.7.88-3.54-1.08-1-2.38-2.37-4.63-3.57-6.93ZM419.4,213.38c-1.27-2-3-2.64-5.14-1.79a3.75,3.75,0,0,0-1.7,5.31,3.55,3.55,0,0,0,5.1,1.55C419.7,217.4,420.15,215.51,419.4,213.38Z"/><path class="cls-8" d="M406.08,183.14l-1.14-.93A1,1,0,0,1,406.08,183.14Z"/><path class="cls-6" d="M336.62,268.12q-2.22-4.38-4.42-8.77a7.16,7.16,0,0,0-1.56-3.11c-4.31-8.52-8.58-17.06-13-25.54-.85-1.65-.78-2.47,1-3.38q37.68-18.94,75.28-38.06c2.17-1.11,2.66,0,3.43,1.52q11.29,22.32,22.64,44.63a5.37,5.37,0,0,1,.42,3.2,8.72,8.72,0,0,1-2.62-3.37c-1.12-2.05-2.54-3.41-5-2.05s-2.72,3.18-1.59,5.56c.62,1.29,1.75,2.5,1.26,4.78-1.51-2.18-2.7-3.84-3.84-5.55-1.34-2-3-2-4.9-.88s-2.17,2.62-1.16,4.52,2.1,4.13,3.15,6.2a67,67,0,0,1-8.52-13c3.18-1.61,6.31-3.31,9.54-4.8,2.05-.95,2.57-2,1.45-4.12-3.17-6-6.27-12.08-9.2-18.22-1.12-2.37-2.32-2.35-4.41-1.32s-3.94,2.89-6.59,2.49c0-.93-.1-1.86-.12-2.79s.08-1.68-1.19-1.73-1.23.76-1.25,1.62c-.05,1.76-.11,3.51-.16,5.27-5.74,2.87-11.44,5.79-17.21,8.57-1.95.94-2.35,2-1.33,3.93q4.83,9.21,9.39,18.56c1,2,2.1,2.21,4,1.2,3.33-1.79,6.75-3.42,10.13-5.11l5.1,8.63L355.5,267.2c-1.21-2.65-3-3.3-5.83-2.28-4.09,1.47-8.34,2.51-12.52,3.74Zm7.26-30.94c-1.64-3.28-3.33-6.53-4.92-9.83-.75-1.57-1.71-1.9-3.25-1.07q-4,2.13-8.13,4.1c-1.57.76-1.87,1.72-1.06,3.26,1.72,3.23,3.34,6.52,5,9.79,2.19,4.35,2.19,4.35,6.58,2.14l3.64-1.84C346.53,241.29,346.31,242,343.88,237.18Zm10.18,23.67c4.93-2.76,9.67-5.87,14.84-8.22,1.21-.55,2.7-1.07,1.76-3s-2.22-1-3.43-.41c-5.35,2.69-10.76,5.25-16,8.15-2.39,1.33-5,2.22-7.27,3.66a2.27,2.27,0,0,0-1,3.23c.75,1.35,1.82.51,2.73.08C348.41,263.07,351.52,262.64,354.06,260.85Zm7.5-19.36c.56-.29,1.12-.6,1.69-.85,1.47-.64,2.16-1.48,1.3-3.17s-2-1.53-3.34-.7c-7.36,4.68-15.74,7.45-23,12.26-1.18.78-2.55,1.26-1.54,3.07s2.05.87,3.21.37c2.8-1.22,5.16-3.23,7.87-4.53C352.31,245.74,356.5,242.66,361.56,241.49Zm-8.73,7.24c-3.93,2-7.86,4-11.77,6-1.08.55-2.56,1-1.7,2.72s2.15,1.29,3.46.63q11.64-5.88,23.27-11.76c1.2-.61,2.26-1.23,1.41-2.87s-2-1.07-3.17-.49Q358.59,245.83,352.83,248.73ZM354,226c.36-.9,2.47-1.12,1.7-2.68-.85-1.72-2.2-.32-3.2.16-2.65,1.24-5.26,2.58-7.84,4-.71.38-2.13.56-1.4,1.89.55,1,1.57.77,2.5.36C348.43,228.5,350.87,226.82,354,226Zm.27,10.67c1.68-.85,3.37-1.68,5-2.56.77-.4,1.49-.95.9-2-.49-.83-1.27-.61-1.94-.28q-4.92,2.45-9.8,4.94c-.69.36-1.24.9-.82,1.76.51,1,1.37.74,2.15.36C351.31,238.22,352.79,237.45,354.28,236.69Zm-6.07-13.91h0c1.5-.76,3-1.49,4.48-2.27.7-.37,1.2-.93.76-1.78s-1.2-.75-1.9-.4c-3.18,1.6-6.36,3.2-9.52,4.84a1.19,1.19,0,0,0-.7,1.55c.36.88,1.09.93,1.83.58C344.86,224.5,346.53,223.63,348.21,222.78Zm4.1,9.24h0c1.68-.85,3.37-1.69,5-2.56a1.2,1.2,0,0,0,.74-1.54,1.19,1.19,0,0,0-1.81-.63q-4.78,2.37-9.54,4.8c-.69.36-1.22.9-.79,1.76s1.17.78,1.88.43C349.33,233.54,350.81,232.77,352.31,232Z"/><path class="cls-9" d="M397.21,234.83a67,67,0,0,0,8.52,13c-1.05-2.07-2.06-4.16-3.15-6.2s-.74-3.41,1.16-4.52,3.56-1.13,4.9.88c1.14,1.71,2.33,3.37,3.84,5.55.49-2.28-.64-3.49-1.26-4.78-1.13-2.38-.8-4.25,1.59-5.56s3.92,0,5,2.05a8.72,8.72,0,0,0,2.62,3.37,5.37,5.37,0,0,0-.42-3.2c1.31-4.09,5.66-3.81,7.49-.3,2.23,4.26,4.85,8.32,7.3,12.47a23.8,23.8,0,0,1,4.3,13.22c.12,3.15,2.05,5.69,3.54,8.33q-12.54,8-25.54,15.15c-2.53-3.24-6.19-4.81-9.7-6.6-4.09-1.75-5.61-5.79-8-9-1.34-2.17-1.91-4.85-4.2-6.4.1-.87.21-1.74.31-2.61,1.29-3.06,3.29-3.4,6.49-.71-1.91-4.93-4.72-8.19-6.71-11.91l-5.1-8.64A6.8,6.8,0,0,0,388,235c-.74-1.41-1.06-3.1-2.56-4a4,4,0,0,1,.19-2.53l2.31-3c2.93-.14,4.73,1.15,5.87,3.91A38.79,38.79,0,0,0,397.21,234.83Z"/><path class="cls-9" d="M337.15,268.66c4.18-1.23,8.43-2.27,12.52-3.74,2.85-1,4.62-.37,5.83,2.28-.19,4.12-3.62,5.14-6.46,6.72-1,.5-2.06,1-3.07,1.49s-2.14.91-1.84,2.17c.74,3.09.81,6.36,2.49,9.18-.63,1.49.34,2.81.44,4.22.22,2.88,1.73,3.13,4,2,2.8-1.34,5.62-2.63,8.43-3.95l.66,15.86-30.9-.37a4.31,4.31,0,0,0-.78-2.76c-1.08-2.15-2-4.37-3.26-6.44-3-5.06-4.28-10.4-3.16-16.24q1.5-8,3-15.94c1.2,2.3,2.54,4.55,3.57,6.93.84,2,1.86,2.12,3.54,1.08,1.42-.87,3-1.52,4.45-2.27l.28-.09Z"/><path class="cls-6" d="M419.4,213.38c.75,2.13.3,4-1.74,5.07a3.55,3.55,0,0,1-5.1-1.55,3.75,3.75,0,0,1,1.7-5.31C416.39,210.74,418.13,211.39,419.4,213.38Z"/><path class="cls-10" d="M330.64,256.24a7.16,7.16,0,0,1,1.56,3.11c-.7.22-.77.92-1.12,1.41-1,1.44-2.35,2.1-4,1.36a2.76,2.76,0,0,1-1.74-3.56,3,3,0,0,1,3.54-2.32C329.45,256.31,330,256.66,330.64,256.24Z"/><path class="cls-10" d="M337.15,268.66l-.25.16-.28.09v-.79Z"/><path class="cls-10" d="M452,270.73c2.48,4.85,4.83,9.76,7.49,14.51,1.38,2.46,1.09,3.63-1.48,5.07-10.77,6-21.39,12.28-32.06,18.46-1.18.08-1.58-.8-2.07-1.61-2.56-4.18-5-8.42-7.75-12.48-2-2.94.82-3.16,2.09-4.3l29.31-17.52Z"/><path class="cls-5" d="M447.51,272.86,418.2,290.38l-2.34-3.48c-.71-1.42.72-1.81,1.28-2.62q13-7.17,25.54-15.15c1.49-.88,2.64-.78,3.37,1A22,22,0,0,0,447.51,272.86Z"/><path class="cls-3" d="M349,273.92c2.84-1.58,6.27-2.6,6.46-6.72L395.32,247c2,3.72,4.8,7,6.71,11.91-3.2-2.69-5.2-2.35-6.49.71-1.38-.32-2.41.54-3.5,1.09q-16.41,8.26-32.8,16.56C352.45,280.71,352.45,280.71,349,273.92Z"/><path class="cls-3" d="M397.21,234.83a38.79,38.79,0,0,1-3.43-5.51c-1.14-2.76-2.94-4-5.87-3.91l.09-16.55c2.65.4,4.5-1.46,6.59-2.49s3.29-1.05,4.41,1.32c2.93,6.14,6,12.21,9.2,18.22,1.12,2.12.6,3.17-1.45,4.12C403.52,231.52,400.39,233.22,397.21,234.83Z"/><path class="cls-3" d="M385.6,228.43a4,4,0,0,0-.19,2.54c-1.05,1.48-1.5-.06-2-.5-3.28-3.1-6.5-6.27-9.73-9.41-.63-.6-1.23-1.16-2.12-.29s-.39,1.26.19,1.82l15.84,15.35c.16-1.33.25-2.13.35-2.94a6.8,6.8,0,0,1,2.25,3.37c-3.38,1.7-6.8,3.33-10.13,5.12-1.86,1-3,.84-4-1.2q-4.56-9.34-9.39-18.56c-1-2-.62-3,1.33-3.93,5.77-2.78,11.47-5.7,17.21-8.57Q385.43,219.83,385.6,228.43Z"/><path class="cls-11" d="M343.88,237.18c2.43,4.79,2.65,4.11-2.14,6.55l-3.64,1.84c-4.39,2.21-4.39,2.21-6.58-2.14,2.25-3.07,3.9-6-.11-9.16-1.49-1.19-1-3.11.86-4.18s3.67-.59,3.93,1.39C336.82,236.28,339.8,237.34,343.88,237.18Z"/><path class="cls-3" d="M354.06,260.85c-2.54,1.79-5.65,2.22-8.39,3.52-.91.43-2,1.27-2.73-.08a2.27,2.27,0,0,1,1-3.23c2.31-1.44,4.88-2.33,7.27-3.66,5.23-2.9,10.64-5.46,16-8.15,1.21-.6,2.49-1.49,3.43.41s-.55,2.42-1.76,3C363.73,255,359,258.09,354.06,260.85Z"/><path class="cls-3" d="M361.56,241.49c-5.06,1.17-9.25,4.25-13.84,6.45-2.71,1.3-5.07,3.31-7.87,4.53-1.16.5-2.29,1.3-3.21-.37s.36-2.29,1.54-3.07c7.29-4.81,15.67-7.58,23-12.26,1.3-.83,2.45-1.05,3.34.7s.17,2.53-1.3,3.17C362.68,240.89,362.12,241.2,361.56,241.49Z"/><path class="cls-3" d="M352.83,248.73q5.76-2.89,11.5-5.81c1.17-.58,2.31-1.17,3.17.49s-.21,2.26-1.41,2.87q-11.64,5.86-23.27,11.76c-1.31.66-2.62,1.08-3.46-.63s.62-2.17,1.7-2.72C345,252.68,348.9,250.71,352.83,248.73Z"/><path class="cls-5" d="M343.88,237.18c-4.08.16-7.06-.9-7.68-5.7-.26-2-2.07-2.49-3.93-1.39s-2.35,3-.86,4.18c4,3.19,2.36,6.09.11,9.16-1.66-3.27-3.28-6.56-5-9.79-.81-1.54-.51-2.5,1.06-3.26q4.11-2,8.13-4.1c1.54-.83,2.5-.5,3.25,1.07C340.55,230.65,342.24,233.9,343.88,237.18Z"/><path class="cls-12" d="M385.6,228.43q-.17-8.6-.32-17.2c.05-1.76.11-3.51.16-5.27,0-.86,0-1.68,1.25-1.62s1.18.88,1.19,1.73.08,1.86.12,2.79l-.09,16.55Z"/><path class="cls-3" d="M354,226c-3.14.8-5.58,2.48-8.24,3.69-.93.41-1.95.66-2.5-.36-.73-1.33.69-1.51,1.4-1.89,2.58-1.38,5.19-2.72,7.84-4,1-.48,2.35-1.88,3.2-.16C356.48,224.9,354.37,225.12,354,226Z"/><path class="cls-3" d="M354.29,236.69c-1.5.76-3,1.53-4.48,2.26-.78.38-1.64.68-2.15-.36-.42-.86.13-1.4.82-1.76q4.89-2.49,9.8-4.94c.67-.33,1.45-.55,1.94.28.59,1-.13,1.56-.9,2C357.65,235,356,235.84,354.29,236.69Z"/><path class="cls-3" d="M348.21,222.78c-1.68.85-3.35,1.72-5,2.53-.74.35-1.47.3-1.83-.58a1.19,1.19,0,0,1,.7-1.55c3.16-1.64,6.34-3.24,9.52-4.84.7-.35,1.45-.45,1.9.4s-.06,1.41-.76,1.78c-1.48.78-3,1.51-4.48,2.27Z"/><path class="cls-3" d="M352.31,232c-1.5.75-3,1.52-4.49,2.25-.71.35-1.45.43-1.88-.43s.1-1.4.79-1.76q4.75-2.43,9.54-4.8a1.19,1.19,0,0,1,1.81.63,1.2,1.2,0,0,1-.74,1.54c-1.67.87-3.36,1.71-5,2.56Z"/><path class="cls-7" d="M399.43,268.64q-18,9.17-36.1,18.32c-1.3.66-2.56,1.4-3.84,2.1-2.81,1.32-5.63,2.61-8.43,3.95-2.27,1.1-3.78.85-4-2-.1-1.41-1.07-2.73-.43-4.22l48.6-24.52C397.52,263.79,398.09,266.47,399.43,268.64Z"/><path class="cls-6" d="M395.23,262.24l-48.6,24.52c-1.69-2.82-1.76-6.09-2.5-9.18-.3-1.26.93-1.71,1.84-2.17s2-1,3.07-1.49c3.41,6.79,3.41,6.79,10.2,3.36Q375.64,269,392,260.72c1.09-.55,2.12-1.41,3.5-1.09C395.44,260.5,395.33,261.37,395.23,262.24Z"/><path class="cls-12" d="M388,235c-.1.81-.19,1.61-.35,2.94l-15.84-15.35c-.58-.56-1-1.07-.19-1.82s1.49-.31,2.12.29c3.23,3.14,6.45,6.31,9.73,9.41.47.44.92,2,2,.5C386.91,231.9,387.23,233.59,388,235Z"/><path class="cls-5" d="M328,310.61c0-1.41,0-2.83-.18-4.22-.14-1.19.32-1.7,1.41-1.84l30.9.37c3.44-.25,3,2.17,3,4.31C351.45,310.19,339.73,310.28,328,310.61Z"/><path class="cls-10" d="M328.91,329.25l-.77-.15L326.7,329c-1.23-.16-1.71-.71-1.55-2.08.24-2.06.17-4.15.23-6.23a62.14,62.14,0,0,0,.79-9.63l1.85-.43c11.71-.33,23.43-.42,35.11-1.38a2.1,2.1,0,0,1,2.25,2.36q.21,8.49.72,17c.12,2-.9,1.9-2.32,1.83-9.64-.44-19.28-.83-28.91-1.23A22,22,0,0,0,328.91,329.25Z"/><path class="cls-3" d="M475.17,361.3l5,.08,1.88,0,.56.2a1.16,1.16,0,0,0-.07.31c-1.54,1.29-3.65,1.84-4.73,3.71a8.45,8.45,0,0,0-1.41.61c-9.24,6.28-18.49,12.55-27.69,18.9a8.44,8.44,0,0,1-5.44,1.62c-10.75-.5-21.5-1-32.26-1.43-4.91-.19-9.84-.18-14.75-.53-13-.94-26-1.28-39-1.72l-6.92-.84,3.14-1.63c3.89-.56,7.78-.06,11.66.09,11.17.43,22.32,1.11,33.49,1.69,6.87-.18,13.69,1,20.57.69.71,0,1.42.21,2.13.22,7.31.16,15,2.52,21.13-3.9.27-.28.75-.34,1.07-.59,4.08-3.2,8.94-5.35,12.53-9.21l2.91-.52c3.8.75,3.32-2.73,4.52-4.55,1.38,2.25,3.3,1.14,5.07.77a1.07,1.07,0,0,0,.61-.86c-.07-.28-.55-.47-.87-.68-1.82-1.18-3.21.46-4.8.75.8-5.06.8-5.06-4.52-4.36l-.61.07c-1.29-.15-2.46-.49-3-1.86l16.64.06c.3,1.23-1.76,1.36-1.28,2.73A11.75,11.75,0,0,0,475.17,361.3Z"/><path class="cls-8" d="M482.61,361.61l-.56-.2C482.34,361.18,482.5,361.31,482.61,361.61Z"/><path class="cls-3" d="M353.24,416.28c.18-1.64-2.1-3.44.32-4.93l3.47-.87c-1.92-2.1-3.25-4.61-6.59-3.45-2.35-1.48-2.42-4.42-4-6.36l2.36-.8a11,11,0,0,0,4.87-2c12.91.46,25.82.93,38.71,1.76,8,.52,16,.15,24,.87,6.76.62,13.54,0,20.28.95,2.64.35,5.47.76,8-1,9.27-6.45,18.61-12.79,27.92-19.18l3.34,1.05-2.54,2a15.49,15.49,0,0,0-1.91,1Q456.72,395.3,442,405.47c-1.11.77-2.11,1.64-3.58,1.53-8.7-.67-17.42-.84-26.13-1.25-4.82-.23-9.65-.28-14.47-.56-14.55-.85-29.11-1.58-43.69-1.8-1,0-2.19-.36-3.17.53a4.74,4.74,0,0,0,4.15,1.93c13,.66,26,1.3,39.06,1.85,7.59.32,15.23.1,22.78.83,5.84.56,11.69.09,17.52.91,3,.42,6.64,1.29,9.37-.52,9.94-6.58,19.66-13.49,29.46-20.27.39.87,1.53.32,2.14,1.25l-6.37,4.83a17,17,0,0,0-1.62.89c-8.2,5.64-16.42,11.26-24.57,17a8.8,8.8,0,0,1-5.94,1.95c-7.36-.48-14.72-.89-22.09-1.19-7.89-.32-15.82-.11-23.67-.83-6.45-.6-12.91-.15-19.35-.94-4.18-.51-8.48-.09-12.95-.09,1,2.42,3.44,3.24,4,5.43C359.65,417.36,356.47,416.55,353.24,416.28Z"/><path class="cls-2" d="M472.57,381.2c-9.31,6.39-18.65,12.73-27.92,19.18-2.57,1.8-5.4,1.39-8,1-6.74-.9-13.52-.33-20.28-.95-8-.72-16-.35-24-.87-12.89-.83-25.8-1.3-38.71-1.76a21.44,21.44,0,0,0-6.78-.3c.62-1.93,2.78-1.43,3.94-2.51a24.12,24.12,0,0,0,6.48-2.71c9.12.18,18.22.67,27.32,1.14,12.38.64,24.8.7,37.17,1.46,5.22.32,10.49-.05,15.64.72a11.76,11.76,0,0,0,9.2-2.08c8.47-5.95,16.85-12.06,25.7-17.46l6.47.31C476.84,378.65,474.41,379.56,472.57,381.2Z"/><path class="cls-2" d="M362.93,416.93c-.6-2.18-3-3-4-5.42,4.47,0,8.77-.42,12.95.09,6.44.79,12.9.34,19.35.94,7.85.72,15.78.51,23.67.83,7.37.3,14.73.71,22.09,1.19a8.8,8.8,0,0,0,5.94-1.95c8.15-5.73,16.37-11.35,24.57-17a17,17,0,0,1,1.62-.89l5.72.88c-.72,1.49-2.4,1.79-3.35,2.9-10,6.83-20,13.64-30,20.53a5.92,5.92,0,0,1-3.73,1.08c-4.61-.09-9.21-.24-13.82-.54-8.19-.53-16.44-.18-24.61-.89-5.62-.48-11.25-.27-16.88-.89-5.89-.64-11.87-.42-17.81-.58Z"/><path class="cls-3" d="M472.3,376.1c-8.85,5.4-17.23,11.51-25.7,17.46a11.76,11.76,0,0,1-9.2,2.08c-5.15-.77-10.42-.4-15.64-.72-12.37-.76-24.79-.82-37.17-1.46-9.1-.47-18.2-1-27.32-1.14-3.22-.91-6.52-.52-9.8-.49.34-2.1,2.66-1.41,3.64-2.59,1.68-.66,3.74-.54,4.85-2.36,1,.14,2,.37,3,.41,14.33.65,28.65,1.31,43,1.89,7.68.31,15.41.09,23,.83,5.94.58,11.91-.15,17.79,1a6.69,6.69,0,0,0,5.21-1.32c9.42-6.57,18.91-13.05,28.38-19.56l2.29,1.09Z"/><path class="cls-2" d="M476.4,370.24c-9.47,6.51-19,13-28.38,19.55a6.62,6.62,0,0,1-5.21,1.32c-5.88-1.12-11.85-.4-17.79-1-7.63-.74-15.36-.51-23-.82-14.33-.58-28.65-1.24-43-1.89-1-.05-2-.28-3-.42h-5.38l-.15-.72,6.84-3.07c13,.43,26,.77,39,1.71,4.91.36,9.84.34,14.75.53,10.76.42,21.51.93,32.26,1.43a8.58,8.58,0,0,0,5.3-1.52c9.24-6.38,18.54-12.68,27.83-19a8.45,8.45,0,0,1,1.41-.61l3.89.19C480.26,368,478.09,368.85,476.4,370.24Z"/><path class="cls-3" d="M364.62,417.22c5.94.16,11.92-.06,17.81.58,5.63.62,11.26.41,16.88.89,8.17.71,16.42.36,24.61.89,4.61.3,9.21.45,13.82.54a5.92,5.92,0,0,0,3.73-1.08c10-6.89,20-13.7,30-20.53,1.48,1,3.23.24,4.85.71,0,1.13-1.06,1.39-1.73,1.85-10.55,7.31-21.15,14.56-31.7,21.87A7.42,7.42,0,0,1,438,424.3q-12.14-.66-24.29-1.16-23.22-1-46.44-1.88C367,419.53,365,418.87,364.62,417.22Z"/><path class="cls-2" d="M473.31,388.43c-9.8,6.79-19.52,13.7-29.46,20.28-2.73,1.8-6.32.94-9.37.51-5.83-.82-11.68-.34-17.52-.91-7.55-.73-15.19-.5-22.78-.82-13-.56-26-1.2-39.06-1.85-1.51-.08-3.07-.33-4.15-1.93,1-.9,2.15-.54,3.17-.53,14.58.22,29.14.94,43.69,1.8,4.82.28,9.65.33,14.47.56,8.71.4,17.43.58,26.13,1.25,1.47.11,2.47-.77,3.58-1.54q14.7-10.19,29.45-20.3a14.16,14.16,0,0,1,1.91-.95h5l.25.79Z"/><path class="cls-11" d="M364.62,417.22c.41,1.65,2.33,2.31,2.63,4l-13.46-.74c-.18-1.42-.37-2.83-.55-4.24,3.23.27,6.41,1.08,9.69.66Z"/><path class="cls-12" d="M385.12,356.29c16.05-.88,32.11-1.56,48.13-2.91l11.19-.29c.16,1.27-.64,2.68.55,3.8a7.78,7.78,0,0,1-3.55.76c-5.19.41-10.38.88-15.58,1.18-2.74.16-1.2,1.14-.51,2-1.42.17-2.83.4-4.25.48Q404,362.4,387,363.4l-3.31-.14-.21-6.66Z"/><path class="cls-13" d="M425.35,360.85c-.69-.88-2.23-1.86.51-2,5.2-.3,10.39-.77,15.58-1.18a7.78,7.78,0,0,0,3.55-.76,5,5,0,0,0,3.19-.11l3.34.1a10.66,10.66,0,0,1,3.87,1.48c.53,1.37,1.7,1.71,3,1.86l.6,8.86-2.91.52c-6.38.28-12.72,1.29-19.13,1.08a28.49,28.49,0,0,1-.6-6.25c.08-1.18-.18-2.2-1.5-2.59l3.3-.5,11.07-.77,0-.83-11.61.61-1.23,0-.94.2-3.3.17a1.13,1.13,0,0,0-1.3.06C429,361.19,427.17,361.63,425.35,360.85Z"/><path class="cls-8" d="M448.18,356.78a5,5,0,0,1-3.19.11c-1.19-1.12-.39-2.53-.55-3.8,1.13-.87,2.4-.29,3.61-.3C448.09,354.12,448.14,355.45,448.18,356.78Z"/><path class="cls-11" d="M448.18,356.78c0-1.33-.09-2.66-.13-4,3.27-.43,3.93,1.36,3.48,4.09Z"/><path class="cls-8" d="M475.17,361.3a11.75,11.75,0,0,1-4.42-.15c-.48-1.37,1.58-1.5,1.28-2.73Z"/><path class="cls-6" d="M436.94,370.68c6.41.21,12.75-.8,19.13-1.08-3.59,3.86-8.45,6-12.53,9.21-.32.25-.8.31-1.07.59-6.1,6.42-13.82,4.06-21.13,3.9-.71,0-1.42-.26-2.13-.22-6.88.34-13.7-.87-20.57-.69,0-2-2.12-3-2.48-4.84q11.54.29,23.08.6a16.43,16.43,0,0,1,1.82.3,64.67,64.67,0,0,0,11.39.14c.87,0,2-.4,2.16-1.44s-.94-.85-1.58-.87c-12.41-.44-24.82-.8-37.22-1.31-2.51-.1-2.15.91-1.4,2.42l-34-1.49,0-.92a6.73,6.73,0,0,1,4.89-1.47c8.16.51,16.36.61,24.54.91,1.46.05,1.82-.56,1.46-1.85q18.93.62,37.85,1.21a32.93,32.93,0,0,1,5.51.44c3.89.75,5.63.2,7.38-2-3.31-.95-6.8.52-10-.9l2.47-.46Z"/><path class="cls-2" d="M396.57,379c.73,1.25,2.07,2.18,2.07,3.81-11.17-.59-22.32-1.27-33.49-1.69-4.08-.16-8.17-.71-12.26,0l-.48-.87c1.11-1.25,1.37-2.44.62-3.55l1.05-3c1.89-.69,3.82-1.29,5.67-2.09,6.66-2.89,13.63-5.05,20-8.66l.53-.06,1.79.55c2.57,4.18-2.86,2.13-3.24,4.5h6.4l1.46.67c.34.38.69.75.44,1.28-.4.86-1.23.43-1.91.31-3.95-.73-7.94-.21-11.92-.34a5.39,5.39,0,0,0-3.52,1.6c6.91,1.43,13.75.67,20.56.86l.95.74c.31,1.22-.07,1.8-1.49,1.75-8.18-.3-16.38-.41-24.54-.91a6.89,6.89,0,0,0-5.19,1.7l.23.69,34.23,1.49Z"/><path class="cls-8" d="M351.79,380.59l1.7.14-3.14,1.64,6.92.84-6.84,3.07.15.72H356c-1.11,1.82-3.17,1.71-4.85,2.37-.83-.9-2.26.29-3.05-.92-2.15-3.29-5.84-5.13-8-8.39A68.15,68.15,0,0,1,351.79,380.59Z"/><path class="cls-14" d="M459,369.08l-.6-8.86.61-.07c5.32-.7,5.32-.7,4.52,4.36v0C462.3,366.35,462.78,369.83,459,369.08Z"/><path class="cls-11" d="M463.51,364.51c1.59-.29,3-1.93,4.8-.75.32.21.8.4.87.68a1.07,1.07,0,0,1-.61.86c-1.77.37-3.69,1.48-5.07-.77Z"/><path class="cls-11" d="M350.44,407c3.34-1.16,4.67,1.35,6.59,3.45l-3.47.87C351.63,410.56,349.55,409.87,350.44,407Z"/><path class="cls-8" d="M348.76,399.87c-.54-.86-1.8-1.13-1.91-2.33a21.44,21.44,0,0,1,6.78.3A11,11,0,0,1,348.76,399.87Z"/><path class="cls-8" d="M350.79,395a8,8,0,0,1-3.32-3.2c3.28,0,6.58-.42,9.8.49A24.12,24.12,0,0,1,350.79,395Z"/><path class="cls-3" d="M438.14,361.34l-3.3.5-1.06.2a8.81,8.81,0,0,0-3.61.3l-21.64,2.73c-3.71-1.27-7.59,0-11.34-.8-3.37-.69-6.88.13-10.23-.87q17.07-1,34.14-2.07c1.42-.08,2.83-.31,4.25-.48,1.82.78,3.63.34,5.44,0l1.3-.06,3.3-.17.94-.2,1.23,0Z"/><path class="cls-6" d="M387,363.84c3.35,1,6.86.19,10.23.88,3.75.77,7.63-.48,11.34.8l-8.21,1.39-4.69-.33c-3.15-.93-6.48-.12-9.7-.33-1.36-.09-.89,1-.8,1.75h-6.32c.38-2.37,5.81-.32,3.24-4.5l1.6.21Z"/><path class="cls-15" d="M383.65,363.26l-1.6-.21-1.76-.54c-.26-1.41.22-2.94-.74-4.23l.62-.64,3.27-1Z"/><path class="cls-7" d="M433.78,362l1.06-.2c1.32.39,1.58,1.41,1.5,2.59a28.49,28.49,0,0,0,.6,6.25l-2.49.2C434.23,367.93,434,365,433.78,362Z"/><path class="cls-11" d="M438.14,361.34l-.58-1,11.61-.61,0,.83Z"/><path class="cls-11" d="M432.09,360.76l-1.3.06A1.13,1.13,0,0,1,432.09,360.76Z"/><path class="cls-11" d="M436.33,360.39l-.94.2Z"/><path class="cls-3" d="M391.24,372.57l-1.82-.66c-.37-1.26-.07-2,1.41-1.9l3.42.63a17.48,17.48,0,0,0,6.31.66c1.22.05,2.45.16,3.68.16q12.64-.06,25.3-.16c.58.63,1.18.74,1.8.05H432c3.2,1.42,6.69,0,10,.9-1.75,2.18-3.49,2.73-7.38,2a32.93,32.93,0,0,0-5.51-.44Q410.16,373.2,391.24,372.57Z"/><path class="cls-3" d="M396.16,377.55l-1.75-.16c-.75-1.51-1.11-2.52,1.4-2.42,12.4.51,24.81.87,37.22,1.31.64,0,1.73-.22,1.58.87s-1.29,1.4-2.16,1.44a64.67,64.67,0,0,1-11.39-.14,16.43,16.43,0,0,0-1.82-.3Q407.71,377.82,396.16,377.55Z"/><path class="cls-14" d="M432,371.34h-.64a2.45,2.45,0,0,1-.5-.22c0-2.95.28-5.91-.67-8.79a8.81,8.81,0,0,1,3.61-.3c.23,2.95.45,5.89.67,8.84Z"/><path class="cls-6" d="M390.83,370c-1.48-.11-1.78.64-1.41,1.9-6.51-.1-13.05.53-19.66-.83a5.29,5.29,0,0,1,3.52-1.6c4,.12,8-.4,11.92.33.68.12,1.51.55,1.91-.3s-.55-1.22-.83-1.84c2.28.13,4.61-.56,6.82.48C392.38,368.82,391.06,368.75,390.83,370Z"/><path class="cls-6" d="M340,379.94c.07-1.61,1.57-1.38,2.45-1.73,3-1.16,5.76-2.73,8.91-3.38,2.76,1.68,2.64,3.58.41,5.63A67.16,67.16,0,0,0,340,379.94Z"/><path class="cls-3" d="M393.1,368.15c-2.21-1-4.54-.35-6.82-.48l-1.15-.12c-.09-.75-.56-1.83.8-1.75,3.86.25,7.87-1,11.55,1.12l-3.37,1.26Z"/><path class="cls-13" d="M379,363c-1.13-1.4-2.95-1.52-4.65-2.43a17.16,17.16,0,0,1,5.24-2.28c1,1.29.48,2.82.74,4.23Z"/><path class="cls-13" d="M430.17,362.34c.95,2.88.67,5.84.67,8.79l-1.3.17q-12.66.09-25.3.16c-1.23,0-2.46-.11-3.68-.16l-.24-4.84,8.21-1.39Z"/><path class="cls-14" d="M400.32,366.46l.24,4.84a17.48,17.48,0,0,1-6.31-.66c0-.82-.09-1.64-.14-2.46l3.37-1.26Z"/><path class="cls-7" d="M394.11,368.18c.05.82.1,1.64.14,2.46l-3.42-.63c.23-1.26,1.55-1.19,2.27-1.86Z"/><path class="cls-6" d="M429.54,371.3l1.3-.17a2.45,2.45,0,0,0,.5.22C430.72,372,430.12,371.93,429.54,371.3Z"/><path class="cls-8" d="M249.2,290l1.23.75Z"/><path class="cls-4" d="M185.76,233.77l-8.57-12.42c-1.35-2-2.75-4-4-6.06-2.41-3.88-1.76-7.66,2-10.35,4.79-3.46,9.7-6.73,14.56-10.09.15.38.31.75.46,1.12a7,7,0,0,0-3.68,4.4c-2.95,2-5.83,4.18-8.86,6.09-2,1.27-2.34,2.45-.85,4.41,2.37,3.13,4.52,6.43,6.78,9.64l21.39,30.3c2.1,4.88,2.77,10.46,7.22,14.18,1.23,1,1.08,2.66.71,4.16.34.64.67,1.29,1,1.94l-1.55.44-19-26.91L191,241.3Z"/><path class="cls-4" d="M231.08,171.66l12,17.05c-5,2.42-5,2.42-8-1.9-2.65-3.81-5.37-7.56-7.93-11.43-1.25-1.89-2.39-2.08-4.2-.73-3.06,2.3-6.25,4.41-9.39,6.6-2.31-.75-3.78.83-5.42,1.95l.05-1.71.1,0c4.17-2.83,8.44-5.53,12.49-8.54C224.11,170.48,227.39,169.83,231.08,171.66Z"/><path class="cls-11" d="M208.24,181.49c0,.57,0,1.14-.05,1.71L190.13,196c-.15-.37-.31-.74-.46-1.12s-.47-.94-.7-1.42l8.56-6c1.64-1.1,3.23-2.27,4.92-3.27S205.66,180.93,208.24,181.49Z"/><path class="cls-13" d="M208.24,181.49c-2.58-.56-4,1.56-5.79,2.63s-3.28,2.17-4.92,3.27c-.15-.58-.29-1.15-.43-1.72,1.22-2.83-.24-3-2.41-2.4l-.74-.87c3.5-1.24,7.34-1,10.78-2.67,1.23-.6,2.18,1.54,3.61,1.72Z"/><path class="cls-10" d="M197.1,185.67c.14.57.28,1.14.43,1.72l-8.56,6c-.75-.84-1.28-2.17-.55-2.8,2.64-2.27,3.84-5.4,5.53-8.23l.74.87C193.88,185.68,195,186.21,197.1,185.67Z"/><path class="cls-5" d="M213.85,271.09c-.34-.65-.67-1.3-1-1.94,3.44-2.45,7.62-3.2,11.39-4.9,1.14-.52,2.54-.72,2.66-2.34.18-2.63,1.14-5.21.52-7.89,1.25-.59,1.81-1.42.9-2.73s-1.81-2.42-2.56-3.72c-1.35-2.37-2.84-2.41-4.58-.47-1.55-2.35-2.17-5.09-3.22-7.65-.58-1.43-1.07-2.5-3-1.75s-.67,1.91-.43,2.83c.37,1.44,1,2.82,1.62,4.51-1.35-.63-2.51-1.83-3.7-.38-1,1.24,1,2.52-.06,4-1-.81-.89-3.11-2.85-2.39-2.2.79-.7,2.56-.87,4-1.08-.36-2.1-1.1-3.24-.34l-25.67-36.79c-3.08-4.41-3.08-4.41,1.33-7.67a16.73,16.73,0,0,0,4.63-3.22l1.69-1.17c1.54,2,3.18,1.26,4.83.16l10.06-6.77,4.32,6.1a16.41,16.41,0,0,1,0,6.09c-1.25.66-2.62,1.19-3.23,2.88,2,.45,2.73-1.56,4.21-1.44.89,2-2.63,5.23,1.83,6.08q.4,2.85.79,5.7l.06,1.35c-1.69-.34-1.05.89-1.12,1.66-.18,1.71.93,3.5-.31,5.15-.87,1.53-2.39,2.37-3.71,3.42l-1.83-.69c-.42-.16-.91-.4-1.2.12-.42.77.48.84.76,1.24.45,2,1.87,3.4,3,5,.68,1,1.07,2.4,2.69,2.31,1.14-.07,3.21-1.92,3.86-3.44-4.36,2.25-4.36,2.25-7.12-2-.18-.29-.34-.6-.51-.89l6.51,2.77c0-2.34-.11-4.5-.16-6.66l3.68,5.28.84-.66c-1-2.78-2.89-5-4.75-7.18l-.07-1.93c1.8-1.06,1.9-2.81,1.89-4.61a10,10,0,0,0,.19-4.19l3.74-.85,5.49,7.88c-1.65,1.93-4.48,2.57-6.13,5.47,3.25-.67,4.83-3.12,7.3-3.85l11.89,17.06c-1.69,1.91-4.46,2.6-6.27,5.48,3.31-.72,4.93-3.07,7.3-4l8,11.62-13.64,9.58-.58.38C224.88,267.32,219.26,268.94,213.85,271.09ZM194,210.54c-2,1.55-5.69,2.59-2.33,6,1.61,1.65,1.87,6.36,6.16,3.06,6.22-4.79,6-2.78,2.42-8.88C198,207,196.11,208.83,194,210.54Z"/><path class="cls-13" d="M230.65,264.24l13.64-9.58c7.53-5.21,15-10.49,22.62-15.58,2.08-1.4,1.34-2.42.31-3.89q-8.31-11.79-16.5-23.68c-1.05-1.54-2-2.46-3.91-1.53-2.25,1.12-3.17.17-3.9-2-3.65-11.06-8.65-21.42-16-30.61-1.51-1.9-2.43-2.22-4.33-.71-2.44,1.95-5.11,3.61-7.68,5.4-.44-.26-.88-.52-1.33-.77,3.14-2.19,6.33-4.3,9.39-6.6,1.81-1.35,2.95-1.16,4.2.73,2.56,3.87,5.28,7.62,7.93,11.43,3,4.32,3,4.32,8,1.9a12.4,12.4,0,0,0,2.28-.74c2-1.09,3.29-.58,4.46,1.42,2.62,4.45,5.43,8.8,8.2,13.16,2.2,3.48,2.22,3.46-1.69,5a12.22,12.22,0,0,0-1.37.21c-4.44,1.16-4.44,1.16-1.89,4.82,5.22,7.49,10.36,15,15.71,22.44,1.68,2.32,1.51,3.57-.91,5.17-11,7.29-21.83,14.71-32.71,22.13-4.43,3-4.4,3.06-2,7.92a6.49,6.49,0,0,0,.51,1.65c2,3.06.8,4.83-2,6.62-4.39,2.77-8.5,6-12.73,9-2.22-1.28-2.43-3.75-3.19-5.79-1.26-3.36-3.72-6.34-3.47-10.21l1.55-.44c5.41-2.15,11-3.77,16.22-6.47Z"/><path class="cls-9" d="M227.41,254c.62,2.68-.34,5.26-.52,7.89-.12,1.62-1.52,1.82-2.66,2.34-3.77,1.7-7.95,2.45-11.39,4.9.37-1.5.52-3.13-.71-4.16-4.45-3.72-5.12-9.3-7.22-14.18.18-.3.36-.61.55-.91,1.14-.76,2.16,0,3.24.34.17-1.4-1.33-3.17.87-4,2-.72,1.85,1.58,2.85,2.39,1.1-1.49-.95-2.77.06-4,1.19-1.45,2.35-.25,3.7.38-.62-1.69-1.25-3.07-1.62-4.51-.24-.92-1.49-2.07.43-2.83s2.38.32,3,1.75c1.05,2.56,1.67,5.3,3.22,7.65C224.82,248,227.12,250.1,227.41,254Z"/><path class="cls-10" d="M213.61,181.25c.45.25.89.51,1.33.77.17,1.84.33,3.69-1.79,4.66-4.66-2.5-4.68-2.5-4.74,1.06l-.44,1.52-1.42,2.3-4.22,2.88-10.06,6.77c-1.65,1.1-3.29,1.89-4.83-.16l-1-.68a7,7,0,0,1,3.68-4.4l18.06-12.77C209.83,182.08,211.3,180.5,213.61,181.25Z"/><path class="cls-13" d="M186.45,200.37l1,.68-1.69,1.17a6.59,6.59,0,0,0-4.63,3.22c-4.41,3.26-4.41,3.26-1.33,7.67l25.67,36.79c-.19.3-.37.61-.55.91l-21.39-30.3c-2.26-3.21-4.41-6.51-6.78-9.64-1.49-2-1.18-3.14.85-4.41C180.62,204.55,183.5,202.41,186.45,200.37Z"/><path class="cls-4" d="M233.2,270.24c-2.41-4.86-2.44-4.9,2-7.92,10.88-7.42,21.75-14.84,32.71-22.13,2.42-1.6,2.59-2.85.91-5.17-5.35-7.4-10.49-15-15.71-22.44-2.55-3.66-2.55-3.66,1.89-4.82a12.22,12.22,0,0,1,1.37-.21l7.27,10.17c12.6,21.83,11.09,19.65,12.6,21.83C262.58,249.13,246.86,260.66,233.2,270.24Z"/><path class="cls-8" d="M197.1,185.67c-2.15.54-3.22,0-2.41-2.4C196.86,182.7,198.32,182.84,197.1,185.67Z"/><path class="cls-2" d="M213.15,186.68c2.12-1,2-2.82,1.79-4.66,2.57-1.79,5.24-3.45,7.68-5.4,1.9-1.51,2.82-1.19,4.33.71,7.31,9.19,12.31,19.55,16,30.61.73,2.21,1.65,3.16,3.9,2,1.87-.93,2.86,0,3.91,1.53q8.16,11.91,16.5,23.68c1,1.47,1.77,2.49-.31,3.89-7.6,5.09-15.09,10.37-22.62,15.58l-8-11.62a.33.33,0,0,0-.23-.28l17.85-12.44-.63-.9-17.84,12.44a.33.33,0,0,0-.18-.3L223.34,224.5l17.8-12.7-.78-1.09c-6.41,3.5-12,8.35-18.19,12.17L216.68,215a39,39,0,0,1,5.39-1.18A34.19,34.19,0,0,0,236.35,209c.67-.39,2-.49,1.77-1.37-1-4.23-2-8.5-3.91-12.43a1.6,1.6,0,0,0-1.19-.59c-2.61-.15-5.16-.7-7.81-.75-4.43-.08-7.84,2.27-11.64,3.73q-.33-4.91-.65-9.79Z"/><path class="cls-9" d="M213.57,197.59c3.8-1.46,7.21-3.81,11.64-3.73,2.65,0,5.2.6,7.81.75a1.6,1.6,0,0,1,1.19.59c2,3.93,2.9,8.2,3.91,12.43.21.88-1.1,1-1.77,1.37a34.19,34.19,0,0,1-14.28,4.82,39,39,0,0,0-5.39,1.18l-3.74.85c-1.43.31-2.08-.43-2.26-1.73-.27-1.93,1.14-2.44,2.53-3,2.21-.91,4.46-1.76,6.63-2.76,1-.46,2.46-1.16,1.86-2.41-.51-1.09-2.12-.82-3.12-.34-1.74.82-3.34,1.93-5,2.92-.12-1.84-.23-3.67-.35-5.5,0-.58.07-1.17.11-1.75C213.42,200.07,213.5,198.83,213.57,197.59Z"/><path class="cls-10" d="M222.17,222.88c6.22-3.82,11.78-8.67,18.19-12.17l.78,1.09-17.8,12.7c-2.47.73-4.05,3.18-7.3,3.85C217.69,225.45,220.52,224.81,222.17,222.88Z"/><path class="cls-7" d="M213.23,203.06c.12,1.83.23,3.66.35,5.49-.12.87-.24,1.74-.37,2.6-1.39.53-2.8,1-2.53,3,.18,1.3.83,2,2.26,1.73a10,10,0,0,1-.19,4.19l-2.49-.18c-.27-1.91-.53-3.81-.8-5.71.41-3.68-1-7.3-.27-11Z"/><path class="cls-11" d="M194,210.54c2.15-1.71,4-3.55,6.25.22,3.62,6.1,3.8,4.09-2.42,8.88-4.29,3.3-4.55-1.41-6.16-3.06C188.27,213.13,192,212.09,194,210.54Zm4.39,7.11c2.22-1.22,3.6-2.46,1.54-5.07-1.52-1.93-2.57-3.33-5.12-1.27-2,1.63-3.85,2.59-1.52,5.58C195,219.17,196.37,219.66,198.35,217.65Z"/><path class="cls-12" d="M208.88,228c1.24-1.65.13-3.44.31-5.15.07-.77-.57-2,1.12-1.66.18,1.15.37,2.3.55,3.45,0,.64,0,1.29.07,1.93.08.85.15,1.71.23,2.56.05,2.16.11,4.32.16,6.66L204.81,233l-1.91-.93c-.28-.4-1.18-.47-.76-1.24.29-.52.78-.28,1.2-.12l1.83.69a12.94,12.94,0,0,0,4.84,2.14C209.81,231.46,210.1,229.61,208.88,228Z"/><path class="cls-9" d="M209.19,203.17c-.77,3.68.68,7.3.27,11-4.46-.85-.94-4.09-1.83-6.08-1.48-.12-2.24,1.89-4.21,1.44.61-1.69,2-2.22,3.23-2.88,1.66.25,1.35-.95,1.43-1.9s-.79-2,.35-2.75Z"/><path class="cls-12" d="M208.43,202c-1.14.79-.27,1.83-.35,2.75s.23,2.15-1.43,1.9a16.41,16.41,0,0,0,0-6.09c0-3-.07-6-.1-9l1.42-2.3c1,2.75-.37,5.64.46,8.41-.6.55-.84,1.13-.07,1.74v0a1.57,1.57,0,0,0,.07,2.46Z"/><path class="cls-2" d="M206.55,191.56c0,3,.06,6,.1,9l-4.32-6.1Z"/><path class="cls-11" d="M202.9,232.1l1.91.93c.17.29.33.6.51.89,2.76,4.27,2.76,4.27,7.12,2-.65,1.52-2.72,3.37-3.86,3.44-1.62.09-2-1.35-2.69-2.31C204.77,235.5,203.35,234.08,202.9,232.1Z"/><path class="cls-11" d="M227.41,254c-.29-3.92-2.59-6-6.24-6.92,1.74-1.94,3.23-1.9,4.58.47.75,1.3,1.7,2.49,2.56,3.72S228.66,253.43,227.41,254Z"/><path class="cls-2" d="M208.88,228c1.22,1.6.93,3.45,1.13,5.56a12.94,12.94,0,0,1-4.84-2.14C206.49,230.38,208,229.54,208.88,228Z"/><path class="cls-3" d="M211.16,229.14c-.08-.85-.15-1.71-.23-2.56,1.86,2.22,3.79,4.4,4.75,7.18l-.84.66Z"/><path class="cls-14" d="M210.86,224.65c-.18-1.15-.37-2.3-.55-3.45l-.06-1.35,2.5.19C212.76,221.84,212.66,223.59,210.86,224.65Z"/><path class="cls-10" d="M236.26,243c-2.37.93-4,3.28-7.3,4,1.81-2.88,4.58-3.57,6.27-5.48a.33.33,0,0,1,.18.3l.62.9A.33.33,0,0,1,236.26,243Z"/><path class="cls-10" d="M181.12,205.44a6.59,6.59,0,0,1,4.63-3.22A16.73,16.73,0,0,1,181.12,205.44Z"/><path class="cls-2" d="M230.65,264.24l-.58.38Z"/><path class="cls-7" d="M208.43,197.67c-.83-2.77.52-5.66-.46-8.41.15-.51.3-1,.44-1.52a12.66,12.66,0,0,0,4.51.06q.32,4.89.65,9.79c-.07,1.24-.15,2.48-.23,3.72l-4.32.27-.66-2.13v0C208.87,198.85,208.54,198.25,208.43,197.67Z"/><path class="cls-12" d="M212.92,187.8a12.66,12.66,0,0,1-4.51-.06c.06-3.56.08-3.56,4.74-1.06C213.07,187.05,213,187.42,212.92,187.8Z"/><path class="cls-13" d="M236,242.76l-.62-.9,17.84-12.44.63.9Z"/><path class="cls-2" d="M213.21,211.15c.13-.86.25-1.73.37-2.6,1.66-1,3.26-2.09,5-2.91,1-.48,2.61-.75,3.12.34.6,1.25-.88,2-1.86,2.41C217.67,209.39,215.42,210.24,213.21,211.15Z"/><path class="cls-12" d="M209,201.58l4.32-.27c0,.58-.07,1.17-.11,1.75l-4,.11-.76-1.19v-.08Z"/><path class="cls-5" d="M198.35,217.65c-2,2-3.31,1.52-5.1-.76-2.33-3-.48-3.95,1.52-5.58,2.55-2.06,3.6-.66,5.12,1.27C202,215.19,200.57,216.43,198.35,217.65Z"/><path class="cls-9" d="M209,201.58l-.59.32a1.56,1.56,0,0,1-.07-2.45Z"/><path class="cls-9" d="M208.43,197.67c.11.58.44,1.18-.07,1.74C207.59,198.8,207.83,198.22,208.43,197.67Z"/><path class="cls-10" d="M179.72,371.68c1.49-2,3.14-3.71,5.62-4.39l7.15,20.85c1.11,3.3,1.58,6.82,3.54,9.8.55,5.6,2.94,10.65,4.42,16.46,1.55-2.39.91-4.47,1-6.44.38-6.23-1.12-12.66,2-18.61a12.87,12.87,0,0,0,2.56-5c.92-1.69,1.81-3.39,2.75-5.05.74-1.3.91-3.22,2.5-3.63,2.2-.57,2.68-2.16,3.25-3.92.49-1.53,1.11-3,1.68-4.52,1.42,1.11,2.9,2.16,4.25,3.35a3.35,3.35,0,0,0,3.29,1c2.49-.77,5.13-1.07,7.43-2.4l16.4-4.65c1,.6,1.09,1.66,1.41,2.61q3.06,8.93,6.13,17.84l4.15,12.81c1.61,6.54,3.61,13,6.13,20.13,2.54-7.41,5.16-13.81,6.73-20.56A100.25,100.25,0,0,0,276.34,385q3.35-9.66,6.68-19.31c.22-.64.07-1.51,1.11-1.54,2.58,1.35,5.45,1.81,8.19,2.64,8.45,2.63,16.89,5.32,25.37,7.84,2.32.69,4.08,1.75,5,4,1.61,1.93,1.68,4.85,4,6.32-.89,2.82,1.18,3.5,3.1,4.29-2.41,1.48-.14,3.27-.32,4.9.18,1.4.37,2.81.55,4.21-.1,10.11-.25,20.23-.25,30.34,0,2.2-.56,3.05-2.92,3q-62.87-.14-125.72-.15c-1.1-2.18-2.09-4.43-3.31-6.54a263.33,263.33,0,0,0-15.29-23.31c-3.32-4.56-5.18-8.58-.77-13.3a1.65,1.65,0,0,0,.29-.54c.33-.82,1.34-1.66.69-2.49s-1.72-.33-2.62-.23a12.2,12.2,0,0,0-1.2.26c-1.88.37-2.73-.1-2.14-2.24C177.85,379.42,178.75,375.54,179.72,371.68Z"/><path class="cls-16" d="M179.72,371.68c-1,3.86-1.87,7.74-2.94,11.57-.59,2.14.26,2.61,2.14,2.24a12.2,12.2,0,0,1,1.2-.26c.9-.1,2-.51,2.62.23s-.36,1.67-.69,2.49a1.65,1.65,0,0,1-.29.54c-4.41,4.72-2.55,8.74.77,13.3a263.33,263.33,0,0,1,15.29,23.31c1.22,2.11,2.21,4.36,3.31,6.54l-49.26.12-4.28.05c-1.19-1.08-1.23-2.51-1.23-4,0-8.79-.17-17.59.06-26.37.15-5.37.82-10.74,1.49-16.07.21-1.7,1.46-3,2.89-4.16,4.18-3.45,9.32-4.17,14.29-5.31S175.1,374,179.72,371.68Z"/><path class="cls-4" d="M185,297.38c13.09-5.95,24.84-4.49,34.92,6.28.35,1.56,1.78,2.29,2.63,3.46,0,.36.08.64.48.72l-.07,0c1,3,2.57,5.74,3.22,8.87,2.46,11.79,1.14,23.34-2.34,34.7a15.94,15.94,0,0,1-9.46,10.21c-1.53-3.56-1-7.39-1.4-11.09.88-2.34,2.52-4.39,2.62-7,0-.7,0-1.56.68-1.93,4.37-2.41,4.1-6.81,4.74-10.83.28-.89,0-2.06-.78-1.93-3.89.67-6.7-2.4-10.26-2.72-9.44-3.39-18.47-7.56-26.48-14a30.6,30.6,0,0,1-3.32,7.5c-1.76,3-3.35,6.06-5,9.1-1.47.25-1.35,1.18-1,2.23.42,3.23.3,6.87,3.07,9a7.4,7.4,0,0,1,2.91,4.29,17,17,0,0,0,3.27,5.83c1.12,1.44,2.81,2.42,3.43,4.25-.35,2.78.39,5.64-.6,8.37l-3.11-.92h0c-.29-.48-.61-.9-1.26-.56-6.17-5.55-10.65-12-11.6-20.56-1.12-10.17-1.2-20.26,2-30.1,1.19-3.69,2.72-7.63,6.73-8.95A13,13,0,0,0,185,297.38Z"/><path class="cls-5" d="M216.18,367.23c-.57,1.5-1.19,3-1.68,4.52-.57,1.76-1.05,3.35-3.25,3.92-1.59.41-1.76,2.33-2.5,3.63-.94,1.66-1.83,3.36-2.75,5.05l-1.41-.5c-.65-2.23-2.52-3.55-3.91-5.43-1.4,1.85-3.21,3.21-3.9,5.4-2.13.75-2.3,3.44-4.29,4.32l-7.15-20.85c0-.64.1-1.28.16-1.93l.9-1.71a27.54,27.54,0,0,0,9.43,10.93c3.92,2.54,5.79,2.53,9.78,0a27.35,27.35,0,0,0,9.3-10.66A7.74,7.74,0,0,1,216.18,367.23Z"/><path class="cls-8" d="M186.4,363.65l-.9,1.71c-.73-1.23-2.12-2-2.32-3.59l3.11.92C186.32,363,186.36,363.33,186.4,363.65Z"/><path class="cls-8" d="M181.92,361.21c.65-.34,1,.08,1.26.56Z"/><path class="cls-5" d="M281.2,356.28c1.44,2.46,1.94,5.28,2.93,7.9-1,0-.89.9-1.11,1.54q-3.33,9.66-6.68,19.31l-6.06-7.93a40.18,40.18,0,0,0-4.62-6.29l-4.23,5.73c-2.26,2.71-3.7,6-6.34,8.48Q252,376.1,249,367.18c-.32-.95-.44-2-1.41-2.6a26.64,26.64,0,0,1,2.74-8.34c4.62,4.17,9.28,8.29,13.81,12.55,1.26,1.18,2,1.17,3.25,0C271.9,364.55,276.57,360.44,281.2,356.28Z"/><path class="cls-13" d="M261.43,376.54l4.23-5.73a40.18,40.18,0,0,1,4.62,6.29c-1,1.52-2.2,3-1.74,5,1.17,5.11,2.37,10.21,3.56,15.32-1.57,6.75-4.19,13.15-6.73,20.56-2.52-7.17-4.52-13.59-6.13-20.13.75-3,1.54-6,2.24-9.06C262.42,384.7,264,380.61,261.43,376.54Z"/><path class="cls-13" d="M196.78,383.82c.69-2.19,2.5-3.55,3.9-5.4,1.39,1.88,3.26,3.2,3.91,5.43a4.63,4.63,0,0,0-1.15,5.5c-3.08,5.95-1.58,12.38-2,18.61-.12,2,.52,4.05-1,6.44-1.48-5.81-3.87-10.86-4.42-16.46.64-2.85,1.21-5.73,2-8.55A5.35,5.35,0,0,0,196.78,383.82Z"/><path class="cls-6" d="M261.43,376.54c2.54,4.07,1,8.16.05,12.23-.7,3-1.49,6-2.24,9.06q-2.07-6.4-4.15-12.81C257.73,382.58,259.17,379.25,261.43,376.54Z"/><path class="cls-6" d="M272.1,397.4c-1.19-5.11-2.39-10.21-3.56-15.32-.46-2,.76-3.46,1.74-5l6.06,7.93A100.25,100.25,0,0,1,272.1,397.4Z"/><path class="cls-2" d="M196.78,383.82a5.35,5.35,0,0,1,1.21,5.57c-.75,2.82-1.32,5.7-2,8.55-2-3-2.43-6.5-3.54-9.8C194.48,387.26,194.65,384.57,196.78,383.82Z"/><path class="cls-6" d="M203.44,389.35a4.63,4.63,0,0,1,1.15-5.5l1.41.5A12.87,12.87,0,0,1,203.44,389.35Z"/><path class="cls-13" d="M255.59,280.25a25.85,25.85,0,0,1,16.49,0c4.47-.66,8.2,1.14,11.74,3.55a34.68,34.68,0,0,1,6.91,7.93c3,8.83,1.27,17.63-.19,26.43-.18.47-.34,1-.56,1.41-.41.85-.29,2.34-1.72,2.11s-.76-1.64-.77-2.51c0-3.16.06-6.32.08-9.47a8.5,8.5,0,0,0-4.66-8,59.89,59.89,0,0,1-6.32-3.68,3,3,0,0,0-4.29,0c-2.95,2.32-6.16,3.95-10.11,3.57a69.59,69.59,0,0,0-8.53-.49c-6.56.16-10.85,4.62-10.94,11.09a40,40,0,0,1-.11,5.8c-.2,1.24,1.32,3.58-1.18,3.62-2.15,0-.62-2.33-1.3-3.42-1-4.87-1.33-9.84-1.87-14.77a62.27,62.27,0,0,1,.3-7c.75-5.2,4-8.68,8.2-11.53A59.9,59.9,0,0,1,255.59,280.25Z"/><path class="cls-2" d="M221,330.76c-.63,4-.36,8.43-4.73,10.84-.66.37-.65,1.23-.68,1.93-.1,2.64-1.74,4.69-2.62,7-2,1.14-3.3,3-4.95,4.48-5.76,5.22-11.52,5.79-17.7,1.75-1.19-.77-1.95-2.12-3.43-2.47-.62-1.83-2.31-2.81-3.43-4.25a17,17,0,0,1-3.27-5.83,7.4,7.4,0,0,0-2.91-4.29c-2.77-2.13-2.65-5.77-3.07-9,2-.08,3.37.24,3.64,2.74.2,1.88,1.79,3.14,3.46,4a9.9,9.9,0,0,0,13.58-4.24c.67-1.29,1.23-2.14,2.87-1.95,1.45.16,1.29,1.42,1.76,2.21a9.57,9.57,0,0,0,9.38,5.09c3.43-.23,6.65-1.5,7.55-5.14C217.14,330.88,218.76,330.61,221,330.76Z"/><path class="cls-9" d="M186.89,354.32c1.48.35,2.24,1.7,3.43,2.47,6.18,4,11.94,3.47,17.7-1.75,1.65-1.5,3-3.34,4.95-4.48.42,3.7-.13,7.53,1.4,11.09l.54,2.26a27.35,27.35,0,0,1-9.3,10.66c-4,2.54-5.86,2.55-9.78,0a27.54,27.54,0,0,1-9.43-10.93c0-.32-.08-.64-.11-1C187.28,360,186.54,357.1,186.89,354.32Z"/><path class="cls-2" d="M175.17,328.72c1.65-3,3.24-6.12,5-9.1a30.6,30.6,0,0,0,3.32-7.5c8,6.44,17,10.61,26.49,14-3.28,0-6.65,0-9.38,2.07-2.44,1.84-4.44,1.7-6.88,0-4-2.8-11-2.83-14.44-.06A3.44,3.44,0,0,1,175.17,328.72Z"/><path class="cls-13" d="M175.17,328.72a3.44,3.44,0,0,0,4.11-.6c3.44-2.77,10.45-2.74,14.44.06,2.44,1.71,4.44,1.85,6.88,0,2.73-2.06,6.1-2.06,9.38-2.07,3.55.32,6.36,3.39,10.25,2.72.76-.13,1.06,1,.78,1.93-2.25-.16-3.87.11-4.56,2.93-.9,3.64-4.12,4.91-7.55,5.14a9.57,9.57,0,0,1-9.38-5.09c-.47-.79-.31-2.05-1.76-2.21-1.64-.19-2.2.66-2.87,1.95a9.9,9.9,0,0,1-13.58,4.24c-1.67-.9-3.26-2.16-3.46-4-.27-2.5-1.68-2.82-3.64-2.74C173.82,329.9,173.7,329,175.17,328.72Zm33.08-.76a13.69,13.69,0,0,0-5.91,1.33c-1.7.83-2,2-1.06,3.7a8.09,8.09,0,0,0,10.85,3.07c1.81-1,3.11-2.47,2.86-4.63s-2-2.64-3.73-3.06A25,25,0,0,0,208.25,328Zm-21.87,0a19.73,19.73,0,0,0-3.07.35c-1.76.47-3.72.92-3.87,3.25s1.16,3.63,3,4.52a7.69,7.69,0,0,0,8.1-.52c1.6-1.1,3.32-2.52,2.94-4.62-.36-1.94-2.52-2.12-4.16-2.56A23.43,23.43,0,0,0,186.38,328Z"/><path class="cls-8" d="M222.54,307.12l.48.72C222.62,307.76,222.52,307.48,222.54,307.12Z"/><path class="cls-9" d="M237.71,323.23c0-1,.08-2,.13-3,.07-1.45.7-2.27,2.29-2,.68,1.09-.85,3.45,1.3,3.42,2.5,0,1-2.38,1.18-3.62a40,40,0,0,0,.11-5.8c.09-6.47,4.38-10.93,10.94-11.09a69.59,69.59,0,0,1,8.53.49c3.95.38,7.16-1.25,10.11-3.57a3,3,0,0,1,4.29,0,59.89,59.89,0,0,0,6.32,3.68,8.5,8.5,0,0,1,4.66,8c0,3.15-.11,6.31-.08,9.47,0,.87-.77,2.25.77,2.51s1.31-1.26,1.72-2.11c.22-.45.38-.94.56-1.41,1.81-.64,2.28.6,2.28,1.88,0,5.36-.24,10.7-4.83,14.54a7.11,7.11,0,0,0-2.39,5.12,11.23,11.23,0,0,1-3.39,7.65c-1.19,1.09-.94,2.39-1,3.68,0,1.74,0,3.48,0,5.21-4.63,4.16-9.3,8.27-13.85,12.51-1.25,1.17-2,1.18-3.25,0-4.53-4.26-9.19-8.38-13.81-12.55,0-1.22-.13-2.45,0-3.66a6,6,0,0,0-2.18-5.6c-2-1.66-2.7-4.21-3-6.82-.24-2.24-.59-4.5-2.92-5.69C238.86,331.44,238.35,327.31,237.71,323.23Z"/><path class="cls-6" d="M208.25,328a25,25,0,0,1,3,.41c1.71.42,3.5,1,3.73,3.06s-1.05,3.63-2.86,4.63A8.09,8.09,0,0,1,201.28,333c-1-1.71-.64-2.87,1.06-3.7A13.69,13.69,0,0,1,208.25,328Z"/><path class="cls-2" d="M186.38,328a23.43,23.43,0,0,1,3,.42c1.64.44,3.8.62,4.16,2.56.38,2.1-1.34,3.52-2.94,4.62a7.69,7.69,0,0,1-8.1.52c-1.86-.89-3.16-2.32-3-4.52s2.11-2.78,3.87-3.25A19.73,19.73,0,0,1,186.38,328Z"/><path class="cls-13" d="M76.92,412.35c-.11-2-1-3.87-1.37-5.83l-.32-.55a51.21,51.21,0,0,0-2.08-8.1c-.26-1-.51-2-.77-3l-1.47-5.68c.14-1.21,1.56-.71,2-1.5,2.2.13,4.21-.74,6.26-1.27,5.65-1.47,11.4-2.54,16.93-4.42,3.4-.32,3.39-.32,4,3.3a4,4,0,0,0,.32.78c.2,1,.41,2,.61,3.06l3.6,17.32c.36,1.81.62,3.64,1.09,5.42s0,2.21-1.77,2.19c-8.13-.08-16.27,0-24.41,0-.44,0-.88.06-1.32.09C77.11,414.09,76.89,413.31,76.92,412.35Z"/><path class="cls-3" d="M35.33,340.49c-.67-3.46-.16-6.95-.29-10.43-.07-1.7,0-3.41-.06-5.12,0-2.59.15-5.2,0-7.79-.09-1.88.42-2.74,2.47-2.55a38.21,38.21,0,0,0,4.66-.11l16.94.16a8.88,8.88,0,0,0,0,6.72l-.86-.08c-.57-1.43-1.59-2.88-3.06-2.65-1.07.17.28,1.75-.12,2.68l-1.73.11c-3.54,0-7.1.11-10.63-.1-2.34-.14-3,.72-2.78,2.9a75.83,75.83,0,0,1,0,16.77Z"/><path class="cls-6" d="M59.09,321.37a8.88,8.88,0,0,1,0-6.72,14,14,0,0,0,3.6-.32,5.15,5.15,0,0,0,3.13.08,3.76,3.76,0,0,0,2.18,0,2.93,2.93,0,0,0,1.85,0,7.18,7.18,0,0,0,3.06,0,20.55,20.55,0,0,0,6.73-.14,38.31,38.31,0,0,0,8.89.1h0q0,9.45,0,18.9c0,.8-.18,1.64.44,2.33.08,1,.9,1.5,1.51,2.12,3.45,3.47,6.93,6.92,10.37,10.4,1.11,1.12,4.11,1.38-10.38,16.67l-.36-.09c-3.58-13-7.11-18-10.6-14.72l-3,0-5.32,0h0l-2.4-9.83h0c5.42,0,10.84-.09,16.27-.11,1.09,0,1.63-.37,1.63-1.54,0-2.78-2.69-1.54-11.83.81a2,2,0,0,1-.94,0c-11-2.65-13.09-4.26-11.9,1.35,0,0,0,0,.07,0,.74-.85,1.54-.6,2.33-.53-.15.39-.31.79-.46,1.19-.59.71-.11,1.39.06,2.08a35.56,35.56,0,0,1,1.43,6.45H42.26c-1.52,0-3.18-.42-3.3,3.65l-.22.08A32.77,32.77,0,0,1,35,346.34c.17-1.94-.15-3.92.36-5.85l4.59.51c.61,1.34,1.21,2.71,5.86-3.82l.82-.19c10.94,5.82,12.39,5.7,12.51,3.48.33-6-.43-11.92.34-17.86C59.51,322.22,59.22,321.79,59.09,321.37ZM74,334.26v0c3.49,0,7,0,10.48,0,1.32,0,2.08-.25,2.06-1.83s-.82-1.66-2-1.65c-7,0-14,0-21,0-1.35,0-2.07.29-2,1.85s.79,1.68,2,1.67C67,334.23,70.51,334.26,74,334.26ZM74,325v0c-3.49,0-7,0-10.48,0-1.16,0-1.82.29-1.81,1.61s.74,1.57,1.86,1.57q10.59,0,21.18,0c1,0,1.9-.05,1.94-1.48s-.8-1.66-2-1.65C81.14,325,77.57,325,74,325Zm-12.92-2.67-.27-.24c0,.06-.13.15-.12.16a3.08,3.08,0,0,0,.27.24Z"/><path class="cls-13" d="M115.29,314.56c.07-.39.13-.78.19-1.18l2.43-6.74c.73.22.61,1,1,1.33.62,2.23,1.24,4.45,1.87,6.68Z"/><path class="cls-12" d="M113.4,332.14l.24-12.92,8.66,0c.26,8.81-.12,17.62-.19,26.43q-.23,26.47-.48,52.95c0,3.27,0,3.27-3.28,3.31-.44,0-.89.05-1.33.07a.19.19,0,0,0-.26,0c-4-.53-4-.53-3.93-4.76q.28-28.35.58-56.69a12.08,12.08,0,0,0-.1-1.33c0-.47,0-.94,0-1.42,0-.84,0-1.69,0-2.53s0-1.88,0-2.82A.22.22,0,0,0,113.4,332.14Z"/><path class="cls-6" d="M104.67,406.5l-3.6-17.32c1.77.17,2.55-.67,2-2.33-.43-1.41-1.71-.68-2.65-.73a4,4,0,0,1-.32-.78c-.64-3.62-.63-3.62-4-3.3l0-1.76c1.86,0,3.71-.08,5.57-.08,1,0,1.58-.29,1.55-1.38,0-.91.06-2-1.18-2-2.87,0-5.77-.5-8.61.33a8.58,8.58,0,0,1,0-6l8,.12c1.31,0,1.83-.57,1.84-1.88s-.67-1.62-1.81-1.59c-2.51.07-5,.08-7.53.11-.44-2-.89-4-1.33-6,3,0,5.93,0,8.9,0,1.19,0,1.78-.36,1.76-1.65s-.66-1.49-1.7-1.47c-3.19,0-6.38.07-9.56.1a28.7,28.7,0,0,1-1.64-6c3.57,0,7.14-.06,10.69.08,1.53.07,2.33-.43,2.41-2.21l6.07,5.73q0,24.07.09,48.15c0,1.35-.43,1.9-1.79,1.8C106.75,406.45,105.71,406.5,104.67,406.5Z"/><path class="cls-11" d="M109.49,356.58l-6.07-5.72c-.08,1.77-.88,2.27-2.41,2.21-3.55-.15-7.12-.07-10.69-.09a2.67,2.67,0,0,0-2.22-2.17c-1.83-.29-2.33,1.4-3.41,2.54-.39-1.26-.7-2.3-1-3.35h18.19c.13-1.1-.58-1.4-1-1.84-3.44-3.48-6.92-6.93-10.37-10.4-.61-.62-1.43-1.11-1.51-2.12l20.46,0,.21.21Z"/><path class="cls-15" d="M122.3,319.26l-8.66,0,1.65-4.66,5.49.09Z"/><path class="cls-11" d="M117.08,406.16c.66,0,1.31-.06,2-.05,1.2,0,2.57-.34,2.5,1.72-.06,1.77-.62,2.82-2.55,2.74l-2-.07C117.05,409.05,117.06,407.61,117.08,406.16Z"/><path class="cls-3" d="M117.08,406.16c0,1.45,0,2.89,0,4.34-4.1.28-4.42-.05-4.34-4.34L117,406Z"/><path class="cls-3" d="M35.15,346.78l4.36,4.07c-.42,2.3,1.07,2.3,2.64,2.19.14,1.23,1.24,1.75,1.91,2.58.85,1.07,2.23,1.71,2.55,3.2-1.71,0-3.42,0-5.13,0-1.12,0-1.6.45-1.6,1.59s.56,1.57,1.65,1.55,1.92,0,2.89.06c.25,2.09-1,3.8-1.39,5.73-1.06.31-2.66-.76-3.09,1.1a1.76,1.76,0,0,0,1.73,2.42,2.91,2.91,0,0,1-.09,2.51,4.55,4.55,0,0,0-.79,2.89c-1.59.3-1.37,1.52-1.24,2.6s1.16.91,1.93.93c1,0,1.91,0,2.87,0,.63,1.85,1.49,3.67,1,5.72-1.32,0-2.64.09-3.95.08s-1.52.59-1.5,1.66.43,1.48,1.45,1.47c1.61,0,3.22,0,4.83,0l-.86,5.74c-1.26,0-2.52.07-3.78,0-1.1,0-1.64.4-1.64,1.56s.5,1.6,1.62,1.58c1.41,0,2.82,0,4.23,0-1.28,2.9,0,5.11,2.18,7-.95.89-2.45-.52-2.77,1.15-3.21.69-6.46.06-9.68.34-.69-.76-.42-1.69-.42-2.55Q35,388.79,35,373.55V350.36Z"/><path class="cls-6" d="M45.14,406.22c.32-1.67,1.82-.26,2.77-1.15-2.16-1.86-3.46-4.07-2.18-7,1.91,0,3.83,0,5.75,0,7.22-.12,14.45.25,21.67-.2a51.21,51.21,0,0,1,2.08,8.1l-.07.49C65.15,406.41,55.14,406.82,45.14,406.22Z"/><path class="cls-3" d="M75.16,406.46l.07-.49.32.55A.89.89,0,0,1,75.16,406.46Z"/><path class="cls-6" d="M45.3,394.9l.86-5.74,24.75.07,1.47,5.68Z"/><path class="cls-11" d="M45.3,394.9H72.38c.26,1,.51,2,.77,3-7.22.45-14.45.08-21.67.2-1.92,0-3.84,0-5.75,0-1.41,0-2.82-.05-4.23,0-1.12,0-1.62-.43-1.62-1.58s.54-1.58,1.64-1.56C42.78,395,44,394.91,45.3,394.9Z"/><path class="cls-11" d="M70.91,389.23l-24.75-.07c-1.61,0-3.22,0-4.83,0-1,0-1.44-.47-1.45-1.47s.33-1.67,1.5-1.66,2.63-.05,3.94-.08c1,0,1.93.07,2.89.07l24.37-.15a2.21,2.21,0,0,1,.34,1.88C72.47,388.52,71.05,388,70.91,389.23Z"/><path class="cls-5" d="M72.92,387.73a2.21,2.21,0,0,0-.34-1.88c-.22-1.1.1-1.88,1.28-2.13l19.73-4.94c1.3-.29,2,.44,2.49,1.5l0,1.76c-5.53,1.88-11.28,2.95-16.93,4.42C77.13,387,75.12,387.86,72.92,387.73Z"/><path class="cls-11" d="M100.46,386.12c.94.05,2.22-.68,2.65.73.51,1.66-.27,2.5-2,2.33C100.87,388.16,100.66,387.14,100.46,386.12Z"/><path class="cls-2" d="M41.65,341.88c-1,.63-1.39-.13-1.73-.88a75.83,75.83,0,0,0,0-16.77c-.19-2.18.44-3,2.78-2.9,3.53.21,7.09.08,10.63.1a2.61,2.61,0,0,1-.89,2c-3-1.47-5.91-.77-6.18,1.66a7.93,7.93,0,0,0,.65,5.16c1.44,2.52,1.15,2.95-1.68,3.83-3.1,1-3.56,1.59-3.56,4.93C41.66,340,41.65,340.92,41.65,341.88Z"/><path class="cls-5" d="M52.43,323.42a2.61,2.61,0,0,0,.89-2l1.73-.11,3.18,0,.86.08c.13.41.42.85.36,1.24-.77,5.94,0,11.91-.34,17.86,0,.87-.3,1.42-1.27,1.41,0-.89,0-1.78,0-2.66,0-3.69-.31-4.12-3.74-5.25-2.61-.86-2.81-1.29-1.6-3.82A7.46,7.46,0,0,0,52.43,323.42Z"/><path class="cls-6" d="M58.23,321.29l-3.18,0c.4-.93-.95-2.51.12-2.68C56.64,318.41,57.66,319.86,58.23,321.29Z"/><path class="cls-9" d="M93.59,378.78l-19.73,4.94a7.66,7.66,0,0,0-2.38-3.58l-3-3-.41-.49c-1.48-1.64-1.91-3.71-2.41-5.76l-.81-3c-.25-1.85-1-3.73.26-5.51l.12,0,.6-.38,1.67,0,1.89,4.51a8.48,8.48,0,0,0-.93-4.86,6.23,6.23,0,0,0-.72-2.76A21.31,21.31,0,0,0,66.28,353a6.55,6.55,0,0,0-.8-3,35.56,35.56,0,0,0-1.43-6.45c-.17-.69-.65-1.37-.06-2.09a12.43,12.43,0,0,0,.81,1.82c.52.84,1.2,1.56,2.35,1.29s1.22-1.15,1.32-2.06c.07-.64-.19-1.35.43-1.87.77,3.15,1.53,6.29,2.3,9.43a8.28,8.28,0,0,0,.78,3,9,9,0,0,0,1.48,4.61,7.5,7.5,0,0,0-.94-4.66A3.1,3.1,0,0,1,73.78,350l2.75,0,1.37,3c.41,1-.19,2.83,1.31,2.7.8-.06.3-1.76-.12-2.7a6.23,6.23,0,0,1,.42-3,2.74,2.74,0,0,1,4.16,0c.32,1,.63,2.09,1,3.35,1.08-1.14,1.58-2.84,3.41-2.54A2.65,2.65,0,0,1,90.32,353,28.7,28.7,0,0,0,92,359a7.63,7.63,0,0,0,.6,3c.44,2,.89,4,1.33,6l-.48,3.24a8.58,8.58,0,0,0,0,6Z"/><path class="cls-2" d="M109.43,335.6l-20.46,0c-.62-.68-.44-1.52-.44-2.32q0-9.29,0-18.59c5.88,5.33,11.26,11.16,16.93,16.7C106.83,332.76,108.11,334.2,109.43,335.6Z"/><path class="cls-11" d="M52.43,323.42a7.46,7.46,0,0,1,0,6.73c-1.21,2.53-1,3,1.6,3.82,3.43,1.13,3.73,1.56,3.74,5.25,0,.88,0,1.77,0,2.66H41.65c0-1,0-1.92,0-2.88,0-3.34.46-4,3.56-4.93,2.83-.88,3.12-1.31,1.68-3.83a7.93,7.93,0,0,1-.65-5.16C46.52,322.65,49.39,322,52.43,323.42Z"/><path class="cls-11" d="M74,334.26c-3.49,0-7,0-10.48,0-1.2,0-2-.19-2-1.67s.7-1.85,2-1.85c7,.05,14,0,21,0,1.18,0,2,.15,2,1.65s-.74,1.85-2.06,1.83c-3.49-.05-7,0-10.48,0Z"/><path class="cls-11" d="M65.48,349.92a6.55,6.55,0,0,1,.8,3L42.15,353c-1.57.11-3.06.11-2.64-2.19.64-1.12,1.73-.94,2.75-.94Z"/><path class="cls-11" d="M74,325c3.57,0,7.14,0,10.7,0,1.19,0,2,.14,2,1.65s-.89,1.48-1.94,1.48q-10.59,0-21.18,0c-1.12,0-1.86-.2-1.86-1.57s.65-1.62,1.81-1.61c3.49,0,7,0,10.48,0Z"/><path class="cls-11" d="M64.45,340.19a8.29,8.29,0,0,0-1.11-.08c-1.13.06-1.59-.45-1.59-1.58s.47-1.59,1.6-1.59q10.89,0,21.78,0c1.14,0,1.59.46,1.59,1.59s-.54,1.54-1.63,1.54c-5.41,0-10.81.07-16.22.11A5.11,5.11,0,0,0,64.45,340.19Z"/><path class="cls-2" d="M64.45,340.19a5.11,5.11,0,0,1,4.42,0l0,.36c-.62.52-.36,1.23-.43,1.87-.1.91-.23,1.81-1.32,2.06s-1.83-.45-2.35-1.29a12.43,12.43,0,0,1-.81-1.82C64.14,341,64.3,340.59,64.45,340.19Z"/><path class="cls-11" d="M79.51,350a5.41,5.41,0,0,0-.41,2.72l-1.2.24-1.37-3Z"/><path class="cls-11" d="M73.78,350A3.1,3.1,0,0,0,72.52,353L72,353a8.28,8.28,0,0,1-.78-3Z"/><path class="cls-3" d="M61.08,322.28l-.12.16a3.08,3.08,0,0,1-.27-.24s.08-.1.12-.16Z"/><path class="cls-8" d="M113.38,335.26c0,.84,0,1.69,0,2.53A2.59,2.59,0,0,1,113.38,335.26Z"/><path class="cls-8" d="M113.4,332.14a.22.22,0,0,1,0,.3l-.13-.15Z"/><path class="cls-11" d="M92.56,361.93a7.63,7.63,0,0,1-.6-3c3.18,0,6.37-.05,9.56-.1,1,0,1.68.24,1.7,1.47s-.57,1.67-1.76,1.65C98.49,361.92,95.53,361.94,92.56,361.93Z"/><path class="cls-11" d="M93.41,371.13l.48-3.24c2.51,0,5,0,7.53-.11,1.14,0,1.82.26,1.81,1.59s-.53,1.91-1.84,1.88Z"/><path class="cls-11" d="M93.59,378.78l-.18-1.64c2.84-.83,5.74-.34,8.61-.33,1.24,0,1.16,1.1,1.18,2,0,1.09-.59,1.38-1.55,1.38-1.86,0-3.71.05-5.57.08C95.58,379.22,94.89,378.49,93.59,378.78Z"/><path class="cls-6" d="M71.48,380.14a7.66,7.66,0,0,1,2.38,3.58c-1.18.25-1.5,1-1.28,2.13L48.21,386c-1,0-1.92-.05-2.89-.07.52-2.05-.34-3.87-1-5.72Z"/><path class="cls-6" d="M65.67,370.85c.5,2,.93,4.12,2.41,5.76,0,.14-.07.29-.11.44-9.06-.17-18.13.48-27.18-.37a4.55,4.55,0,0,1,.79-2.89,2.91,2.91,0,0,0,.09-2.51C49.66,370.63,57.67,371.06,65.67,370.85Z"/><path class="cls-6" d="M42.15,353,66.28,353a21.31,21.31,0,0,1,1.47,5.93l-21.14-.06c-.32-1.49-1.7-2.13-2.55-3.2C43.39,354.79,42.29,354.27,42.15,353Z"/><path class="cls-6" d="M65.12,362.35c-1.24,1.78-.51,3.66-.26,5.51L43,367.76c.36-1.93,1.64-3.64,1.39-5.73,2.15,0,4.31-.12,6.46,0C55.63,362.12,60.39,361.54,65.12,362.35Z"/><path class="cls-11" d="M40.79,376.68c9.05.85,18.12.2,27.18.37l.52.05,3,3-27.13.07c-1,0-1.92,0-2.87,0-.77,0-1.78.24-1.93-.93S39.2,377,40.79,376.68Z"/><path class="cls-11" d="M65.12,362.35c-4.73-.81-9.49-.23-14.24-.37-2.15-.07-4.31,0-6.46,0-1,0-1.93-.08-2.89-.06s-1.66-.38-1.65-1.55.48-1.61,1.6-1.59c1.71,0,3.42,0,5.13,0l21.14.06a6.23,6.23,0,0,1,.72,2.76l-1,.35-1.67,0-.6.38Z"/><path class="cls-11" d="M43,367.76l21.83.1.81,3c-8,.21-16-.22-24,.43a1.76,1.76,0,0,1-1.73-2.42C40.37,367,42,368.07,43,367.76Z"/><path class="cls-6" d="M67.51,362l1-.35a8.48,8.48,0,0,1,.93,4.86Z"/><path class="cls-6" d="M72,353l.54-.05a7.5,7.5,0,0,1,.94,4.66A9,9,0,0,1,72,353Z"/><path class="cls-6" d="M77.9,353h1.19c.42.94.92,2.64.12,2.7C77.71,355.83,78.31,354,77.9,353Z"/><path class="cls-3" d="M65.24,362.33l.6-.38Z"/><path class="cls-3" d="M68.49,377.1l-.52-.05c0-.15.07-.3.11-.44Z"/><path class="cls-1" d="M499.27,153.28H314c-1.32-5.58-3.43-7.4-9-7.67-1.47-.07-2.93,0-4.4,0q-137.14,0-274.29.1c-4.4,0-5.81-1-5.61-5.56.58-13.15-.83-26.38.67-39.48C22.82,87.94,32.24,79.74,45,79.11c1.63-.08,3.26,0,4.88,0h253.8c7.08,0,8.91-1.38,10.31-7.62,4.36,0,172.9,8,177.27,8C491.27,106.71,499.27,126,499.27,153.28Z"/><path class="cls-17" d="M6,107a49.39,49.39,0,0,1,4.87-21.65,28.73,28.73,0,0,1,3.74-6A39.67,39.67,0,0,1,43.18,64.71c1.46-.12,2.93-.09,4.39-.09q208.44,0,416.87,0c16.95,0,29.7,7,37.58,22.2a36.34,36.34,0,0,1,4,16.9q0,152.3,0,304.58c0,21.61-17,38.46-38.6,39.07-1,0-280.84,0-419.8,0-17.16,0-29.89-7.18-37.89-22.56a28.11,28.11,0,0,1-2.41-6.44A56.22,56.22,0,0,1,6,409.07ZM113.56,432.24c9.91.1,19.82.29,29.72.28,18.53,0,37.06-.18,55.59-.27,22.55.48,45.1.45,67.65,0a3.55,3.55,0,0,1,.92.09,4.55,4.55,0,0,0,.95.14c65.76,0,131.51.11,197.26,0,15.74,0,25.78-10.42,25.8-26.22q.1-120.58.11-241.18c0-3.43-1.19-4-4.19-3.91-8.13.17-16.27.06-24.41.06H104.58c-7.21,0-9.15-1-11-6.36a3.89,3.89,0,0,1,0-2.71c2-5.25,3.68-5.93,11.33-5.93H483.86a7.77,7.77,0,0,0,7.64-7.83c-.08-11,0-22.07-.06-33.11a26.28,26.28,0,0,0-2.93-12.67c-5.4-9.79-14.14-13.16-24.82-13.15q-207.49,0-415,0c-.49,0-1,0-1.47,0-16.07.38-26,10.35-26.14,26.45-.1,11.55.17,23.11-.11,34.66-.11,4.3.82,5.85,5.51,5.75,15.13-.32,30.27-.17,45.4-.09,5.87,0,7.84,1.29,9.4,6.09a4,4,0,0,1,0,2.35c-1.43,5-3.7,6.5-9.58,6.51-14.79.05-29.59.21-44.39-.1-4.84-.1-6.44.87-6.42,6.18.21,62.92.14,125.85.14,188.77,0,16.75-.1,33.5,0,50.24.11,15.34,9.18,24.87,24.33,25.92C68.14,432.77,90.85,432.71,113.56,432.24Z"/><path class="cls-18" d="M40.19,111.84a23.92,23.92,0,0,1,23.71-24c13,0,24,10.9,24,23.84,0,12.65-10.83,23.56-23.59,23.85S40.28,124.84,40.19,111.84Z"/><path class="cls-19" d="M142.73,111.58a24,24,0,0,1-23.78,24c-12.81,0-24-11.38-23.84-24.08a24.15,24.15,0,0,1,23.7-23.62A23.82,23.82,0,0,1,142.73,111.58Z"/><path class="cls-20" d="M150.36,111.72a23.68,23.68,0,1,1,47.36.1,24,24,0,0,1-23.5,23.72C161.33,135.75,150.38,124.83,150.36,111.72Z"/></svg>