<svg id="Layer_1" data-name="Layer 1" xmlns="http://www.w3.org/2000/svg" viewBox="0 0 512 512"><defs><style>.cls-1{fill:#0f0e0c;}.cls-2{fill:#d8d8d8;}.cls-3{fill:#fbc63d;}.cls-4{fill:#070403;}.cls-5{fill:#0c0b0a;}.cls-6{fill:#0d1212;}.cls-7{fill:#0b0905;}.cls-8{fill:#ef5931;}.cls-9{fill:#45b9c4;}.cls-10{fill:#ec5831;}.cls-11{fill:#999;}.cls-12{fill:#43b4bf;}</style></defs><path class="cls-1" d="M347.87,491.39c-1.86,6.13-3.81,7.71-10,7.71q-145.58,0-291.14,0c-18.71,0-33.93-10.94-39.11-28.42A34.52,34.52,0,0,1,6,459.61V154.11a28.72,28.72,0,0,1,1.26-7.9c.17-.61.2-1.29.38-1.84,5.76-17.23,18.8-27.22,36.82-28,1.13,0,2.27-.08,3.41-.08q127.75,0,255.5,0c7.46,0,9,1.06,10.64,7.2-1.39,6.24-3.22,7.62-10.31,7.62H49.91c-1.63,0-3.26-.05-4.88,0-12.77.63-22.2,8.83-23.65,21.55-1.5,13.1-.09,26.33-.67,39.48-.2,4.56,1.21,5.56,5.61,5.56q137.15-.19,274.29-.1c1.46,0,2.93-.06,4.39,0,5.54.27,7.64,2.09,9,7.67-1.56,6.23-3.53,7.54-11.49,7.54q-138.12,0-276.22-.1c-4.48,0-5.57,1.15-5.56,5.6q.21,118.82,0,237.65c-.05,16.64,10.09,28.43,28,28.08,26.18-.51,52.37-.13,78.56-.13H336.12C344.1,483.93,345.52,484.85,347.87,491.39Z"/><path class="cls-2" d="M347.87,491.39c-2.35-6.54-3.77-7.46-11.75-7.47H127.25c-26.19,0-52.38-.38-78.56.13-17.9.35-28-11.44-28-28.08q.33-118.83,0-237.65c0-4.45,1.08-5.6,5.56-5.6q138.1.21,276.22.1c8,0,9.93-1.31,11.49-7.54l13.16,0c.05,1.79.15,3.57.15,5.36q0,108.84,0,217.69c0,18.83,10.75,29.63,29.58,29.67,17.08,0,34.17-.2,51.25.06,20,.31,29.81-14.41,29.72-29.73-.43-72.56-.19-145.13-.18-217.69,0-1.79.1-3.58.16-5.36h8.5c2.17,6.22,3.79,7.5,10.23,7.54,9.76.08,19.53.3,29.28-.1,4.69-.19,5.47,1.44,5.46,5.7q-.18,115.92-.09,231.83c0,2.44,0,4.88,0,7.32-.19,16.21-9.9,26.15-26.07,26.34-13.82.17-27.65,0-41.48,0-18.55,0-37.1,0-55.65,0-7,0-9,1.44-10.6,7.46ZM81.78,423.85c-6.32,1.91-8,4.27-7.33,10.58,1.09,11.14,10.42,21.77,21.43,22.72,21.4,1.84,42.91,1.51,64.31.29,14.65-.84,24.37-11.77,24.45-25.42q.27-47.08,0-94.17a25.09,25.09,0,0,0-24.18-25.15c-20.15-.57-40.33-.7-60.48-.14-15.63.44-25.57,11.62-25.62,27.29-.07,21.47,0,42.94,0,64.41,0,6.66,1.11,8.12,7.45,10.12Zm118.85-68.23c0,24.41-.08,48.82,0,73.23.08,18.11,11.15,29.07,29.24,29.14q26.12.09,52.24,0c17.9-.07,29.13-10.9,29.18-28.69.14-49.3,0-98.61.06-147.92,0-18.82-14.14-29-28.79-28.55-17.72.58-35.48.11-53.21.16a30.89,30.89,0,0,0-8.7.75c-12.89,3.75-20,13.46-20,28.17C200.57,306.48,200.63,331.05,200.63,355.62Z"/><path class="cls-3" d="M327.12,205.26l-13.16,0c-1.32-5.58-3.42-7.4-9-7.67-1.46-.07-2.93,0-4.39,0q-137.15,0-274.29.1c-4.4,0-5.81-1-5.61-5.56.58-13.15-.83-26.38.67-39.48,1.45-12.72,10.88-20.92,23.65-21.55,1.62-.08,3.25,0,4.88,0H303.7c7.09,0,8.92-1.38,10.31-7.62l13.1,0Q327.11,164.38,327.12,205.26Z"/><path class="cls-4" d="M327.12,205.26q0-40.87,0-81.76c.06-27,.63-54,0-80.95-.39-16.19,11.12-30.13,29.79-29.66,17.22.44,34.47.37,51.7,0,18-.37,29.62,13.27,29.27,29.14-.61,27.13-.07,54.29,0,81.44s0,54.51,0,81.77c-.06,1.78-.16,3.57-.16,5.36,0,72.56-.25,145.13.18,217.69.09,15.32-9.71,30-29.72,29.73-17.08-.26-34.17,0-51.25-.06-18.83,0-29.58-10.84-29.58-29.67q0-108.84,0-217.69C327.27,208.83,327.17,207.05,327.12,205.26Zm95.77,30.56q0-95.91,0-191.82a24.73,24.73,0,0,0-.52-6.28c-1.53-6-4.72-9.26-10.76-9.31q-29.28-.27-58.56,0c-5.73.06-9,3.47-10.4,9.13a27.63,27.63,0,0,0-.56,6.77q0,191.07,0,382.16a37.75,37.75,0,0,0,.11,4.88c1,7.54,5,11.3,12.65,11.34q27.82.15,55.64,0c7-.05,10.77-3.35,12.07-10.24a31.34,31.34,0,0,0,.34-5.82Q422.9,331.25,422.89,235.82Z"/><path class="cls-5" d="M357.39,491.4c1.61-6,3.56-7.45,10.6-7.46,18.55,0,37.1,0,55.65,0,13.83,0,27.66.13,41.48,0,16.17-.19,25.88-10.13,26.07-26.34,0-2.44,0-4.88,0-7.32q0-115.91.09-231.83c0-4.26-.77-5.89-5.46-5.7-9.75.4-19.52.18-29.28.1-6.44,0-8.06-1.32-10.23-7.54,2.1-6.24,3.95-7.62,10.62-7.65,10.24,0,20.48-.09,30.71,0,2.75,0,3.63-.77,3.6-3.57-.14-12.51.15-25-.12-37.53-.33-15.47-10.59-25.32-26-25.48-2.92,0-5.85,0-8.77,0-6.62,0-8-1-10-7.55,1.12-5.33,4.43-7.45,9.81-7.37,10.23.15,20.47-.47,29.82,5.11,12.4,7.4,19,18.21,20,32.54.08,1.14.05,2.28.05,3.42q0,150.36,0,300.73c0,16.85-7.34,29.26-22.23,37.08-5.7,3-12,4-18.36,4q-49.08.13-98.14,0C360.88,499.08,358.69,497.3,357.39,491.4Z"/><path class="cls-3" d="M446.29,123.52c2.08,6.5,3.42,7.51,10,7.55,2.92,0,5.85,0,8.77,0,15.43.16,25.69,10,26,25.48.27,12.5,0,25,.12,37.53,0,2.8-.85,3.61-3.6,3.57-10.23-.14-20.47-.08-30.71,0-6.67,0-8.52,1.41-10.62,7.65h-8.5q0-40.89,0-81.77Z"/><path class="cls-3" d="M81.78,423.85v-9.47c5.35-1.05,7.43-4.31,7.39-9.73-.15-21.16-.11-42.32,0-63.47,0-9.36,4.52-13.86,13.68-13.88q26.87-.06,53.71,0c8.49,0,13.25,4.26,13.3,12.75q.28,44.91,0,89.83c0,8.51-4.64,12.84-13.11,12.89q-27.09.15-54.2,0c-8,0-11.78-2.91-13.15-10.72C88.55,427.37,86.36,424.69,81.78,423.85Z"/><path class="cls-6" d="M200.63,355.62c0-24.57-.06-49.14,0-73.71,0-14.71,7.13-24.42,20-28.17a30.89,30.89,0,0,1,8.7-.75c17.73-.05,35.49.42,53.21-.16,14.65-.48,28.81,9.73,28.79,28.55,0,49.31.08,98.62-.06,147.92-.05,17.79-11.28,28.62-29.18,28.69q-26.11.09-52.24,0c-18.09-.07-29.16-11-29.24-29.14C200.55,404.44,200.63,380,200.63,355.62Zm15.23-.46q0,36.85,0,73.72c0,9.77,4.09,13.84,13.95,13.86q26.37.06,52.73,0c9.45,0,13.56-4.23,13.56-13.77q0-73.47,0-147c0-10-4.22-14.22-14.2-14.24q-25.87,0-51.76,0c-10,0-14.28,4.22-14.29,14.15Q215.84,318.54,215.86,355.16Z"/><path class="cls-7" d="M81.78,423.85c4.58.84,6.77,3.52,7.59,8.2,1.37,7.81,5.11,10.69,13.15,10.72q27.11.12,54.2,0c8.47,0,13.07-4.38,13.11-12.89q.24-44.91,0-89.83c0-8.49-4.81-12.73-13.3-12.75q-26.85-.07-53.71,0c-9.16,0-13.65,4.52-13.68,13.88-.07,21.15-.11,42.31,0,63.47,0,5.42-2,8.68-7.39,9.73-6.34-2-7.45-3.46-7.45-10.12,0-21.47-.06-42.94,0-64.41,0-15.67,10-26.85,25.62-27.29,20.15-.56,40.33-.43,60.48.14a25.09,25.09,0,0,1,24.18,25.15q.33,47.08,0,94.17c-.08,13.65-9.8,24.58-24.45,25.42-21.4,1.22-42.91,1.55-64.31-.29-11-.95-20.34-11.58-21.43-22.72C73.83,428.12,75.46,425.76,81.78,423.85Z"/><path class="cls-8" d="M422.89,235.82q0,95.42,0,190.84a31.34,31.34,0,0,1-.34,5.82c-1.3,6.89-5,10.19-12.07,10.24q-27.81.18-55.64,0c-7.61,0-11.65-3.8-12.65-11.34a37.75,37.75,0,0,1-.11-4.88q0-191.08,0-382.16a27.63,27.63,0,0,1,.56-6.77c1.42-5.66,4.67-9.07,10.4-9.13q29.26-.32,58.56,0c6,.05,9.23,3.34,10.76,9.31a24.73,24.73,0,0,1,.52,6.28Q422.9,139.91,422.89,235.82Z"/><path class="cls-9" d="M215.86,355.16q0-36.62,0-73.23c0-9.93,4.27-14.14,14.29-14.15q25.87,0,51.76,0c10,0,14.19,4.23,14.2,14.24q0,73.49,0,147c0,9.54-4.11,13.74-13.56,13.77q-26.35.08-52.73,0c-9.86,0-13.94-4.09-13.95-13.86Q215.84,392,215.86,355.16Z"/><path class="cls-10" d="M40.19,163.84a23.92,23.92,0,0,1,23.71-24c13,0,24,10.9,24,23.84,0,12.65-10.83,23.56-23.59,23.85S40.28,176.84,40.19,163.84Z"/><path class="cls-11" d="M142.73,163.58a24,24,0,0,1-23.78,24c-12.81,0-24-11.38-23.84-24.08a24.15,24.15,0,0,1,23.7-23.62A23.82,23.82,0,0,1,142.73,163.58Z"/><path class="cls-12" d="M150.36,163.72a23.68,23.68,0,1,1,47.36.1,24,24,0,0,1-23.5,23.72C161.33,187.75,150.38,176.83,150.36,163.72Z"/></svg>