<svg id="Layer_1" data-name="Layer 1" xmlns="http://www.w3.org/2000/svg" viewBox="0 0 512 512"><defs><style>.cls-1{fill:#babddc;}.cls-2{fill:#7778b8;}.cls-3{fill:#5859a7;}.cls-4{fill:#e1e5f3;}.cls-5{fill:#f3f3f9;}.cls-6{fill:#cdcfe7;}.cls-7{fill:#48479c;}.cls-8{fill:#ee5c72;}.cls-9{fill:#6668af;}.cls-10{fill:#f7c39d;}.cls-11{fill:#2a2767;}.cls-12{fill:#eb6663;}.cls-13{fill:#faad6f;}.cls-14{fill:#d7dbea;}.cls-15{fill:#c73353;}.cls-16{fill:#fbc63d;}.cls-17{fill:#040404;}.cls-18{fill:#ec5831;}.cls-19{fill:#999;}.cls-20{fill:#43b4bf;}</style></defs><path class="cls-1" d="M420.59,247.79l3.78-1.88a3.25,3.25,0,0,1,2,2.73l.4,9.45q-.21,18.82-.43,37.65c.05.58.1,1.17.16,1.75q0,49.29-.07,98.56c0,1.43,0,2.86,0,4.29-.07,1.77-1,3.46-2.63,3.45-2.13,0-1.26-2.16-1.26-3.35q-.06-66.18,0-132.36C422.33,261.27,423.7,254.33,420.59,247.79Z"/><path class="cls-2" d="M193.43,382.4c3.31-3.37,9.4-4.44,12.59-1.52a24.42,24.42,0,0,0,9.59,5.43c1.7.52,2.67,2.09,3.58,3.57-.29.64-.58,1.28-.86,1.92a14.27,14.27,0,0,1-6.63,2.37c-2.2-.11-4.39-.29-6.59-.3C193.48,393.84,193.48,393.86,193.43,382.4Z"/><path class="cls-3" d="M193.43,382.4c0,11.46,0,11.44,11.68,11.47,2.2,0,4.39.19,6.59.29-.29,3.25,2.31,2.21,3.92,2.65l-.39,1q-9.87.14-19.75.25c-1.3,0-2.72,0-2.7-1.82C192.83,391.64,191.58,387,193.43,382.4Z"/><path class="cls-4" d="M90,239.09c15.52,0,15.52,0,35.5,13.37-15.26,16.58-34.89,15.6-54.7,13.92C77.76,257.66,93.75,255.31,90,239.09Z"/><path class="cls-5" d="M40.92,228.15c12.94-19.1,24.18-19.85,46.54-3.09l-22.31,14.2C56.74,236.28,50.83,227.85,40.92,228.15Z"/><path class="cls-1" d="M65.15,239.26l22.31-14.2c3.93,4.11.55,9.56,2.56,14,3.73,16.22-12.26,18.57-19.2,27.29-3.26.48-6.67,1.63-9-2C68.47,256.78,63.74,247.6,65.15,239.26Z"/><path class="cls-6" d="M65.15,239.26c-1.41,8.34,3.32,17.52-3.37,25.15-26.65-13.7-21.32-7.31-20.86-36.26C50.83,227.85,56.74,236.28,65.15,239.26Z"/><path class="cls-4" d="M215.23,397.84l.39-1c2.88-.6,3-2.68,2.71-5,.28-.64.57-1.28.86-1.92,2.31.41,4.53,1.56,4.35,4-.18,2.58-2.6,3.62-5.08,3.88C217.39,397.85,216.31,397.81,215.23,397.84Z"/><path class="cls-7" d="M186.74,300.32c0-.36-.05-.73-.07-1.1C187,299.56,187.76,299.89,186.74,300.32Z"/><path class="cls-4" d="M389.05,337.71c0,4.89.15,9.79-.05,14.68a5.91,5.91,0,0,0,3.38,6.15c6.62,3.62,13.16,7.4,21.09,11.89-2.27-15.68,1.77-30.15-2.27-44.4,4.11-14.19-.1-28.83,2.27-43.17,2,.31,1.3,1.93,1.31,3q.06,52.47.07,104.93c0,3.46-.5,4.17-3.84,2.2-15-8.85-30.21-17.42-45.31-26.15-2.48-1.43-4.71-2.27-3.68-6.71,1.25-5.41.19-11.36.06-17.07,0-.87-.9-1.89.47-2.38.91-.32,1.3.59,1.91,1.05,6.57,5,14.1,8.46,21.07,12.84,2.69,1.69,2.53-.32,2.55-1.93,0-4.91,0-9.82,0-14.72Z"/><path class="cls-4" d="M338.47,349.92c-1.17-.16-2.58.27-2.41-1.91a152.67,152.67,0,0,0-.15-21.17c-.24-4.38.75-9.33.54-13.95-.37-8.36.27-16.69.18-25,0-2.87-.22-5.38-3.69-7,3.83.44,3.69-1.63,3.67-4q-.12-17.4,0-34.79c0-1.49-.83-3.93,2.29-3.46a2.33,2.33,0,0,1,1.62.88c.69,1.4-.76.78-1.22,1.11-1.29.93-.88,2.34-.79,3.51.44,5.64.43,11.36.55,16.94.12,5.29-.3,10.89-.53,16.35-.09,2.08-.89,4.52,1.49,6.11.26.17.45,1,.32,1.13-3.65,3-1.72,7.1-1.76,10.6-.23,18.21-.11,36.43-.1,54.64Z"/><path class="cls-4" d="M292.47,292.27q1.92-4.23,3.85-8.47c5.67,3.43,10.49,7.46,10.68,14.86.05,2-.2,3.88-2.14,4.93s-4.08.55-5.85-.66C295.28,300.36,293.47,296.55,292.47,292.27Zm11.15,7.63c.42-2.5-2.16-3.55-1.7-5.57.53-2.34-.61-3.9-2.59-4.23-2.73-.45-1.81,2.72-3.08,4-1.78,1.79.7,2.58,1.79,3.38C299.62,298.64,301.29,299.83,303.62,299.9Z"/><path class="cls-8" d="M249.9,249.15a1.39,1.39,0,0,1-1.69-.9c-1.93-3.44-3.9-6.86-5.68-10.38a2.6,2.6,0,0,1,.95-3.73c1.37-.73,2.55.22,3.29,1.18a7.94,7.94,0,0,0,5,2.87c2.88.68,4.32,3.4,3.92,6.27C255.23,247.63,251.73,247.69,249.9,249.15Z"/><path class="cls-2" d="M380.83,296.43c.21,1.47-1.5,2.86-3.7,3.65-2.55.9-2.62-1.67-3.48-2.93-1.51-2.22-3-4.52-2.84-7.4.15-3.38,2.21-4.63,5-2.87C378.85,288.76,380.44,291.59,380.83,296.43ZM376,294.68c1.08.09,1.57-.46,1.55-1.35a2.64,2.64,0,0,0-2.14-2.71c-.91-.2-1.48.46-1.46,1.35A2.8,2.8,0,0,0,376,294.68Z"/><path class="cls-4" d="M389,269.66v26.13q0,17.59,0,35.18a28.76,28.76,0,0,1-.26,3.94,1.12,1.12,0,0,1-1.55.8,1.28,1.28,0,0,1-.47-1.15c2.76-5.18,1-10.72,1.2-16.07.34-8.39.09-16.81.09-25.22V269.56Z"/><path class="cls-2" d="M392.29,261.81a20.17,20.17,0,0,1,1.91.8L409,271.12c1.4.81,2.36,2.07,1.38,3.46-.87,1.23-2-.2-2.81-.67-4.67-2.64-9.29-5.38-13.95-8.06-1.18-.68-2.06-1.48-1.69-3A10.54,10.54,0,0,1,392.29,261.81Z"/><path class="cls-2" d="M367.59,247.3c.33.16.77.35,1.18.59,4.81,2.77,9.61,5.56,14.43,8.32,1.33.76,2.68,1.82,1.83,3.33-1,1.74-2.23,0-3.15-.48-4.72-2.62-9.35-5.38-14-8.07a2.55,2.55,0,0,1-1.53-2.68C366.4,247.59,366.67,247.14,367.59,247.3Z"/><path class="cls-5" d="M410.85,401.9c-45.28-26.39-90.76-52.46-136.17-78.64a60,60,0,0,1-.11-14.61c.12-1.25.07-2.8,1.48-3.22,7.27-2.19,12-7.42,16.42-13.16,1,4.28,2.81,8.09,6.54,10.66,1.77,1.21,3.81,1.75,5.85.66s2.19-2.92,2.14-4.93c-.19-7.4-5-11.43-10.68-14.86.13-.93.25-1.86.38-2.8,2.56-2.42,4.74-4.87.75-8-.23-.17,0-.9,0-1.37l1.22-1.16-.57-.31-.61,1.5c-3.15,1.14-3.27,4.07-3.95,6.67-4.33-.71-5.91-3.08-5.72-7.59.36-8.19.1-16.41.1-24.62q0-16.68,0-33.37c0-2.09,0-3.95-2.27-5.25-15.3-8.66-30.6-17.34-45.74-26.28-3.79-2.24-4.56-1.78-4.54,2.55.11,34.31.06,68.63.08,103,0,1.44-.44,3.06,1.27,5.1,1.5-7.9,1.07-15.22.92-22.23-.29-12.79.28-25.59-.29-38.38-.09-2.07,1.36-4.86,1-5.85-2.3-6.1-.33-12.24-1-18.29-.2-2,0-3.68,2.82-1.92,5.94,3.65,12,7.09,18.1,10.48,2.24,1.24,3,2.89,3,5.4-.12,8.5-.05,17,0,25.52q0,14.53.06,29.07c-1.82,4.27-2.16,8.5.45,12.62l-1.55,2.59c-7.52,3.53-9.36,10.45-10.62,17.73-4.1-2.35-8.07-5-12.33-7-7-3.3-10.11-8.37-9.53-16.21.48-6.49.08-6.38-6.44-7-8.95-.86-17.88-2-26.82-3,1.34-2,5.5.71,5.59-3,.21-8.8.1-17.61.12-26.42,8-.95,16-2.15,24-2.71,3.39-.24,3.67-1.59,3.66-4.35q-.11-40.16,0-80.3c0-.79.1-1.57.15-2.36.86.39,1.76.71,2.57,1.18q54.9,31.68,109.78,63.36,41.07,23.69,82.2,47.26,0,66.18,0,132.36s-3.5,3.12-5,3.35C415.78,404.06,410.85,401.9,410.85,401.9ZM359.47,250.69l-.37-.2.37.2a1.73,1.73,0,0,0,1.83,1.88,7,7,0,0,0,.86,1.12c.59.48,1.59.95,1.51-.28s-1.47-.64-2.29-.81A1.79,1.79,0,0,0,359.47,250.69Zm-41,43.89a2.27,2.27,0,0,0,2.27,1.15c.08,0,.21-.3.17-.38-.55-1.06-1.58-.66-2.44-.77-.09-.61-.1-1.29-.88-1.4-.16,0-.54.36-.52.51C317.15,294.47,317.83,294.48,318.43,294.58Zm34.36,19.08c-.7-1.08-1.81-.94-2.86-1-.14-.93-.35-1.81-1.57-1.72-.2,0-.56.36-.54.49.25,1.13,1.24,1.1,2.11,1.24.7,1.07,1.8.93,2.86,1,.09.6.1,1.28.89,1.4.15,0,.53-.36.51-.51C354.07,313.76,353.39,313.76,352.79,313.66Zm-20,11.45.21.37.16-.17s-.37-.2-3-1.44a12.88,12.88,0,0,0,1.76,1.07c.13.05,1,.72.76-.27a2.47,2.47,0,0,0-1-1.26C331.41,323.29,330.92,323.6,332.75,325.11Zm22.9-54.39a2.28,2.28,0,0,0-2.27-1.15.47.47,0,0,0-.17.38c.55,1.06,1.58.66,2.44.78.13.93.35,1.81,1.56,1.72.2,0,.57-.36.54-.49C357.5,270.83,356.52,270.86,355.65,270.72ZM349,266.91l-.37-.2.37.2c.13.93.35,1.81,1.56,1.73.2,0,.57-.37.54-.5C350.82,267,349.84,267,349,266.91ZM324.16,252.6l-.37-.21.37.21c.13.93.34,1.81,1.56,1.73.2,0,.57-.37.54-.5C326,252.7,325,252.73,324.16,252.6Zm36.26,43.88c-.13-.93-.34-1.81-1.56-1.72-.2,0-.57.36-.54.49.25,1.13,1.23,1.1,2.1,1.24,2.25,1,1.31,3.92,3.07,5.52C365.84,297.92,364.85,296.17,360.42,296.48Zm-21.95,53.44c.09.6.11,1.28.89,1.4.15,0,.54-.37.51-.52-.11-.78-.8-.79-1.39-.89,0-18.21-.13-36.43.1-54.64,0-3.5-1.89-7.58,1.76-10.6.13-.11-.06-1-.32-1.13-2.38-1.59-1.58-4-1.49-6.11.23-5.46.65-11.06.53-16.35-.12-5.58-.11-11.3-.55-16.94-.09-1.17-.5-2.58.79-3.51.46-.33,1.91.29,1.22-1.11a2.33,2.33,0,0,0-1.62-.88c-3.12-.47-2.28,2-2.29,3.46q-.11,17.4,0,34.79c0,2.34.16,4.41-3.67,4,3.47,1.61,3.66,4.12,3.69,7,.09,8.35-.55,16.68-.18,25,.21,4.62-.78,9.57-.54,13.95a152.67,152.67,0,0,1,.15,21.17C335.89,350.19,337.3,349.76,338.47,349.92Zm50.58-12.21-1,.18c0,4.9,0,9.81,0,14.72,0,1.61.14,3.62-2.55,1.93-7-4.38-14.5-7.83-21.07-12.84-.61-.46-1-1.37-1.91-1.05-1.37.49-.48,1.51-.47,2.38.13,5.71,1.19,11.66-.06,17.07-1,4.44,1.2,5.28,3.68,6.71C380.8,375.54,396,384.11,411,393c3.34,2,3.85,1.26,3.84-2.2q-.09-52.47-.07-104.93c0-1,.73-2.66-1.31-3-2.37,14.34,1.84,29-2.27,43.17,4,14.25,0,28.72,2.27,44.4-7.93-4.49-14.47-8.27-21.09-11.89a5.91,5.91,0,0,1-3.38-6.15C389.2,347.5,389.05,342.6,389.05,337.71ZM249.9,249.15c1.83-1.46,5.33-1.52,5.77-4.69.4-2.87-1-5.59-3.92-6.27a7.94,7.94,0,0,1-5-2.87c-.74-1-1.92-1.91-3.29-1.18a2.6,2.6,0,0,0-.95,3.73c1.78,3.52,3.75,6.94,5.68,10.38A1.39,1.39,0,0,0,249.9,249.15Zm130.93,47.28c-.39-4.84-2-7.67-5-9.55-2.83-1.76-4.89-.51-5,2.87-.13,2.88,1.33,5.18,2.84,7.4.86,1.26.93,3.83,3.48,2.93C379.33,299.29,381,297.9,380.83,296.43ZM389,269.66l-1-.1v23.71c0,8.41.25,16.83-.09,25.22-.21,5.35,1.56,10.89-1.2,16.07a1.28,1.28,0,0,0,.47,1.15,1.12,1.12,0,0,0,1.55-.8A28.86,28.86,0,0,0,389,331q0-17.6,0-35.18Zm3.29-7.85a10.54,10.54,0,0,0-.38,1c-.37,1.52.51,2.32,1.69,3,4.66,2.68,9.28,5.42,13.95,8.06.85.47,1.94,1.9,2.81.67,1-1.39,0-2.65-1.38-3.46l-14.78-8.51A20.17,20.17,0,0,0,392.29,261.81Zm-24.7-14.51c-.92-.16-1.19.29-1.27,1a2.55,2.55,0,0,0,1.53,2.68c4.68,2.69,9.31,5.45,14,8.07.92.51,2.17,2.22,3.15.48.85-1.51-.5-2.57-1.83-3.33-4.82-2.76-9.62-5.55-14.43-8.32C368.36,247.65,367.92,247.46,367.59,247.3ZM257.8,187.25c1-2.45-.09-3.54-1.79-4.49-4.55-2.56-9-5.22-13.6-7.78-.84-.48-1.76-2.06-2.75-.66s-.26,2.82,1.15,3.61C246.43,181.06,252.08,184.12,257.8,187.25Zm54.2,59.3v63.13C313.34,288.71,312.54,267.71,312,246.55Zm5-28.48c-1-.15-1.29.28-1.34,1a3.07,3.07,0,0,0,1.91,3c4.42,2.5,8.77,5.11,13.22,7.53,1.07.57,2.61,2.34,3.6.69s-1-2.77-2.29-3.54c-4.47-2.71-9-5.31-13.53-7.93C318,218.5,317.41,218.27,317,218.07Zm-8.21-3.24a2.78,2.78,0,0,0-1.44-2.32c-5-3-10.05-5.86-15.1-8.75-.67-.39-1.56-.83-2.05.09a2.11,2.11,0,0,0,1,2.83c5.13,3.06,10.32,6,15.5,9C307.68,216.23,308.54,216.21,308.77,214.83Zm-24.84-14.4a3.36,3.36,0,0,0-1.85-2.6q-6.91-4.08-13.91-8c-.84-.47-2-1.62-2.86-.23-.67,1.09.17,2.23,1.12,2.8,5.14,3.06,10.33,6,15.52,9C283,202,283.78,201.82,283.93,200.43ZM343.08,233c-.94-.15-1.47,0-1.58.83a2.75,2.75,0,0,0,1.59,2.72c4.46,2.68,9,5.32,13.5,7.87.77.43,1.94,1.78,2.71.09.54-1.16-.26-2.08-1.32-2.71q-6.51-3.88-13-7.8C344.31,233.61,343.59,233.28,343.08,233ZM312,334.84a5.34,5.34,0,0,0,1,.11V313.31c-.62,0-.81,0-1-.06Zm4.21-109c-1.77-1.25-4-3.29-4.28.08-.49,5.55-.13,11.18-.13,16.77a61.54,61.54,0,0,0,.88-13.65C312.63,226.66,313.31,225.35,316.21,225.87Zm43.49,48.22c2.35.73,2.51,2.89,3.11,4.78,3.09-1.8,3.18-1.85,2.52-2.91C364.15,274.08,363.8,270.36,359.7,274.09Zm.21,44.21c1.11,1,1.74,2.89,4.44,2.22C363.07,318.67,361.87,317.82,359.91,318.3Zm-33.72,1.82a7.26,7.26,0,0,0-1.44-.6c-.48-.09-1,.23-.71.75a2.63,2.63,0,0,0,1.45.88C326,321.28,326.38,321,326.19,320.12Zm-5-69.41c-.62-.41-.94-.75-1.3-.81s-1,.12-.69.76a.93.93,0,0,0,.66.54A4.72,4.72,0,0,0,321.22,250.71Zm12.09,7a6.68,6.68,0,0,0-1.27-1c-.18-.07-.5.23-.76.36.22.34.38.82.69,1S332.67,257.92,333.31,257.72Zm12.76,7.4a6.59,6.59,0,0,0-1.26-.92c-.21-.07-.53.19-.8.3.21.34.35.83.66,1S345.37,265.32,346.07,265.12ZM327.54,276.5l-.77.56c.29.32.52.78.87.91a.58.58,0,0,0,.8-.7C328.34,277,327.84,276.75,327.54,276.5Zm18.81,12.24c.65-.08,1.15-.17.87-.82-.1-.24-.46-.56-.65-.53a3.13,3.13,0,0,0-1,.54Zm7.35,3.1a6.29,6.29,0,0,0-1.26-.92c-.2-.08-.53.18-.8.29.22.34.36.84.66,1S353,292,353.7,291.84ZM325,297.47c-.63-.41-.94-.76-1.3-.82s-1,.12-.7.77a1,1,0,0,0,.67.53A4.62,4.62,0,0,0,325,297.47Zm5.42,3.28a6.76,6.76,0,0,0-1.2-1c-.17-.08-.51.18-.77.29.18.34.27.86.55,1S329.79,300.89,330.46,300.75Zm-7.62-26.67a6.67,6.67,0,0,0-1.17-1c-.17-.09-.51.14-.78.23.15.35.22.89.48,1S322.14,274.2,322.84,274.08Zm19.94,34.21c.18-.83-.24-1.06-.72-1.13a2.26,2.26,0,0,0-.84.21c.16.36.23.88.51,1S342.49,308.33,342.78,308.29Zm-24.1,9.08c.65-.08,1.14-.18.87-.82-.1-.25-.46-.57-.66-.54a3.13,3.13,0,0,0-1,.55Zm26.11,14a6.67,6.67,0,0,0-1.17-1c-.17-.09-.51.14-.78.23.15.35.22.88.47,1S344.09,331.44,344.79,331.33Zm13,30.91c.6-.13,1.12-.2.85-.85-.11-.24-.47-.57-.66-.53a2.9,2.9,0,0,0-1,.54ZM330.41,235.09c.75,0,1.07-.27.92-.83a.87.87,0,0,0-.64-.53,3.6,3.6,0,0,0-1,.48Zm2.92,111.74c-.26-.11-.56-.36-.75-.29a.78.78,0,0,0-.3.7.77.77,0,0,0,.7.3C333.16,347.47,333.22,347.08,333.33,346.83ZM308.58,221.22l-.78.34a5.28,5.28,0,0,0,.69.39c.11,0,.28-.09.41-.14ZM329.63,345.3a1,1,0,0,0-.13-.37s-.21.05-.32.08a1,1,0,0,0,.13.37S329.52,345.33,329.63,345.3Zm15.28,9,.37.13c0-.11.14-.28.1-.31A1.18,1.18,0,0,0,345,354Zm10-106.11-.37-.13c0,.11-.13.28-.1.31a.89.89,0,0,0,.36.15Zm-37.72.73a1.27,1.27,0,0,0-.12-.36s-.22.05-.33.08a1,1,0,0,0,.13.36S317.11,249,317.22,248.93Zm34.86,109-.37-.14c0,.11-.14.29-.1.32a1,1,0,0,0,.36.14Zm2.17,1.2-.06.65c.08-.1.23-.2.24-.31S354.31,359.24,354.25,359.13Zm-8.72-116.32-.13.37c.11,0,.28.14.31.1a.83.83,0,0,0,.15-.36ZM343,241.72l.37.14c0-.11.14-.29.1-.32a1,1,0,0,0-.36-.14Zm-8.79-5.67-.06.65c.08-.1.23-.2.23-.31S334.27,236.16,334.21,236.05Zm-77.1.36-.2-.35c-.08.1-.22.19-.23.3s.11.23.17.35Zm70.42-4.18-.06.65c.08-.1.23-.2.23-.3S327.59,232.35,327.53,232.23Zm-6.78-3.15.19-.58-.34.09Zm-79.86-1.67.37.14c0-.11.14-.29.1-.32a1.18,1.18,0,0,0-.36-.15Zm115.26,65.88,0,.65c.08-.1.22-.19.23-.3S356.22,293.41,356.15,293.29Zm36.47,21.35-.19-.35c-.09.1-.23.2-.24.31s.11.23.17.34Zm-43.27-25.08-.13.37c.1,0,.28.14.31.11a1.3,1.3,0,0,0,.15-.36Zm60.44,12.68-.19-.35c-.08.1-.23.2-.24.3s.12.23.18.35Zm1.55-21.42-.58-.19.09.33Zm-79.92-1.26.13-.37c-.11,0-.29-.14-.32-.11a1,1,0,0,0-.14.36Zm-3-23.76.19-.58-.33.09Zm-10.2,15.91-.19-.35c-.09.1-.23.19-.24.3s.11.23.18.35Zm10.5,50.57-.19-.35c-.09.1-.23.19-.24.3s.11.23.17.35Zm-13-52.25a1.27,1.27,0,0,0-.36.12s.05.21.08.33a1,1,0,0,0,.36-.13S315.75,270.14,315.72,270Zm9,5.71.13-.37c-.11,0-.29-.14-.32-.1a1,1,0,0,0-.14.36Zm21,34.35.13-.37c-.11,0-.28-.14-.31-.11a1.3,1.3,0,0,0-.15.36Zm22.07-9.63a1,1,0,0,0-.13-.37s-.21.05-.32.08a1,1,0,0,0,.13.36S367.69,300.49,367.8,300.46Zm-21.19,32-.06.65c.09-.1.23-.19.24-.3S346.68,332.53,346.61,332.41Zm6.88,4.18-.19-.35c-.09.1-.23.19-.24.3s.11.23.18.35Zm-35.31,2a1,1,0,0,0-.13-.37s-.21.05-.32.08a1.24,1.24,0,0,0,.12.37S318.06,338.65,318.18,338.62Zm6.39,4,.18-.58-.33.09Zm2.78,1.12-.65-.06c.1.08.2.23.3.24S327.24,343.81,327.35,343.74Z"/><path class="cls-9" d="M421.46,268.08q-41.1-23.62-82.2-47.26-54.9-31.65-109.78-63.36c-.81-.47-1.71-.79-2.57-1.18,0-4.82,0-9.63-.19-14.45a4,4,0,0,1,3.14-4.47c1.8,1,3.62,1.92,5.4,2.94q78.63,45.36,157.22,90.79c9.18,5.33,19,9.71,27.11,16.7C422.7,254.33,421.33,261.27,421.46,268.08Z"/><path class="cls-6" d="M407.87,234.41a31,31,0,0,0,7.23,3.84l4.53,2.82a16.94,16.94,0,0,1,4.74,4.84l-3.78,1.88c-8.15-7-17.93-11.37-27.11-16.7Q315,185.54,236.26,140.3c-1.78-1-3.6-2-5.4-2.94,3-3.07,5.84-1.68,8.92.1q82.35,47.63,164.75,95.15C405.63,233.24,406.76,233.81,407.87,234.41Z"/><path class="cls-4" d="M293.63,279.18c-2.4,2.43-3.5,5.92-6.44,7.92-2.63-3.86-.05-8.61-2.16-12.56.32-.7.9-1.39.9-2.09.06-12.69,0-25.38.09-38.07,0-2.31-1.25-3.4-3-4.39-5.76-3.3-11.65-6.42-17.23-10-3.71-2.39-3.58-.54-3.73,2.38-.41,8.18.79,16.32.17,24.54-.56,7.36-.14,14.8-.1,22.2,0,1.68-.48,3.57,1.37,4.74l-2.28,1.82q0-14.54-.06-29.07c0-8.51-.08-17,0-25.52,0-2.51-.71-4.16-3-5.4-6.09-3.39-12.16-6.83-18.1-10.48-2.86-1.76-3-.05-2.82,1.92.64,6-1.33,12.19,1,18.29.37,1-1.08,3.78-1,5.85.57,12.79,0,25.59.29,38.38.15,7,.58,14.33-.92,22.23-1.71-2-1.26-3.66-1.27-5.1,0-34.32,0-68.64-.08-102.95,0-4.33.75-4.79,4.54-2.55,15.14,8.94,30.44,17.62,45.74,26.28,2.3,1.3,2.27,3.16,2.27,5.25q0,16.68,0,33.37c0,8.21.26,16.43-.1,24.62-.19,4.51,1.39,6.88,5.72,7.59Q293.59,278.77,293.63,279.18Z"/><path class="cls-6" d="M257.8,187.25c-5.72-3.13-11.37-6.19-17-9.32-1.41-.79-2.1-2.25-1.15-3.61s1.91.18,2.75.66c4.55,2.56,9.05,5.22,13.6,7.78C257.71,183.71,258.82,184.8,257.8,187.25Z"/><path class="cls-4" d="M312,246.55c.54,21.16,1.34,42.16,0,63.13Z"/><path class="cls-6" d="M317,218.07c.43.2,1,.43,1.57.75,4.52,2.62,9.06,5.22,13.53,7.93,1.29.77,3.37,1.75,2.29,3.54s-2.53-.12-3.6-.69c-4.45-2.42-8.8-5-13.22-7.53a3.07,3.07,0,0,1-1.91-3C315.69,218.35,316,217.92,317,218.07Z"/><path class="cls-6" d="M308.77,214.84c-.23,1.37-1.09,1.39-2,.84-5.18-3-10.37-5.94-15.5-9a2.11,2.11,0,0,1-1-2.83c.49-.92,1.38-.48,2.05-.09,5,2.89,10.09,5.79,15.1,8.75A2.78,2.78,0,0,1,308.77,214.84Z"/><path class="cls-6" d="M283.93,200.44c-.15,1.38-1,1.52-2,.94-5.19-3-10.38-5.93-15.52-9-.95-.57-1.79-1.71-1.12-2.8.84-1.39,2-.24,2.86.23q7,3.92,13.91,8A3.36,3.36,0,0,1,283.93,200.44Z"/><path class="cls-6" d="M343.08,233c.51.27,1.23.6,1.91,1q6.5,3.9,13,7.8c1.06.63,1.86,1.55,1.32,2.71-.77,1.69-1.94.34-2.71-.09-4.54-2.55-9-5.19-13.5-7.87a2.75,2.75,0,0,1-1.59-2.72C341.61,233.05,342.14,232.86,343.08,233Z"/><path class="cls-4" d="M312,334.84V313.25c.19,0,.38,0,1,.06V335A5.34,5.34,0,0,1,312,334.84Z"/><path class="cls-4" d="M316.21,225.87c-2.9-.52-3.58.79-3.53,3.2a61.54,61.54,0,0,1-.88,13.65c0-5.59-.36-11.22.13-16.77C312.23,222.58,314.44,224.62,316.21,225.87Z"/><path class="cls-4" d="M359.7,274.09c4.1-3.73,4.45,0,5.63,1.87.66,1.06.57,1.11-2.52,2.91C362.21,277,362.05,274.82,359.7,274.09Z"/><path class="cls-4" d="M360.42,296.48c4.43-.31,5.42,1.44,3.07,5.53-1.76-1.6-.82-4.53-3.07-5.52Z"/><path class="cls-4" d="M359.91,318.3c2-.48,3.16.37,4.44,2.22C361.65,321.19,361,319.32,359.91,318.3Z"/><path class="cls-4" d="M326.19,320.12c.19.9-.24,1.16-.7,1a2.63,2.63,0,0,1-1.45-.88c-.33-.52.23-.84.71-.75A7.26,7.26,0,0,1,326.19,320.12Z"/><path class="cls-4" d="M321.22,250.71a4.72,4.72,0,0,1-1.33.49.93.93,0,0,1-.66-.54c-.27-.64.24-.84.69-.76S320.6,250.3,321.22,250.71Z"/><path class="cls-4" d="M324,252.6c.87.13,1.85.1,2.1,1.23,0,.13-.34.48-.54.5-1.22.08-1.43-.8-1.56-1.73Z"/><path class="cls-4" d="M361.3,252.57c.9.2,2.28-.35,2.37.84s-.92.76-1.51.28A7,7,0,0,1,361.3,252.57Z"/><path class="cls-4" d="M333.31,257.72c-.64.2-1.08.49-1.34.37s-.47-.62-.69-1c.26-.13.58-.43.76-.36A6.68,6.68,0,0,1,333.31,257.72Z"/><path class="cls-4" d="M346.07,265.12c-.7.2-1.15.48-1.4.36s-.45-.64-.66-1c.27-.11.59-.37.8-.3A6.59,6.59,0,0,1,346.07,265.12Z"/><path class="cls-4" d="M349,266.91c.87.13,1.85.1,2.1,1.23,0,.13-.34.48-.54.5-1.21.08-1.43-.8-1.56-1.73Z"/><path class="cls-4" d="M355.65,270.72c.87.14,1.85.11,2.1,1.24,0,.13-.34.48-.54.49-1.21.09-1.43-.79-1.56-1.72Z"/><path class="cls-4" d="M327.54,276.5c.3.25.8.45.9.77a.58.58,0,0,1-.8.7c-.35-.13-.58-.59-.87-.91Z"/><path class="cls-4" d="M346.35,288.74l-.75-.81a3.13,3.13,0,0,1,1-.54c.19,0,.55.29.65.53C347.5,288.57,347,288.66,346.35,288.74Z"/><path class="cls-4" d="M353.7,291.84c-.7.2-1.15.48-1.4.36s-.44-.65-.66-1c.27-.11.6-.37.8-.29A6.29,6.29,0,0,1,353.7,291.84Z"/><path class="cls-4" d="M360.42,296.49c-.87-.14-1.85-.11-2.1-1.24,0-.13.34-.48.54-.49,1.22-.09,1.43.79,1.56,1.72Z"/><path class="cls-4" d="M325,297.47a4.62,4.62,0,0,1-1.33.48,1,1,0,0,1-.67-.53c-.27-.65.24-.85.7-.77S324.41,297.06,325,297.47Z"/><path class="cls-4" d="M330.46,300.75c-.67.14-1.13.38-1.42.25s-.37-.64-.55-1c.26-.11.6-.37.77-.29A6.76,6.76,0,0,1,330.46,300.75Z"/><path class="cls-4" d="M322.84,274.08c-.7.12-1.17.33-1.47.19s-.33-.65-.48-1c.27-.09.61-.32.78-.23A6.67,6.67,0,0,1,322.84,274.08Z"/><path class="cls-4" d="M342.78,308.29c-.29,0-.77.26-1,.11s-.35-.67-.51-1a2.26,2.26,0,0,1,.84-.21C342.54,307.23,343,307.46,342.78,308.29Z"/><path class="cls-4" d="M350,312.71c-.87-.14-1.85-.11-2.1-1.24,0-.13.34-.48.54-.49,1.22-.09,1.43.79,1.56,1.72Z"/><path class="cls-4" d="M318.68,317.37l-.75-.81a3.13,3.13,0,0,1,1-.55c.2,0,.56.29.66.54C319.82,317.19,319.33,317.29,318.68,317.37Z"/><path class="cls-4" d="M330.12,323.87c.8-.27,1.29-.58,1.48-.46a2.47,2.47,0,0,1,1,1.26c.22,1-.63.32-.76.27A12.88,12.88,0,0,1,330.12,323.87Z"/><path class="cls-4" d="M344.79,331.33c-.7.11-1.17.33-1.48.19s-.32-.65-.47-1c.27-.09.61-.32.78-.23A6.67,6.67,0,0,1,344.79,331.33Z"/><path class="cls-4" d="M357.83,362.24l-.77-.84a2.9,2.9,0,0,1,1-.54c.19,0,.55.29.66.53C359,362,358.43,362.11,357.83,362.24Z"/><path class="cls-4" d="M330.41,235.09l-.76-.88a3.6,3.6,0,0,1,1-.48.87.87,0,0,1,.64.53C331.48,234.82,331.16,235.11,330.41,235.09Z"/><path class="cls-4" d="M353,313.66c.6.1,1.28.1,1.4.89,0,.15-.36.53-.51.51-.79-.12-.8-.8-.89-1.4Z"/><path class="cls-4" d="M338.48,349.91c.59.1,1.28.11,1.39.89,0,.15-.36.54-.51.52-.78-.12-.8-.8-.89-1.4Z"/><path class="cls-4" d="M355.65,270.73c-.86-.12-1.89.28-2.44-.78a.47.47,0,0,1,.17-.38,2.28,2.28,0,0,1,2.27,1.15Z"/><path class="cls-4" d="M318.43,294.58c-.6-.1-1.28-.11-1.4-.89,0-.15.36-.53.52-.51.78.11.79.79.88,1.4Z"/><path class="cls-4" d="M359,250.69a1.79,1.79,0,0,1,1.91,1.91,1.79,1.79,0,0,1-1.91-1.91Z"/><path class="cls-4" d="M333.33,346.83c-.11.25-.17.64-.35.71a.77.77,0,0,1-.7-.3.78.78,0,0,1,.3-.7C332.77,346.47,333.07,346.72,333.33,346.83Z"/><path class="cls-4" d="M318.43,294.58c.86.11,1.89-.29,2.44.77,0,.08-.09.37-.17.38a2.27,2.27,0,0,1-2.27-1.15Z"/><path class="cls-4" d="M353,313.68c-1.1,0-2.26.13-3-1h0c1.1,0,2.26-.12,3,1Z"/><path class="cls-4" d="M308.58,221.22l.32.59c-.13.05-.3.18-.41.14a5.28,5.28,0,0,1-.69-.39Z"/><path class="cls-4" d="M329.63,345.3c-.11,0-.29.11-.32.08a1,1,0,0,1-.13-.37c.11,0,.29-.12.32-.08A1,1,0,0,1,329.63,345.3Z"/><path class="cls-4" d="M344.91,354.31,345,354a1.18,1.18,0,0,1,.36.15s-.06.2-.1.31Z"/><path class="cls-4" d="M354.94,248.2l-.11.33a.89.89,0,0,1-.36-.15s.06-.2.1-.31Z"/><path class="cls-4" d="M317.22,248.93c-.11,0-.29.12-.32.08a1,1,0,0,1-.13-.36c.11,0,.29-.12.33-.08A1.27,1.27,0,0,1,317.22,248.93Z"/><path class="cls-4" d="M352.08,357.93l-.11.32a1,1,0,0,1-.36-.14s.06-.21.1-.32Z"/><path class="cls-4" d="M354.25,359.13c.06.11.18.23.18.34s-.16.21-.24.31Z"/><path class="cls-4" d="M345.53,242.81l.33.11a.83.83,0,0,1-.15.36s-.2-.06-.31-.1Z"/><path class="cls-4" d="M343,241.72l.11-.32a1,1,0,0,1,.36.14s-.06.21-.1.32Z"/><path class="cls-4" d="M334.21,236.05c.06.11.18.23.17.34s-.15.21-.23.31Z"/><path class="cls-4" d="M257.11,236.41l-.26.3c-.06-.12-.18-.24-.17-.35s.15-.2.23-.3Z"/><path class="cls-4" d="M327.53,232.23c.06.12.18.24.17.35s-.15.2-.23.3Z"/><path class="cls-4" d="M320.75,229.08l-.15-.49.34-.09Z"/><path class="cls-4" d="M240.89,227.41l.11-.33a1.18,1.18,0,0,1,.36.15s-.06.21-.1.32Z"/><path class="cls-4" d="M356.16,293.29c.06.12.18.24.17.35s-.15.2-.23.3C356.12,293.73,356.13,293.51,356.16,293.29Z"/><path class="cls-4" d="M392.62,314.64l-.26.3c-.06-.11-.18-.23-.17-.34s.15-.21.24-.31Z"/><path class="cls-4" d="M349.35,289.56l.33.12a1.3,1.3,0,0,1-.15.36s-.21-.07-.31-.11Z"/><path class="cls-4" d="M409.79,302.24l-.25.3c-.06-.12-.19-.24-.18-.35s.16-.2.24-.3Z"/><path class="cls-4" d="M411.34,280.82l-.49.14-.09-.33Z"/><path class="cls-4" d="M331.42,279.56l-.33-.12a1,1,0,0,1,.14-.36s.21.07.32.11Z"/><path class="cls-4" d="M328.38,255.8l-.14-.49.33-.09Z"/><path class="cls-4" d="M318.18,271.71l-.25.3c-.07-.12-.19-.24-.18-.35s.15-.2.24-.3Z"/><path class="cls-4" d="M328.68,322.28l-.26.3c-.06-.12-.18-.24-.17-.35s.15-.2.24-.3Z"/><path class="cls-4" d="M315.72,270c0,.11.12.29.08.32a1,1,0,0,1-.36.13c0-.12-.12-.29-.08-.33A1.27,1.27,0,0,1,315.72,270Z"/><path class="cls-4" d="M324.74,275.74l-.33-.11a1,1,0,0,1,.14-.36s.21.06.32.1Z"/><path class="cls-4" d="M345.73,310.09l-.33-.12a1.3,1.3,0,0,1,.15-.36s.2.07.31.11Z"/><path class="cls-4" d="M367.8,300.46c-.11,0-.29.11-.32.07a1,1,0,0,1-.13-.36c.11,0,.29-.12.32-.08A1,1,0,0,1,367.8,300.46Z"/><path class="cls-4" d="M346.61,332.41c.07.12.19.24.18.35s-.15.2-.24.3Z"/><path class="cls-4" d="M353.49,336.59l-.25.3c-.07-.12-.19-.24-.18-.35s.15-.2.24-.3Z"/><path class="cls-4" d="M318.18,338.62c-.12,0-.29.12-.33.08a1.24,1.24,0,0,1-.12-.37c.11,0,.29-.11.32-.08A1,1,0,0,1,318.18,338.62Z"/><path class="cls-4" d="M324.57,342.62l-.15-.49.33-.09Z"/><path class="cls-4" d="M327.35,343.74c-.11.07-.24.19-.35.18s-.2-.16-.3-.24Z"/><path class="cls-4" d="M349,266.91l-.37-.2.37.2Z"/><polygon class="cls-4" points="332.75 325.11 333.12 325.31 332.96 325.48 332.75 325.11"/><path class="cls-4" d="M359,250.69l-.37-.2.37.2Z"/><path class="cls-4" d="M324,252.6l-.37-.21.37.21Z"/><path class="cls-5" d="M268.86,293.82c-.09-1.38-1.52-2.7.66-4,2.88-1.74,3.36-4.77,3-7.94.55-2.42,2.2-4.7-.36-7.21-2.94-2.87-5.72-.81-8.59-.35-1.85-1.17-1.36-3.06-1.37-4.74,0-7.41-.46-14.84.1-22.2.62-8.22-.58-16.36-.17-24.54.15-2.92,0-4.77,3.73-2.38,5.58,3.59,11.47,6.71,17.23,10,1.73,1,3,2.08,3,4.39-.08,12.69,0,25.38-.09,38.07,0,.7-.58,1.39-1.46,2.09H285a6.07,6.07,0,0,0-1.11-.79c-.19-.08-.52.14-.8.22a2.82,2.82,0,0,0,1.35.57c2.67,3.95.09,8.7,2.72,12.56a26.66,26.66,0,0,1-5.1,4.85C277.91,295.31,273.7,297.32,268.86,293.82Z"/><path class="cls-10" d="M302.37,252.09c.26-.64.52-1.29.79-1.93l.72.4-1.56,1.49Z"/><path class="cls-10" d="M297.44,261.71c0-.35-.09-.69-.15-1,.87-3.34,1-7.11,5.08-8.58l-.05,0c0,.6-.26,1.54,0,1.77,5.13,4,2.32,7.12-1,10.24Q299.42,262.88,297.44,261.71Z"/><path class="cls-11" d="M255.77,257.18l2.94-2.34c3.69-.59,7.26-3.24,11,.46,3.29,3.22,1.17,6.15.46,9.27-1.11,1.38-3.11,1.14-3.86,3.82-1.23,4.37-4.88,6.91-10,5C253,268.12,253.42,262.68,255.77,257.18Z"/><path class="cls-10" d="M256.34,273.42c5.13,1.88,8.78-.66,10-5,.75-2.68,2.75-2.44,3.86-3.82.54,4.08-.08,8-3.78,10.21-2.81,1.7-1,3.41-.85,5.17-5,3.39-7.78-1.09-11.22-3.2Z"/><path class="cls-12" d="M301.26,267.11,297,277.54c-5.85,7.79-12.11,15-21.88,17.94-1.82.55-1.75,2.54-1.91,4.15a77.21,77.21,0,0,0,.14,18.79c-.81,3.13,1.07,6.53-.89,9.56l-3.84,2.49c-6.3,1.41-11.26-1.75-16.57-3.71L251,325.27V283c-6,9.46-6,19.94-6.16,30.38-3-4.11-2.6-9.2-3.86-13.81,1.63-9.36,4-18.27,13.67-22.81,3.44,2.11,6.2,6.59,11.22,3.2,6.22,4.5,11.64,1.93,17-1.81a34.37,34.37,0,0,0,6.57-6.23c3.68-2.51,5.11-6.84,8.05-10l4.18,2.09Z"/><path class="cls-13" d="M251,325.27c-2.15-1.08-3.27-3-4.41-4.92l-1.76-6.63c.2-10.56.14-21.17,6.17-30.73Z"/><path class="cls-11" d="M250.71,325.27l1.43,1.63c-4.5,2.78-2.7,5.72-.29,8.77,1.79,2.27,5,3.47,5.15,7-2,8.93-4.07,17.83-5.79,26.8-.31,1.64-3,4.23.79,5.5-2.45.73-3.87,4.42-7.23,2.54-1-19.77,2.12-39.52.15-59.28C246.73,320.66,247.74,323.77,250.71,325.27Z"/><path class="cls-3" d="M265.55,330.82l6.59-2.79q-.52,20.94-1.05,41.87c-.06,2.42-.22,4.83-.33,7.25,0,3-2.19,6.16.87,8.83,1.31,2.81,3.9,3.89,6.57,4.87-2,2.27-4.72,3.48-7.42,4.67-.42-4.06-2-7.3-6.22-8.59a1.88,1.88,0,0,1-.28-1.15l-.12-1.62a.41.41,0,0,1-.09-.63c2.2-1.68,1.4-4.11,1.41-6.24C265.56,361.8,265.54,346.31,265.55,330.82Z"/><path class="cls-5" d="M271.63,386c-3.06-2.67-.85-5.86-.87-8.83,5.88,0,11.76.19,17.63-.07,3.52-.16,3.81,1.48,3.89,4.34.09,3.15-1.24,3.62-4,3.69-3.54.1-7.22-1-10.64.78Z"/><path class="cls-7" d="M244.77,377.49c3.36,1.88,4.78-1.81,7.23-2.54,2.83-.52,6.33-3.54,7.54,2-1.57,4.26-6.52,4.63-9,7.85C243,384.24,242.57,383.76,244.77,377.49Z"/><path class="cls-14" d="M250.55,384.81c2.47-3.22,7.42-3.59,9-7.85l2.29.16c.75,2.13,1.49,4.27,2.24,6.41a.41.41,0,0,0,.09.63c-2.9,1.51-6.09.14-9.08.87Z"/><path class="cls-7" d="M270.78,395.52l-1.47,1c-8.33.12-5-5.53-4.75-9.63C268.8,388.22,270.36,391.46,270.78,395.52Z"/><path class="cls-7" d="M264.07,383.53c-.75-2.14-1.49-4.28-2.24-6.41-.6-11.63.08-23.44-4.83-34.47-.1-3.51-3.36-4.71-5.15-7-2.41-3.05-4.21-6,.29-8.77,4.37,1.66,8.52,4.05,13.41,3.92,0,15.49,0,31-.07,46.47C265.47,379.42,266.27,381.85,264.07,383.53Z"/><path class="cls-6" d="M166.56,284.31a27.19,27.19,0,0,1-10.9-2.94,12.66,12.66,0,0,1-7.34-10.31c-1.2-8.93-3-17.77-4.54-26.64.9-1,1.13-3.2,3.34-1.52,7.79,5.87,16.84,6.69,26.14,6.42q0,12.81,0,25.64C173.22,281.44,172.28,282.73,166.56,284.31Z"/><path class="cls-3" d="M172.3,191.07c2.42.75,2.84-1.56,3.74-2.71,4.05-5.16,9.09-9.17,14.26-13.09,1.88-1.42,2.48-1.08,3.08,1.13a54.45,54.45,0,0,1,.71,27.1c-1.3,3.3-1.74,6.85-3.4,10.09-2.31,4.53-6,7.95-8.87,12-2.93,2.08-5.72,4.44-9.58,4.6C177.34,217.14,177.81,204.11,172.3,191.07Z"/><path class="cls-2" d="M172.3,191.07c5.51,13,5,26.07-.06,39.1h0a2.13,2.13,0,0,0-1,2,5.43,5.43,0,0,0,0,.8l-2.84-.09c-4.88-4-9.32-8.47-12.32-14.14-.86-6.37-1.85-12.74-.09-19.11,1.37-8.14,4.59-15.57,8.82-23.43C168.4,181.11,171.1,185.69,172.3,191.07Zm-4.79,35.32c-.24-.31.41-1.24-.68-1l.69,1c.24.32-.41,1.25.68,1Zm-1-3.91c-3.18-11.52-3-23.33-3.09-35.11C161.49,198.66,163.07,217.38,166.53,222.48Z"/><path class="cls-9" d="M156.17,218.76c3,5.67,7.44,10.1,12.31,14.14-2.13,2.36-5.26,2.66-7.94,3.91-3,1.38-6.67.39-9.25,2.94a15.62,15.62,0,0,0-8.8-1.7c-8.21-3.42-14.44-9.23-20-16-1.6-2-1.73-3,.71-4.09,4.6-2,9.07-4.35,14.31-4C144.5,212.67,150.41,215.42,156.17,218.76Z"/><path class="cls-1" d="M166.56,284.31c5.72-1.58,6.66-2.87,6.68-9.35q0-12.82,0-25.64c7.33-.74,14.59-1.64,20-7.56l3.79.07q-1.35,7.48-2.71,15c-.91,4.47-2.44,8.93-2.6,13.44-.27,7.69-5.46,10.48-11.28,13.05-1.41.63-3.28-.25-4.36,1.38Z"/><path class="cls-9" d="M197,241.83l-3.79-.07c-2.1-.25-4.26-.07-6.25-1A26.8,26.8,0,0,1,171.33,233a5.43,5.43,0,0,1,0-.8,2.17,2.17,0,0,0,1-2h0c3.86-.16,6.65-2.52,9.58-4.6,1.49-.45,3-.88,4.47-1.36,5.45-1.75,10.94-2.58,16.53-.67a38.15,38.15,0,0,1,4.37,1.65c3,1.55,7.69,2.68,7.65,6,0,3.07-4.41,4.86-7.32,6.72C204.29,240,200.51,240.53,197,241.83Z"/><path class="cls-3" d="M156.17,218.76c-5.76-3.34-11.67-6.09-18.61-4.85-.78-4.78-4.1-8.63-4.69-13.59-.46-3.93-2.26-9.3.21-11.26,2.65-2.1,7.32,1.15,10.72,3,4.21,2.3,8.2,5,12.28,7.58C154.32,206,155.31,212.39,156.17,218.76Z"/><path class="cls-7" d="M202.82,223.54c-5.59-1.91-11.08-1.08-16.53.67-1.48.48-3,.91-4.47,1.36,2.89-4,6.56-7.45,8.87-12,1.66-3.24,2.1-6.79,3.4-10.09,1.08,1.65,2.52.72,3.82.49a40.2,40.2,0,0,1,14.09.27c2.91.51,2.88,1.79,2,3.85a35.32,35.32,0,0,1-8.54,12.35C204.5,221.37,202.87,221.8,202.82,223.54Z"/><path class="cls-5" d="M187,240.76c2,.93,4.15.75,6.25,1-5.36,5.92-12.62,6.82-20,7.56-9.3.27-18.35-.55-26.14-6.42-2.21-1.68-2.44.56-3.34,1.52a.71.71,0,0,1-.1-.84c.17-1.39.39-2.8-.82-3.9l-.37-1.63a15.62,15.62,0,0,1,8.8,1.7C160.92,247.3,177.68,247.77,187,240.76Z"/><path class="cls-4" d="M176.05,284.69c1.08-1.63,2.95-.75,4.36-1.38,5.82-2.57,11-5.36,11.28-13.05.16-4.51,1.69-9,2.6-13.44l2.82.18c0,8.81.09,17.62-.12,26.42-.09,3.7-4.25,1-5.59,3C186.24,286.22,181.07,286.12,176.05,284.69Z"/><path class="cls-6" d="M142.86,239.68c1.21,1.1,1,2.51.82,3.9A4.8,4.8,0,0,1,142.86,239.68Z"/><path class="cls-7" d="M187,240.76c-9.28,7-26,6.54-35.67-1,2.58-2.55,6.28-1.56,9.25-2.94,2.68-1.25,5.81-1.55,7.94-3.91l2.85.09A26.8,26.8,0,0,0,187,240.76Z"/><path class="cls-9" d="M166.53,222.48c-3.46-5.1-5-23.82-3.09-35.11C163.57,199.15,163.35,211,166.53,222.48Z"/><path class="cls-3" d="M172.27,230.17a2.17,2.17,0,0,1-1,2A2.13,2.13,0,0,1,172.27,230.17Z"/><path class="cls-9" d="M167.51,226.39l.69,1c-1.09.28-.44-.65-.68-1Z"/><path class="cls-9" d="M167.52,226.38l-.69-1c1.09-.27.44.66.68,1Z"/><path class="cls-5" d="M156.06,400.09c8.7,0,17.39,0,26.08-.19,2.69-.06,3.49.68,3.45,3.4-.16,9.48-.11,19,0,28.45,0,2.15-.38,3.4-2.85,2.78l-40.84-.24c2.63-1.59,5.52-.74,8.26-.7,3.51.05,5.68-.36,3.66-4.54-1.07-2.22-.49-4.63-.62-7,3.33-2.07,5.09-4.67,2.88-8.6a16.9,16.9,0,0,0,.07-7.08q-.06-3.12-.13-6.24Z"/><path class="cls-5" d="M99,399.51c-.81-2.28.9-3.2,2.36-4.05,7.24-4.23,14.52-8.36,21.78-12.56a8.39,8.39,0,0,1,9,.07c7.26,4.19,14.49,8.43,21.79,12.52,2,1.11,2.78,2.44,2.16,4.6l-.07.07c-5,1.95-9.31,5.28-14.07,7.69-4.48,2.27-8.27,6-13.5,6.72-2.43,0-4.45-1-6.58-2.18-7.41-4.05-14.38-8.9-22.18-12.23Zm19.67,2.43c7.46-.63,14.54-1.22,21.61-1.83,1.19-.1,3,.37,3-1.42s-1.79-1.35-3-1.42c-4.92-.28-9.71,1.54-14.66,1-1.48-.18-3.41.53-3.86-1.74s-2-2.5-3.56-1.87c-2.74,1.08-2.51,4-2.62,6.16C115.47,402.77,117.79,401.69,118.65,401.94Z"/><path class="cls-1" d="M156.05,413.19c2.21,3.93.45,6.53-2.88,8.61-6.94,3.53-13.47,7.75-20.41,12.2h9.11l40.84.24c-18.18.91-36.38.7-54.58.8a6.62,6.62,0,0,1-3.18-.7q-12.18-6.82-24.24-13.86c-3-1.75-1.63-4.78-1.73-7.34,2.3.24,4,1.74,5.92,2.8q10.32,5.71,20.62,11.47c1.57.84,3.16,1.15,4.75.06C139.25,423.4,147.33,417.73,156.05,413.19Z"/><path class="cls-2" d="M125.52,427.69q-10.3-5.73-20.62-11.46c-1.91-1.06-3.62-2.56-5.92-2.8V399.51l.68.65c-1,4.52.68,7.16,4.91,9.29,7.18,3.6,14,7.93,21,11.95Z"/><path class="cls-1" d="M128.42,414.57c5.23-.75,9-4.45,13.5-6.72,4.76-2.41,9-5.74,14.07-7.69q.07,3.12.13,6.24c-1.76.64-4,.79-5.21,2-5.89,5.91-13.81,8.48-20.55,13l-2-.09Z"/><path class="cls-7" d="M130.36,421.35c6.74-4.47,14.66-7,20.55-13,1.2-1.21,3.45-1.36,5.21-2a16.9,16.9,0,0,1-.07,7.08c-8.72,4.54-16.8,10.2-25.78,14.28Z"/><path class="cls-4" d="M141.87,434h-9.11c6.94-4.45,13.47-8.67,20.41-12.2.13,2.33-.45,4.74.62,7,2,4.17-.15,4.59-3.66,4.53C147.39,433.26,144.5,432.41,141.87,434Z"/><path class="cls-6" d="M128.42,414.57l0,6.69-2.84.14c-7-4-13.8-8.35-21-11.95-4.23-2.13-6-4.77-4.91-9.29,7.8,3.33,14.77,8.18,22.18,12.23C124,413.56,126,414.56,128.42,414.57Z"/><path class="cls-6" d="M118.65,401.94c-.86-.25-3.18.83-3.09-1.16.11-2.16-.12-5.08,2.62-6.16,1.56-.63,3.13-.34,3.56,1.87s2.38,1.56,3.86,1.74c5,.58,9.74-1.24,14.66-1,1.2.07,3-.36,3,1.42s-1.8,1.32-3,1.42C133.19,400.72,126.11,401.31,118.65,401.94Z"/><path class="cls-9" d="M125.55,421.4l2.84-.14,2,.09-.09,6.41c-1.59,1.09-3.18.78-4.75-.06Z"/><path class="cls-8" d="M162,354.9c1.61-2.38,3.63-4,6.71-3.87A16.52,16.52,0,0,1,162,354.9Z"/><path class="cls-8" d="M170.56,350c1-2.06,2.46-3.23,4.86-2.85A9.57,9.57,0,0,1,170.56,350Z"/><path class="cls-8" d="M159.12,356.69c.14-2,1.48-2,3-1.82A4.19,4.19,0,0,1,159.12,356.69Z"/><path class="cls-8" d="M175.35,347.22a1.73,1.73,0,0,1,1.94-1.05A2.07,2.07,0,0,1,175.35,347.22Z"/><path class="cls-8" d="M168.69,351.06a1.68,1.68,0,0,1,1.93-1.06A2,2,0,0,1,168.69,351.06Z"/><path class="cls-5" d="M178.07,316.57c6.16,3.58,12.41,7,18.44,10.81,2.44,1.55,4.4,1.87,6.7.09a4.15,4.15,0,0,1,3-1.26l1.73.89c.22.48.44,1,.67,1.43-2.57.6-5,1.37-6.8,3.52a3.08,3.08,0,0,0-.74-.18c-1.69-2.35-3.37-1-5.07,0q-16.92,9.67-33.86,19.33c-.95-3.82,1.73-7.07,1.7-10.75,4.17-2.49,8.38-4.94,12.51-7.52,1-.6,3.07-.66,2-2.81-1.12-1.45-2.78-2-4.37-2.75-.57-2.5,1.37-5.53-1.54-7.56A18.6,18.6,0,0,1,178.07,316.57Z"/><path class="cls-5" d="M183.47,352.27a3,3,0,0,1-2-2.88l21.15-13.31c2.48-1.24,5.52-1.29,7.5-3.58,2.42-1.08,3.68-2.82,3.17-5.57,2.16-1.43,4.09-1.05,5.35,1.11s0,3.86-1.89,5.21c-7.54,5.26-15.85,9.2-23.86,13.63C189.73,348.63,187,351.21,183.47,352.27Z"/><path class="cls-3" d="M213.3,326.93c.51,2.75-.75,4.49-3.17,5.57-.38-1.37-.36-2.9-1.52-4-.23-.47-.45-.95-.67-1.43l4-1.23Z"/><path class="cls-9" d="M211.91,325.87l-4,1.23-1.73-.89C208.07,325.43,209.9,324.05,211.91,325.87Z"/><path class="cls-1" d="M202.63,336.08c.37-1.48-.73-2.65-.82-4,1.76-2.15,4.23-2.92,6.8-3.52,1.16,1.07,1.14,2.6,1.52,4C208.15,334.79,205.11,334.84,202.63,336.08Z"/><path class="cls-2" d="M35.68,334.61q33.6-19.5,67.2-39c6.18-3.59,12.41-7.08,18.54-10.74a5.76,5.76,0,0,1,6.32-.16q25.2,14.65,50.37,29.34l.06,1,0,0c-1.95.06-3.38,1.31-4.93,2.2Q131.83,341.06,90.43,365c-3.44-.52-5.92-3-9-4.33-4.17-1.81-7.33-5.74-12.32-5.75.28-1.48-.9-1.86-1.84-2.41-5.26-3-10.53-6.12-15.81-9.14-1.31-.75-2.63-1.64-4.29-1.12.27-1.46-.87-1.87-1.82-2.38Q40.54,337.2,35.68,334.61Zm89-47.35a14.76,14.76,0,0,0-4.88,2.23c-6.29,3.67-12.57,7.36-18.88,11q-27.86,16.06-55.74,32.07c-2.19,1.26-2.26,2.08,0,3.38q21.12,12.13,42.18,24.43c1.74,1,3.11.94,5-.16,12.45-7.28,25.05-14.33,37.57-21.51,12.76-7.32,25.48-14.71,38.24-22,2.79-1.61,3.8-2.62.05-4.7-11.87-6.61-23.5-13.65-35.31-20.37C130.24,290.09,127.82,288.05,124.68,287.26Z"/><path class="cls-9" d="M173.94,327.37c1.59.71,3.25,1.3,4.37,2.75Q136,354.53,93.65,379c-1.15.67-3.16.93-2.92,3.08.06.21,0,.34-.22.38-.55-.73-1.35-.66-2.12-.67-6.7-3.26-13-7.21-19.36-11.05l1.87-1.95,6.78,3.77,9.1,5.19c1.36,1.3,2.36,0,3.33-.58q40.39-23.25,80.75-46.59C172.19,329.78,173.66,329.16,173.94,327.37Z"/><path class="cls-14" d="M132.58,375.71a11.33,11.33,0,0,0-9,3.33c-2.44,2.42-5.83,2.67-9.32,2.73-7.47.14-15-1.11-22.43.89-.26.07-.66-.39-1-.6,3.54-1.95,7.07-3.91,10.62-5.83,8.56-4.64,16.6-10.2,25.48-14.25,1.17.42,2.66.63,1.41,2.47-1.41,2.06-.59,4.63-1.53,6.85a2.38,2.38,0,0,0,.83,3c1.2.77,1.69-.52,2.43-1,1.63-1.05,3.08-2.43,5.15-2.61.24,0,.49.06.73.07a1.24,1.24,0,0,1,.06.76C135,373,132.13,373,132.58,375.71Z"/><path class="cls-14" d="M183.47,352.27c-16.85,9.53-32.66,21.05-51.44,27.81-.09-2.26,1.67-2.82,1.33-4.24,1.19-.14,2.5.27,3.48-.77l3.49-2.51-.06,0a1.79,1.79,0,0,0,1.7-.94l0,0a8.42,8.42,0,0,0,4.3-2.51l-.07,0a1.8,1.8,0,0,0,1.71-.94l-.05,0a17.14,17.14,0,0,0,5.94-3.42l0,0a3.66,3.66,0,0,0,2.63-1.61l0,0a14.56,14.56,0,0,0,5.94-3.43l-.06,0a1.81,1.81,0,0,0,1.71-.94l0,0a8.55,8.55,0,0,0,4.3-2.52l-.07,0a1.81,1.81,0,0,0,1.71-.93l-.05,0,.91-.86c3.17-2.66,7.32-3.35,10.81-5.37A3,3,0,0,0,183.47,352.27Z"/><path class="cls-7" d="M126.93,362c-8.88,4-16.92,9.61-25.48,14.25-3.55,1.92-7.08,3.88-10.62,5.83h-.1c-.24-2.15,1.77-2.41,2.92-3.08q42.29-24.51,84.66-48.85c1.11,2.15-1,2.21-2,2.81-4.13,2.58-8.34,5-12.51,7.52s-8.55,4.67-12.75,7.13C143,352.33,135,357.17,126.93,362Z"/><path class="cls-7" d="M178.07,316.57a18.6,18.6,0,0,0-5.67,3.24c-1.24.64-2.51,1.21-3.72,1.91q-37.52,21.6-75,43.22c-1.27.74-2.37,2.07-4.13,1.67l.91-1.66q41.41-23.88,82.83-47.73c1.55-.89,3-2.14,4.93-2.2Z"/><path class="cls-3" d="M35.68,334.61q4.86,2.59,9.71,5.21c1,.51,2.09.92,1.82,2.38l0,0c-2.69-1.46-5.36-3-8.09-4.36-3.31-1.68-4.75-.82-4.6,2.89.19,5,2.77,8.64,7.09,11.13q11.27,6.5,22.49,13l-2,2.22c-7.36-4.33-14.66-8.74-22.08-13a17.07,17.07,0,0,1-8.16-10.7C30.67,339.37,31.54,336.34,35.68,334.61Z"/><path class="cls-8" d="M62.11,367.15l2-2.22c6-5.13,6-5.13,12.22-.9-1.67,1.72-4.06,2.62-5.39,4.73L69,370.71,65.18,375c-.58-3.47-1.6-6.29-5.84-3.32C59.78,369.53,61.33,368.59,62.11,367.15Z"/><path class="cls-6" d="M136.84,375.07c-1,1-2.29.63-3.48.77a1.24,1.24,0,0,1-.78-.13c-.45-2.7,2.41-2.69,3.43-4.19l.94,1.74C136.8,373.86,135.91,374.41,136.84,375.07Z"/><path class="cls-7" d="M88.39,381.76c.77,0,1.57-.06,2.12.67A1.52,1.52,0,0,1,88.39,381.76Z"/><path class="cls-9" d="M124.68,287.26c3.14.79,5.56,2.83,8.22,4.34,11.81,6.72,23.44,13.76,35.31,20.37,3.75,2.08,2.74,3.09-.05,4.7-12.76,7.32-25.48,14.71-38.24,22-12.52,7.18-25.12,14.23-37.57,21.51-1.88,1.1-3.25,1.17-5,.16q-21.08-12.25-42.18-24.43c-2.26-1.3-2.19-2.12,0-3.38q27.9-16,55.74-32.07c6.31-3.64,12.59-7.33,18.88-11A14.76,14.76,0,0,1,124.68,287.26Z"/><path class="cls-3" d="M47.21,342.2c1.66-.52,3,.37,4.29,1.12,5.28,3,10.55,6.09,15.81,9.14.94.55,2.12.93,1.84,2.41l0,0q-11.27-5.82-21.94-12.67Z"/><path class="cls-3" d="M90.43,365l-.91,1.66L88,366.33,69.12,354.9l0,0c5,0,8.15,3.94,12.32,5.75C84.51,361.94,87,364.43,90.43,365Z"/><path class="cls-6" d="M88,366.33l1.56.28c1.76.4,2.86-.93,4.13-1.67q37.54-21.58,75-43.22c1.21-.7,2.48-1.27,3.72-1.91,2.91,2,1,5.06,1.54,7.56-.28,1.79-1.75,2.41-3.08,3.18q-40.37,23.31-80.75,46.59c-1,.56-2,1.88-3.33.58C89.07,374.12,87.25,370.09,88,366.33Z"/><path class="cls-4" d="M126.93,362c8-4.81,16.08-9.65,24.16-14.4,4.2-2.46,8.5-4.76,12.75-7.13,0,3.68-2.65,6.93-1.7,10.75-8.75,5.11-17.42,10.39-26.3,15.26-2.76,1.51-1.85,2.62-.62,4.23-2.07.18-3.52,1.56-5.15,2.61-.74.48-1.23,1.77-2.43,1a2.38,2.38,0,0,1-.83-3c.94-2.22.12-4.79,1.53-6.85C129.59,362.61,128.1,362.4,126.93,362Z"/><path class="cls-12" d="M137,373.26l-.94-1.74a1.24,1.24,0,0,0-.06-.76,5.32,5.32,0,0,1,2.35-2.34c11.29-6.5,22.61-12.95,33.86-19.51,9.67-5.62,19.61-10.79,28.91-17a3.08,3.08,0,0,1,.74.18c.09,1.38,1.19,2.55.82,4l-21.15,13.31c-3.49,2-7.64,2.71-10.81,5.37l-.91.86.05,0a1.53,1.53,0,0,0-1.71.93l.07,0c-2.12-.33-3.45.7-4.3,2.52l0,0a1.49,1.49,0,0,0-1.71.94l.06,0c-2.73-.15-4.52,1.32-5.94,3.43l0,0c-1.31-.18-2.5-.14-2.63,1.61l0,0a6.22,6.22,0,0,0-5.94,3.42l.05,0a1.52,1.52,0,0,0-1.71.94l.07,0c-2.13-.35-3.45.68-4.3,2.51l0,0a1.48,1.48,0,0,0-1.7.94l.06,0A4.63,4.63,0,0,0,137,373.26Z"/><path class="cls-13" d="M201.07,331.87c-9.3,6.25-19.24,11.42-28.91,17-11.25,6.56-22.57,13-33.86,19.51a5.32,5.32,0,0,0-2.35,2.34c-.24,0-.49,0-.73-.07-1.23-1.61-2.14-2.72.62-4.23,8.88-4.87,17.55-10.15,26.3-15.26q16.94-9.66,33.86-19.33C197.7,330.91,199.38,329.52,201.07,331.87Z"/><path class="cls-5" d="M88,366.33c-.71,3.76,1.11,7.79-1.18,11.39l-9.1-5.19c.66-3,3.12-6.33-1.39-8.5-6.21-4.23-6.21-4.23-12.22.9q-11.25-6.53-22.49-13c-4.32-2.49-6.9-6.1-7.09-11.13-.15-3.71,1.29-4.57,4.6-2.89,2.73,1.39,5.4,2.9,8.09,4.36q10.67,6.87,21.94,12.67Z"/><path class="cls-14" d="M76.29,364c4.51,2.17,2,5.48,1.39,8.5l-6.78-3.77C72.23,366.65,74.62,365.75,76.29,364Z"/><path class="cls-8" d="M147.82,368.29a6.22,6.22,0,0,1,5.94-3.42A17.14,17.14,0,0,1,147.82,368.29Z"/><path class="cls-8" d="M141.93,371.68c.85-1.83,2.17-2.86,4.3-2.51A8.42,8.42,0,0,1,141.93,371.68Z"/><path class="cls-8" d="M137,373.26a4.63,4.63,0,0,1,3.38-.7l-3.49,2.51C135.91,374.41,136.8,373.86,137,373.26Z"/><path class="cls-8" d="M146.16,369.2a1.52,1.52,0,0,1,1.71-.94A1.8,1.8,0,0,1,146.16,369.2Z"/><path class="cls-8" d="M140.27,372.59a1.48,1.48,0,0,1,1.7-.94A1.79,1.79,0,0,1,140.27,372.59Z"/><path class="cls-8" d="M177.23,346.19l1-1Z"/><path class="cls-7" d="M218.33,391.8c.31,2.33.17,4.41-2.71,5-1.61-.44-4.21.6-3.92-2.65A14.14,14.14,0,0,0,218.33,391.8Z"/><path class="cls-5" d="M378.6,192.53c-.25.89-.61,2.21-1.68,1-1.48-1.64-3.12-3.39-3-6.31,2.61,1.16,2.25,4.4,4.59,5.22Z"/><path class="cls-5" d="M378.53,192.45c1.81-.92,2.88-4,5.71-1.94l0,0c-1.79.89-3.44,2.17-5.61,2Z"/><path class="cls-5" d="M385.66,390.55c10.67-1.71,20.08,1.07,28.7,8.71-6,2.79-10.63,8.37-18.18,8.09-1.08,0-4-.78-1.34,2,.86.9-.09,1.22-.7,1.52-5.95,2.92-10.8,8.7-18.32,7.5-3.45-.56-2.08,2.76-2.78,3.1-5.47,2.66-9.79,8-16.64,7.58-1.88-.11-3.77,0-5.66,0-.7,0-1.46-.22-1.78.78-1.13,3.52-6.57,8.54-10.7,9.08-5.32.69-10.73.76-16.1,1.1l-1-.91,0-10.09a2.4,2.4,0,0,0,.4-1l1.81-.33c2.76,2.44,6.05.65,9.06,1.15,12-.1,10,1.42,10.22-10.19l4.45-.19c2.64,0,5.29.06,7.93.09,7.32.05,9.76-2,8.77-7.32-.23-1.28-.47-2.56-.71-3.83l2.21-.13h7.91c10.83.13,8.93.62,9.11-9.13,0-2.22,0-4.43,0-6.65C383.48,391.3,384.75,391.6,385.66,390.55Z"/><path class="cls-7" d="M323.36,427.63l-1.81.33c-2.33-1.61-1.56-4.07-1.57-6.22-.06-15,0-30.06,0-45.1l13.67-8.06,1,1.63a49.48,49.48,0,0,0,.07,13c0,3,0,6,0,9-.13,8.1-.42,16.21-.29,24.3a6.86,6.86,0,0,1-3.44,6.51C328.16,424.14,325.38,425.27,323.36,427.63Z"/><path class="cls-3" d="M320,376.64c0,15,0,30.07,0,45.1,0,2.15-.76,4.61,1.57,6.22a2.4,2.4,0,0,1-.4,1l-4.54-1.31c-3-4.25.3-9.46-2.06-13.81l-9.77-6.18c.11-11.49.15-23,.38-34.47,0-1.86-1.18-4.19,1.25-5.58C309.91,372.11,315,374.34,320,376.64Z"/><path class="cls-1" d="M365.29,407.21l-2.21.13c-1.92-.38-4.12.63-5.76-1.15-.41-7.82,1.21-15.72-1-23.47a3.69,3.69,0,0,0,1.09-.26c5.37-1.34,9.31-5.51,14.45-7.31a8.51,8.51,0,0,1,.17,1.11c.12,4.47-1.4,10.19.79,13.07,2.36,3.08,8.43.29,12.8,1.22-.91,1.05-2.18.75-3.34.88l-3.44,0-2.16,0c-3.32-.55-5.1.64-4.58,4.2.31,2.17-.94,3.47-2.32,4.76C367.29,402,364.62,403.5,365.29,407.21Z"/><path class="cls-1" d="M314.55,413.82c2.36,4.35-.95,9.56,2.06,13.81-1.22,4.36-4.74,6.3-8.34,8.36-.95.55-4.87.9-1.88,3.85-2.34.12-4.79,1.07-6.9-.8,2.68-5.48.48-11.31,1.26-16.93C305.5,419.61,310.56,417.6,314.55,413.82Z"/><path class="cls-6" d="M300.75,422.11c-.78,5.62,1.42,11.45-1.26,16.93a39.9,39.9,0,0,1-4.41-2.28c-3-2-8.23-2.72-8.71-6.11-.76-5.44-1.55-11.3.59-16.82A43.5,43.5,0,0,0,300.75,422.11Z"/><path class="cls-9" d="M320,376.64c-5-2.3-10-4.53-13.54-9.05,1.07-.75,2.09-1.57,3.21-2.22,10.72-6.17,14.12-5.7,24,3.21Z"/><path class="cls-5" d="M300.75,422.11A43.5,43.5,0,0,1,287,413.83c3.75-2.28,7.66-4.35,11.2-6.92,2.7-2,4.46.2,6.62.73l9.77,6.18C310.56,417.6,305.5,419.61,300.75,422.11Z"/><path class="cls-13" d="M343.5,358.47c3.47-3.22,8-4.8,11.84-7.4a3.57,3.57,0,0,1,4.21,0c4,2.47,8,4.9,11.94,7.35l-14.05,8.24Z"/><path class="cls-15" d="M357.44,366.62l14.05-8.24c1.19,5.56.45,11.18.41,16.77-5.14,1.8-9.08,6-14.45,7.31Q357.45,374.54,357.44,366.62Z"/><path class="cls-8" d="M357.44,366.62q0,7.92,0,15.84a3.69,3.69,0,0,1-1.09.26c-1-.79-1.92-1.6-3.31-1.34-.11-1.57-.23-3.14-.34-4.71L342.65,370c.72-3.83-.84-7.82.85-11.57Z"/><path class="cls-13" d="M342.65,370l10.06,6.63-14.42,8.2-3.62-1.69a49.4,49.4,0,0,1-.07-13C337.23,368.11,339.93,368.67,342.65,370Z"/><path class="cls-4" d="M306.39,439.84c-3-2.95.93-3.3,1.88-3.85,3.6-2.06,7.12-4,8.34-8.36l4.54,1.31,0,10.09a5.06,5.06,0,0,0,0,.87Z"/><path class="cls-1" d="M321.14,439.9a5.06,5.06,0,0,1,0-.87l1,.91-.52.16Z"/><path class="cls-1" d="M347.19,418.4l-4.45.19c-3.25.34-4.73-.84-4.62-4.38.21-6.52,0-13,0-19.57a7.7,7.7,0,0,1,.23-1.06c5.44-1.49,9.66-5.33,14.65-7.69v20.28L350,411.91C348,413.31,347.09,415.49,347.19,418.4Z"/><path class="cls-4" d="M338,394.64c0,6.52.21,13.05,0,19.57-.11,3.54,1.37,4.72,4.62,4.38-.21,11.61,1.79,10.09-10.22,10.19-.23-2,.8-4.32-1.49-5.79a6.86,6.86,0,0,0,3.44-6.51c-.13-8.09.16-16.2.29-24.3Z"/><path class="cls-4" d="M369.82,400.45c1.38-1.29,2.63-2.59,2.32-4.76-.52-3.56,1.26-4.75,4.58-4.2.73,1.09,1.45,1.05,2.16,0l3.44,0c0,2.22,0,4.43,0,6.65-.18,9.75,1.72,9.26-9.11,9.13C373.9,404.05,372.12,402.12,369.82,400.45Z"/><path class="cls-4" d="M352.76,410.62c.05-1.48.09-3,.13-4.45l4.43,0c1.64,1.78,3.84.77,5.76,1.15.24,1.27.48,2.55.71,3.83,1,5.33-1.45,7.37-8.77,7.33C355.57,415.5,354.08,413.08,352.76,410.62Z"/><path class="cls-6" d="M352.76,410.62c1.32,2.46,2.81,4.88,2.26,7.88l-7.93-.1C346.94,414.32,348.74,411.66,352.76,410.62Z"/><path class="cls-6" d="M369.82,400.45c2.3,1.67,4.08,3.6,3.38,6.76h-7.91C364.62,403.5,367.29,402,369.82,400.45Z"/><path class="cls-6" d="M330.93,423c2.29,1.47,1.26,3.79,1.49,5.79-3-.5-6.3,1.29-9.06-1.15C325.38,425.27,328.16,424.14,330.93,423Z"/><path class="cls-8" d="M338,394.64l-3.35-2.46c0-3,0-6,0-9l3.62,1.68c0,2.9,0,5.81-.05,8.71C338.15,393.93,338.07,394.28,338,394.64Z"/><path class="cls-6" d="M357.42,406.19l-4.42,0V381.84l.43-.5a4.21,4.21,0,0,1,3,1.38C358.64,390.47,357,398.37,357.42,406.19Z"/><path class="cls-5" d="M378.88,391.46c-.71,1.08-1.43,1.12-2.16,0Z"/><path class="cls-15" d="M353.05,381.38c-.05,1.5-.1,3-.16,4.51-5,2.36-9.2,6.2-14.65,7.69,0-2.9,0-5.81.05-8.71l14.42-8.2C352.82,378.24,352.94,379.81,353.05,381.38Z"/><path class="cls-5" d="M303.62,299.9c-2.33-.07-4-1.26-5.58-2.43-1.09-.8-3.57-1.59-1.79-3.38,1.27-1.27.35-4.44,3.08-4,2,.33,3.12,1.89,2.59,4.23C301.46,296.35,304,297.4,303.62,299.9Z"/><path class="cls-14" d="M376,294.68a2.8,2.8,0,0,1-2.05-2.71c0-.89.55-1.55,1.46-1.35a2.64,2.64,0,0,1,2.14,2.71C377.56,294.22,377.07,294.77,376,294.68Z"/><path class="cls-14" d="M417,235.83l-.87-1.22C416.82,234.75,417.25,235.05,417,235.83Z"/><path class="cls-4" d="M283.91,275l-.79-.57c.28-.08.61-.3.8-.22A6.07,6.07,0,0,1,285,275Z"/><path class="cls-10" d="M394.74,402.28c-.67-10.37,1.85-14.84,10.86-19.36,15.66-7.85,37.79-5.28,50.15,5.82,2.33,3.4,4.52,6.84,3.16,11.27-1.75,3.3-3.71,6.35-6.86,8.6C435.37,420.48,406.22,418,394.74,402.28Zm11.11-13.62c-.42.46-.85.91-1.28,1.37-5.59,5.87-4.87,12.4,1.88,17,10.71,7.22,29.72,7.36,40.06-.18,4.07-3,8.63-6.43,5.4-12.8a3.8,3.8,0,0,0-2.51-4.07l0,0c-8.35-9.35-27.8-11.16-39.93-3.72l.09-.05L407,387.5l.1-.08-1.35,1.33Z"/><path class="cls-12" d="M394.74,402.28c11.48,15.68,40.63,18.2,57.31,6.33,3.15-2.25,5.11-5.3,6.86-8.59a18,18,0,0,1-3.49,15.54c-5.3,4.74-11.93,6.8-18.43,9.1-11.43.7-22.77.81-33.17-5.11C397.15,415.74,393.1,410.49,394.74,402.28Z"/><path class="cls-4" d="M455.42,415.56A18,18,0,0,0,458.91,400c1.36-4.44-.83-7.88-3.16-11.28,5.33.51,9.86,3,13.9,6.2,8.06,6.44,8,15.63,0,22a26.32,26.32,0,0,1-11.41,5.46C456.31,420.53,456,418,455.42,415.56Z"/><path class="cls-6" d="M455.42,415.56c.62,2.41.89,5,2.81,6.85-6.83,3.11-14,2.64-21.24,2.25C443.49,422.36,450.12,420.3,455.42,415.56Z"/><path class="cls-13" d="M451.91,394c3.23,6.37-1.33,9.84-5.4,12.8-10.34,7.54-29.35,7.4-40.06.18-6.75-4.55-7.47-11.08-1.88-17,.43-.45.86-.9,1.28-1.36l-.09.09,1.35-1.33-.1.08c1.06,0,2.09-.14,2.58-1.31l-.09.05c8.89-1,17.69-4.39,26.75-1.18,4.42,1.57,8.79,3.26,13.18,4.9l0,0C449.11,392,450.53,393,451.91,394Zm-22.47,9.66,1.32-1.64c.49-2.86-1-4.95-2.67-7,2.54-2.33,5.09-1.38,7.65,0,.27,1.68.72,3.78,2.83,3.11,3.14-1,1.83-4.12,2.2-6.4.23-1.45.52-3-1.76-3-3.69.08-7.48-.27-11.05.45-5.52,1.11-6.83,4.54-3.64,9.24,2.21,3.26.71,3.82-2.13,4-2,.13-3.57-.25-4.2-2.6-.46-1.75-1.83-2.84-3.78-2.13s-2.1,2.24-1.38,4c.59,1.43-1.61,3.16.44,4.47,5.68.88,11.71,4,16.2-2.58Z"/><path class="cls-12" d="M449.43,390c-4.39-1.64-8.76-3.33-13.18-4.9-9.06-3.21-17.86.15-26.75,1.18C421.63,378.8,441.08,380.61,449.43,390Z"/><path class="cls-12" d="M451.91,394c-1.38-1-2.8-2-2.51-4.07A3.8,3.8,0,0,1,451.91,394Z"/><path class="cls-12" d="M409.59,386.19c-.49,1.17-1.52,1.27-2.58,1.31Z"/><path class="cls-12" d="M407.11,387.42l-1.35,1.33Z"/><path class="cls-12" d="M405.85,388.66c-.42.46-.85.91-1.28,1.36C405,389.57,405.43,389.12,405.85,388.66Z"/><path class="cls-10" d="M413.27,406.2c-2-1.31.15-3-.44-4.47-.72-1.79-.59-3.31,1.38-4s3.32.38,3.78,2.13c.63,2.35,2.2,2.73,4.2,2.6,2.84-.19,4.34-.75,2.13-4-3.19-4.7-1.88-8.13,3.64-9.24,3.57-.72,7.36-.37,11.05-.45,2.28-.05,2,1.53,1.76,3-.37,2.28.94,5.4-2.2,6.4-2.11.67-2.56-1.43-2.83-3.11.86-4.26-2.43-3.75-4.66-3.64-1.76.09-5.16-.09-3,3.67,1.65,2,3.16,4.13,2.67,7l-1.32,1.64,0,0C424.36,406.32,418.42,403.76,413.27,406.2Z"/><path class="cls-12" d="M413.27,406.2c5.15-2.44,11.09.12,16.2-2.58C425,410.22,419,407.08,413.27,406.2Z"/><path class="cls-12" d="M428.09,395c-2.17-3.76,1.23-3.58,3-3.67,2.23-.11,5.52-.62,4.66,3.64C433.18,393.65,430.63,392.7,428.09,395Z"/><path class="cls-12" d="M429.44,403.66l1.32-1.64Z"/><path class="cls-15" d="M415,238.69l3.48,6.59-6-3.72c-1.7-7.35-6.32-13.72-7.26-21.3-.75-6.06-2.1-12.18.73-18.11-.74,12.32,1.26,24,7.92,34.62.38.53.76,1.07,1.15,1.6Z"/><path class="cls-8" d="M465.1,270.75c-10.16,8.66-20.55,6.43-31,.64-2-1.1-3.88-2.39-5.8-3.59a20.52,20.52,0,0,0,0-2.48c-.63-5.78,1.12-6.38,5.9-3.3,5.13,3.3,10.87,5.09,17,2.49l2.71-1.32c5.64-1.74,7.38-6.55,8.47-11.46,4.75-21.44-13.33-53.57-34.16-60.95a27.66,27.66,0,0,0-6.1-1.38c-5.47-.6-9.91,1.12-12.66,6.18-1.19,2.18-2.34,4.38-3.51,6.57-2.83,5.93-1.48,12-.73,18.11.94,7.58,5.56,14,7.26,21.3-3.51-1.06-6.47-3.16-9.54-5.06-3.8-10.82-8-21.55-7.21-33.37.74-11.18,4.54-20.34,16-24.54,14.32-1.08,25.12,5.82,35,15.14,7.7,7.28,12.39,16.64,18.17,25.25,3.74,10.83,7.05,21.63,6.65,33.41-.21,6.09-3.43,11.06-4.09,16.82h0A2.21,2.21,0,0,0,465.1,270.75Z"/><path class="cls-12" d="M464.92,219c-5.78-8.61-10.47-18-18.17-25.25-9.86-9.32-20.66-16.22-35-15.14,10.66-7.61,21.52-7,34.86,2.5a76.23,76.23,0,0,1,26.06,32.7A12.54,12.54,0,0,1,464.92,219Z"/><path class="cls-15" d="M464.92,219a12.54,12.54,0,0,0,7.77-5.19,58.85,58.85,0,0,1,7.14,38c-1.09,7.57-4.19,14.49-12.35,17.41.66-5.76,3.88-10.73,4.09-16.82C472,240.61,468.66,229.81,464.92,219Z"/><path class="cls-15" d="M427.9,267.72q-.27-6.24-.53-12.47c7.3,4.83,14.41,10.11,23.9,9.26-6.17,2.6-11.91.81-17-2.49-4.78-3.08-6.53-2.48-5.9,3.3a20.52,20.52,0,0,1,0,2.48Z"/><path class="cls-15" d="M465.1,270.75a2.21,2.21,0,0,1,2.37-1.54A2.53,2.53,0,0,1,465.1,270.75Z"/><path class="cls-5" d="M406,202.16c1.17-2.2,2.32-4.4,3.51-6.58,2.75-5.06,7.19-6.78,12.66-6.18a27.66,27.66,0,0,1,6.1,1.38c20.83,7.38,38.91,39.51,34.16,60.95-1.09,4.91-2.83,9.72-8.47,11.46-2.51-5.28-7.11-8.18-11.9-11.15-7-4.32-14.79-7.3-21.07-12.77a14.39,14.39,0,0,1,3.15-2C438,233,440.7,222.94,438.29,210.2c.36-3,.86-6-3-7.43a13.72,13.72,0,0,0-.36,7.4c2.21,11.57-3.32,18.31-13.71,22.06a15.44,15.44,0,0,0-2.69,1.61c-1.65,1-1.23,2.44-.77,3.88l-2.7,1,0-.32c.3-1-.27-1.43-1.15-1.61C407.28,226.15,405.28,214.47,406,202.16Z"/><path class="cls-14" d="M415,238.69l2.7-1a4.47,4.47,0,0,0,3.27,1.55c6.28,5.47,14.08,8.45,21.07,12.77,4.79,3,9.39,5.87,11.9,11.15l-2.71,1.32c-9.49.85-16.6-4.43-23.9-9.26a4.28,4.28,0,0,0-2.6-3.59,22.22,22.22,0,0,0-6.25-6.38Z"/><path class="cls-3" d="M421,239.27a4.47,4.47,0,0,1-3.27-1.55c-.46-1.44-.88-2.87.77-3.88a15.44,15.44,0,0,1,2.69-1.61c10.39-3.75,15.92-10.49,13.71-22.06l3.38,0c2.41,12.74-.3,22.78-14.13,27.07A14.39,14.39,0,0,0,421,239.27Z"/><path class="cls-9" d="M438.29,210.2l-3.38,0a13.72,13.72,0,0,1,.36-7.4C439.15,204.19,438.65,207.22,438.29,210.2Z"/><path class="cls-16" d="M499.27,153.28H314c-1.32-5.58-3.43-7.4-9-7.67-1.47-.07-2.93,0-4.4,0q-137.14,0-274.29.1c-4.4,0-5.81-1-5.61-5.56.58-13.15-.83-26.38.67-39.48C22.82,87.94,32.24,79.74,45,79.11c1.63-.08,3.26,0,4.88,0h253.8c7.08,0,8.91-1.38,10.31-7.62,4.36,0,172.9,8,177.27,8C491.27,106.71,499.27,126,499.27,153.28Z"/><path class="cls-17" d="M6,107a49.39,49.39,0,0,1,4.87-21.65,28.73,28.73,0,0,1,3.74-6A39.67,39.67,0,0,1,43.18,64.71c1.46-.12,2.93-.09,4.39-.09q208.44,0,416.87,0c16.95,0,29.7,7,37.58,22.2a36.34,36.34,0,0,1,4,16.9q0,152.3,0,304.58c0,21.61-17,38.46-38.6,39.07-1,0-280.84,0-419.8,0-17.16,0-29.89-7.18-37.89-22.56a28.11,28.11,0,0,1-2.41-6.44A56.22,56.22,0,0,1,6,409.07ZM113.56,432.24c9.91.1,19.82.29,29.72.28,18.53,0,37.06-.18,55.59-.27,22.55.48,45.1.45,67.65,0a3.55,3.55,0,0,1,.92.09,4.55,4.55,0,0,0,.95.14c65.76,0,131.51.11,197.26,0,15.74,0,25.78-10.42,25.8-26.22q.1-120.58.11-241.18c0-3.43-1.19-4-4.19-3.91-8.13.17-16.27.06-24.41.06H104.58c-7.21,0-9.15-1-11-6.36a3.89,3.89,0,0,1,0-2.71c2-5.25,3.68-5.93,11.33-5.93H483.86a7.77,7.77,0,0,0,7.64-7.83c-.08-11,0-22.07-.06-33.11a26.28,26.28,0,0,0-2.93-12.67c-5.4-9.79-14.14-13.16-24.82-13.15q-207.49,0-415,0c-.49,0-1,0-1.47,0-16.07.38-26,10.35-26.14,26.45-.1,11.55.17,23.11-.11,34.66-.11,4.3.82,5.85,5.51,5.75,15.13-.32,30.27-.17,45.4-.09,5.87,0,7.84,1.29,9.4,6.09a4,4,0,0,1,0,2.35c-1.43,5-3.7,6.5-9.58,6.51-14.79.05-29.59.21-44.39-.1-4.84-.1-6.44.87-6.42,6.18.21,62.92.14,125.85.14,188.77,0,16.75-.1,33.5,0,50.24.11,15.34,9.18,24.87,24.33,25.92C68.14,432.77,90.85,432.71,113.56,432.24Z"/><path class="cls-18" d="M40.19,111.84a23.92,23.92,0,0,1,23.71-24c13,0,24,10.9,24,23.84,0,12.65-10.83,23.56-23.59,23.85S40.28,124.84,40.19,111.84Z"/><path class="cls-19" d="M142.73,111.58a24,24,0,0,1-23.78,24c-12.81,0-24-11.38-23.84-24.08a24.15,24.15,0,0,1,23.7-23.62A23.82,23.82,0,0,1,142.73,111.58Z"/><path class="cls-20" d="M150.36,111.72a23.68,23.68,0,1,1,47.36.1,24,24,0,0,1-23.5,23.72C161.33,135.75,150.38,124.83,150.36,111.72Z"/></svg>