<svg id="Layer_1" data-name="Layer 1" xmlns="http://www.w3.org/2000/svg"><defs><style>.cls-1{fill:#080504;}.cls-2{fill:#f05931;}.cls-3{fill:#bab9b9;}.cls-4{fill:#b8b7b7;}.cls-5{fill:#608bc8;}.cls-6{fill:#ec5830;}.cls-7{fill:#f6c23c;}</style></defs><path class="cls-1" d="M371.4,439.93c-1.47,5.95-3.38,7.53-9.46,7.54q-157.9,0-315.82,0c-23.07,0-40.07-17.05-40.08-40Q6,256.1,6,104.77c0-22.78,16.88-40,39.55-40q102.51-.21,205,0c6.84,0,10.05,3.35,9.16,10-2.94,22-6,44.06-9.1,66.08q-4.66,33.76-9.34,67.53c-1.56,11.25-3.09,22.51-4.78,33.74-.57,3.8-.34,6.07,4.6,5.47,4.33-.53,8.77-.17,13.16-.1,7.28.13,10.5,3.78,9.33,10.88-2.66,16.16-5.46,32.29-8.21,48.44-1.39,8.15-2.75,16.31-4.21,24.45-.44,2.48.12,3.58,2.9,3.42a78.44,78.44,0,0,1,10.17,0,9,9,0,0,1,8.37,8.66c.56,15.12,1,30.24,1.59,45.36a3.72,3.72,0,0,0,1,2.53c3.12-10.27,6.22-20.54,9.37-30.79,3.32-10.83,6.6-21.67,10.09-32.45,1-3,.52-4.24-2.83-3.87a37.67,37.67,0,0,1-4.87,0c-8.61-.15-11.79-4.39-9.27-12.53q8.43-27.12,16.95-54.2c2-6.33,3.9-12.68,6-19,.87-2.64.54-3.62-2.64-3.68-14.13-.28-15-1.47-12.79-15.46Q296.57,146.9,307.9,74.55c1.25-8,3.32-9.86,11.51-9.86,47.67,0,95.36.44,143-.2,21.58-.29,39.36,12.73,42.83,31.93,0,.2.48.33.74.49V416.23c0,16.47-14.72,31.29-38.1,31.12-26.16.3-52.32.1-78.48.13-5.14,0-7.66-2.82-8.54-7.56,2.22-6.42,3.35-7.28,10.28-7.29,24.25,0,48.5.05,72.74,0,17.1-.05,27.27-10,27.28-26.8q.09-120.1.1-240.2c0-3.39-.88-4.37-4.32-4.37q-86.65.17-173.31,0c-3.29,0-4.48,1-4.95,4.23-2.2,15.26-4.6,30.48-7,45.7-1.4,8.76-1.48,8.74,7.42,8.78,8.74,0,11.68,4,9.06,12.44-4.67,15-9.41,30-14.07,45-3.21,10.32-6.33,20.67-9.64,31.48h7.37c10.42,0,13.21,3.72,10.19,13.56-10.8,35.16-21.54,70.35-32.49,105.46-1.26,4-.51,4.84,3.58,4.81,26.2-.15,52.4-.1,78.6-.06C368,432.65,369.63,433.94,371.4,439.93ZM81.6,153.63c-1.42,6-3.53,7.64-9.93,7.66-15.3,0-30.59.15-45.88-.08-3.88-.05-4.83,1.06-4.82,4.88q.16,119.57.09,239.13c0,17.28,10,27.37,27.19,27.38q103.71.09,207.42.1c3.87,0,4.92-1,4.77-4.91-.82-21.29-1.34-42.59-2-63.88-.14-4.52,1.24-10.41-1.07-13.19-2.44-2.93-8.53-.75-13-.91-7.54-.27-10.54-3.95-9.28-11.33,4.11-24,8.12-48,12.25-71.92.53-3.07-.36-4-3.44-3.91-4.88.21-9.77.2-14.64,0-6.74-.25-9.85-3.89-9-10.4,3.9-28.62,7.7-57.25,12-85.81.72-4.8-.44-5.24-4.61-5.23-41.32.14-82.64.09-124,.08-6.84,0-8.55-1.28-10.59-7.65,2.21-6.44,3.55-7.34,11.26-7.35q63,0,126,0c2.87,0,4.89-.1,5.36-3.74q3.77-29,7.92-57.9c.53-3.8-.17-5.3-4.56-5.27-29.46.21-58.91.11-88.36.11q-51.27,0-102.52,0c-17,0-27,10.09-27.06,27-.06,11.55.16,23.11-.11,34.66-.09,4,.93,5.26,5.08,5.19,15.13-.25,30.26-.14,45.4-.09C78.15,146.34,80,147.76,81.6,153.63Zm319.66-7.34c28.45,0,56.91-.07,85.37.08,3.78,0,5-.89,4.91-4.84-.27-11.7,0-23.41-.11-35.12-.1-16.65-10.07-26.8-26.68-26.83-46-.09-92.05,0-138.07-.11-3.06,0-4.24.94-4.69,3.87-3,19.55-6,39.1-9.25,58.61-.69,4.08.7,4.42,4.12,4.4C345,146.24,373.12,146.29,401.26,146.29Z"/><path class="cls-2" d="M371.64,439.93c-1.77-6-3.38-7.28-9.71-7.29-26.2,0-52.4-.09-78.6.06-4.09,0-4.84-.78-3.58-4.81,10.95-35.11,21.69-70.3,32.49-105.46,3-9.84.23-13.55-10.19-13.56h-7.37c3.31-10.81,6.43-21.16,9.64-31.48,4.66-15,9.4-30,14.07-45C321,224,318.08,220,309.33,220s-8.82,0-7.42-8.78c2.43-15.22,4.83-30.44,7-45.7.47-3.22,1.66-4.24,4.95-4.23q86.66.13,173.31,0c3.44,0,4.32,1,4.32,4.37q-.13,120.1-.1,240.2c0,16.81-10.18,26.75-27.28,26.8-24.24.08-48.49,0-72.74,0-6.93,0-8.06.87-10.28,7.29Z"/><path class="cls-2" d="M93.07,153.65c2,6.37,3.75,7.65,10.59,7.65,41.32,0,82.64.06,124-.08,4.17,0,5.33.43,4.61,5.23-4.27,28.56-8.07,57.19-12,85.81-.88,6.51,2.23,10.15,9,10.4,4.87.19,9.76.2,14.64,0,3.08-.13,4,.84,3.44,3.91-4.13,24-8.14,47.95-12.25,71.92-1.26,7.38,1.74,11.06,9.28,11.33,4.5.16,10.59-2,13,.91,2.31,2.78.93,8.67,1.07,13.19.66,21.29,1.18,42.59,2,63.88.15,3.89-.9,4.92-4.77,4.91q-103.71-.17-207.42-.1c-17.23,0-27.18-10.1-27.19-27.38Q21,285.65,21,166.09c0-3.82.94-4.93,4.82-4.88,15.29.23,30.58.12,45.88.08,6.4,0,8.51-1.71,9.93-7.66Z"/><path class="cls-3" d="M401.26,146.29c-28.14,0-56.27,0-84.4.06-3.42,0-4.81-.32-4.12-4.4C316,122.44,319,102.89,322,83.34c.45-2.93,1.63-3.88,4.69-3.87,46,.11,92.05,0,138.07.11,16.61,0,26.58,10.18,26.68,26.83.07,11.71-.16,23.42.11,35.12.1,3.95-1.13,4.86-4.91,4.84C458.17,146.22,429.71,146.29,401.26,146.29Z"/><path class="cls-4" d="M239,79.43c4.39,0,5.09,1.47,4.56,5.27q-4.11,28.93-7.92,57.9c-.47,3.64-2.49,3.75-5.36,3.74q-63-.09-125.95,0c-7.71,0-9,.91-11.26,7.35l-11.47,0c-1.59-5.87-3.45-7.29-10.17-7.32-15.14-.05-30.27-.16-45.4.09-4.15.07-5.17-1.2-5.08-5.19.27-11.55.05-23.11.11-34.66.08-16.9,10.1-27,27.06-27q51.26-.11,102.52,0C180.09,79.54,209.54,79.64,239,79.43Zm-64.74,56.51A23.86,23.86,0,0,0,198,112c-.06-13-11-24-23.92-23.78a23.85,23.85,0,0,0,.2,47.69Zm-54.95,0A23.85,23.85,0,0,0,143,112c-.06-13-11.15-24-24-23.72-12.7.26-23.54,11.2-23.6,23.83C95.29,125,106.35,136,119.31,135.94Zm-55.1,0c13,0,24.05-11,23.94-23.9C88,99.39,77.2,88.48,64.5,88.24S40.52,99,40.45,112A23.94,23.94,0,0,0,64.21,135.94Z"/><path class="cls-5" d="M198,112a23.67,23.67,0,1,1-23.92-23.78C186.93,88.05,197.92,99,198,112Z"/><path class="cls-6" d="M64.21,135.94A23.94,23.94,0,0,1,40.45,112c.07-13,11.23-24,24-23.77S88,99.39,88.15,112C88.26,124.92,77.2,136,64.21,135.94Z"/><path class="cls-7" d="M143,112a23.85,23.85,0,0,1-23.66,24c-13,0-24-11-24-23.87.06-12.63,10.9-23.57,23.6-23.83C131.82,88,142.91,98.93,143,112Z"/></svg>