<?xml version="1.0" encoding="utf-8"?>
<svg version="1.1" id="Layer_1" xmlns="http://www.w3.org/2000/svg" xmlns:xlink="http://www.w3.org/1999/xlink" x="0px" y="0px"
	 viewBox="0 0 512 512" style="enable-background:new 0 0 512 512;" xml:space="preserve">
<defs><style>.cls-1{fill:#fef4f4;}.cls-2{fill:#ece5f2;}.cls-3{fill:#4e5f80;}.cls-4{fill:#f47c54;}.cls-5{fill:#ef4962;}.cls-6{fill:#608bc8;}.cls-7{fill:#485076;}.cls-8{fill:#ee4861;}.cls-9{fill:#f5b944;}.cls-10{fill:#61bf9a;}.cls-11{fill:#fbc63d;}.cls-12{fill:#040404;}.cls-13{fill:#ec5831;}.cls-14{fill:#999;}.cls-15{fill:#43b4bf;}</style></defs><path class="cls-1" d="M256,431.09q-115.71,0-231.41.05c-3.45,0-3.94-.5-3.93-2.32q.14-103.2.08-206.41c3.81-.12,7.62-.35,11.43-.35q107.13,0,214.25,0c3.2,0,6.39.26,9.58.4C256,244.37,256,420.55,256,431.09ZM103.68,256.55c-8.1,0-16.2.05-24.3,0-2.53,0-3.53.4-3.48,1.93q.22,6,0,12.1c-.06,1.54,1,1.92,3.48,1.91q24.3-.08,48.61,0c2.7,0,3.82-.38,3.75-2-.18-3.95-.17-7.89,0-11.83.07-1.65-1-2.1-3.75-2.07C119.89,256.61,111.78,256.55,103.68,256.55Zm.22,31.72c-8.25,0-16.5,0-24.75,0-2.28,0-3.29.32-3.24,1.75.14,4.12.13,8.24,0,12.36,0,1.42.92,1.77,3.22,1.76q24.53-.06,49.05,0c2.48,0,3.57-.34,3.51-1.9-.16-4-.16-8.06,0-12.08.06-1.55-1-1.93-3.49-1.91C120.1,288.31,112,288.27,103.9,288.27Z"/><path class="cls-2" d="M256.05,431.09q0-15.81,0-31.61l-.07-.26L256,288.37l0-.18q0-32.87,0-65.73l2.41-.36c2.91,0,5.82,0,8.72,0q107.07,0,214.15,0c3.36,0,6.71.22,10.07.34q0,103.2.08,206.41c0,1.82-.48,2.33-3.93,2.32Q371.79,431,256.05,431.09ZM366.61,272.43c21.74,0,43.48,0,65.22,0,3.43,0,4.53-.52,4.39-2.51a94.83,94.83,0,0,1,0-11.31c.07-1.65-1-2.08-3.73-2.08q-65.69.06-131.36,0c-2.8,0-3.74.49-3.67,2.1a97.16,97.16,0,0,1,0,11.32c-.15,2,1.05,2.49,4.42,2.48C323.43,272.39,345,272.43,366.61,272.43Z"/><rect class="cls-3" x="20.66" y="160.39" width="234.48" height="61.13"/><path class="cls-4" d="M256,399.48c-11.17-.49-21.67-3.08-31.21-8.89C205,378.53,194.47,355.45,199,333.7c4.72-22.92,23-40.37,46.41-44.45A86.51,86.51,0,0,1,256,288.19l0,.18V304l0,.19a40.76,40.76,0,0,0-21.16,5.49c-.82.46-2,.77-.7,2q11,10.32,21.87,20.7c0,.13.05.25.07.37q-.07,11-.16,21.93c-1.58-1.45-3.19-2.88-4.74-4.36q-14.76-14.12-29.5-28.25a5.35,5.35,0,0,0-1.89,2.36c-8.89,15-6.16,34.59,6.42,46.92,8.17,8,18.24,11.68,29.74,12.25q0,7.78,0,15.58Z"/><path class="cls-5" d="M256,304V288.37c23.17-.39,46.59,13.78,54.95,37.63,11.18,31.89-9.16,65.56-43.56,72.24a43.85,43.85,0,0,1-11.44,1q0-7.79,0-15.58a.86.86,0,0,0,0-.28,41.69,41.69,0,0,0,21.42-5.54c1.15-.64,1.38-1.12.33-2.11Q266.82,365.48,256,355.19c0-.16,0-.32-.08-.47q.09-11,.16-21.93L290,365.66a4.94,4.94,0,0,0,2.22-2.54c7.3-13.51,7.3-27-.95-40.06C283.31,310.54,271.13,304.61,256,304Z"/><rect class="cls-6" x="297.44" y="258.67" width="138.78" height="11.29"/><rect class="cls-7" x="255.14" y="160.39" width="236.34" height="61.13"/><rect class="cls-8" x="280.79" y="184.2" width="210.69" height="13.51"/><rect class="cls-9" x="130.78" y="186.9" width="28.03" height="11.83"/><rect class="cls-10" x="75.71" y="186.9" width="28.03" height="11.83"/><rect class="cls-9" x="75.35" y="290.15" width="56.33" height="13.09"/><rect class="cls-10" x="75.35" y="256.91" width="56.33" height="13.09"/><path class="cls-11" d="M499.29,153.28H314c-1.32-5.58-3.42-7.4-9-7.67-1.46-.07-2.93,0-4.39,0q-137.15,0-274.29.1c-4.4,0-5.81-1-5.61-5.56.58-13.15-.83-26.38.67-39.48C22.83,87.94,32.26,79.74,45,79.11c1.62-.08,3.25,0,4.88,0H303.7c7.09,0,8.92-1.38,10.31-7.62,4.37,0,172.91,8,177.27,8C491.28,106.71,499.28,126,499.29,153.28ZM40.19,111.84c.09,13,11.28,24,24.11,23.7s23.55-11.2,23.59-23.85c0-12.94-11-23.87-24-23.84A23.92,23.92,0,0,0,40.19,111.84Zm102.54-.26a23.82,23.82,0,0,0-23.92-23.73,24.15,24.15,0,0,0-23.7,23.62c-.2,12.7,11,24.05,23.84,24.08A24,24,0,0,0,142.73,111.58Zm7.63.14c0,13.11,11,24,23.86,23.82a24,24,0,0,0,23.5-23.72,23.68,23.68,0,1,0-47.36-.1Z"/><path class="cls-12" d="M6,107a49.39,49.39,0,0,1,4.87-21.65,28.32,28.32,0,0,1,3.74-6A39.65,39.65,0,0,1,43.2,64.71c1.45-.12,2.92-.09,4.39-.09q208.43,0,416.86,0c17,0,29.71,7,37.58,22.2a36.35,36.35,0,0,1,4,16.9q0,152.3,0,304.58c0,21.61-17,38.46-38.61,39.07-1,0-280.84,0-419.79,0-17.16,0-29.89-7.18-37.9-22.56a28.18,28.18,0,0,1-2.4-6.44A56.22,56.22,0,0,1,6,409.07ZM113.58,432.24c9.91.1,19.81.29,29.72.28,18.53,0,37.06-.18,55.59-.27,22.55.48,45.1.45,67.65,0a3.47,3.47,0,0,1,.91.09,4.54,4.54,0,0,0,1,.14c65.75,0,131.51.11,197.26,0,15.74,0,25.78-10.42,25.79-26.22q.12-120.58.12-241.18c0-3.43-1.19-4-4.19-3.91-8.13.17-16.27.06-24.41.06H104.6c-7.21,0-9.16-1-11-6.36a3.89,3.89,0,0,1,0-2.71c2-5.25,3.68-5.93,11.32-5.93h379a7.77,7.77,0,0,0,7.64-7.83c-.09-11,0-22.07-.07-33.11a26.27,26.27,0,0,0-2.92-12.67c-5.4-9.79-14.15-13.16-24.82-13.15q-207.49,0-415,0c-.49,0-1,0-1.47,0-16.07.38-26,10.35-26.14,26.45-.1,11.55.16,23.11-.12,34.66-.1,4.3.83,5.85,5.52,5.75,15.12-.32,30.26-.17,45.4-.09,5.86,0,7.84,1.29,9.39,6.09a4,4,0,0,1,0,2.35c-1.43,5-3.7,6.5-9.58,6.51-14.8.05-29.6.21-44.39-.1-4.85-.1-6.44.87-6.42,6.18.21,62.92.13,125.85.13,188.77,0,16.75-.09,33.5,0,50.24.12,15.34,9.18,24.87,24.33,25.92C68.16,432.77,90.87,432.71,113.58,432.24Z"/><path class="cls-13" d="M40.19,111.84a23.92,23.92,0,0,1,23.71-24c13,0,24,10.9,24,23.84,0,12.65-10.83,23.56-23.59,23.85S40.28,124.84,40.19,111.84Z"/><path class="cls-14" d="M142.73,111.58a24,24,0,0,1-23.78,24c-12.81,0-24-11.38-23.84-24.08a24.15,24.15,0,0,1,23.7-23.62A23.82,23.82,0,0,1,142.73,111.58Z"/><path class="cls-15" d="M150.36,111.72a23.68,23.68,0,1,1,47.36.1,24,24,0,0,1-23.5,23.72C161.33,135.75,150.38,124.83,150.36,111.72Z"/></svg>